<?xml version="1.0" encoding="utf-8"?>
<!-- Generator: Adobe Illustrator 18.0.0, SVG Export Plug-In . SVG Version: 6.00 Build 0)  -->
<!DOCTYPE svg PUBLIC "-//W3C//DTD SVG 1.1//EN" "http://www.w3.org/Graphics/SVG/1.1/DTD/svg11.dtd">
<svg version="1.1" id="Layer_1" xmlns="http://www.w3.org/2000/svg" xmlns:xlink="http://www.w3.org/1999/xlink" x="0px" y="0px"
	 viewBox="0 0 500 250" enable-background="new 0 0 500 250" xml:space="preserve">
<rect x="320" y="70" fill="#FFFFFF" stroke="#000000" stroke-miterlimit="10" width="60" height="40"/>
<circle fill="none" stroke="#000000" stroke-miterlimit="10" cx="350" cy="90" r="13"/>
<polygon stroke="#000000" stroke-miterlimit="10" points="361.8,70 337.8,70 340,64 359.8,64 "/>
<g>
	<rect x="60" y="175" fill="#FFFFFF" stroke="#000000" stroke-miterlimit="10" width="56" height="33"/>
	<polyline fill="#FFFFFF" stroke="#000000" stroke-miterlimit="10" points="116,178 88,194 60,178 	"/>
	<line fill="#FFFFFF" stroke="#000000" stroke-miterlimit="10" x1="60" y1="208" x2="81" y2="190"/>
	<line fill="#FFFFFF" stroke="#000000" stroke-miterlimit="10" x1="116" y1="208" x2="95" y2="190"/>
</g>
<g>
	<path fill="#FFFFFF" stroke="#000000" stroke-miterlimit="10" d="M303.8,84.1c0-4-3.3-7.3-7.3-7.3c-1,0-2,0.2-2.9,0.6
		c0.2-1.1,0.4-2.3,0.4-3.4c0-9.4-7.6-17-17-17c-7.9,0-14.6,5.5-16.5,12.8c-0.5-0.1-1-0.1-1.5-0.1c-6,0-10.8,4.9-10.8,10.8
		c0,6,4.9,10.8,10.8,10.8h37.7v0C300.7,91.3,303.8,88.1,303.8,84.1z"/>
	<line fill="none" stroke="#000000" stroke-miterlimit="10" x1="262.1" y1="95.2" x2="255.1" y2="110"/>
	<line fill="none" stroke="#000000" stroke-miterlimit="10" x1="267.3" y1="95.2" x2="260.4" y2="110"/>
	<line fill="none" stroke="#000000" stroke-miterlimit="10" x1="272.5" y1="95.2" x2="265.6" y2="110"/>
	<line fill="none" stroke="#000000" stroke-miterlimit="10" x1="277.7" y1="95.2" x2="270.8" y2="110"/>
	<line fill="none" stroke="#000000" stroke-miterlimit="10" x1="283" y1="95.2" x2="276" y2="110"/>
	<line fill="none" stroke="#000000" stroke-miterlimit="10" x1="288.2" y1="95.2" x2="281.2" y2="110"/>
	<line fill="none" stroke="#000000" stroke-miterlimit="10" x1="293.4" y1="95.2" x2="286.4" y2="110"/>
</g>
<path fill="#FFFFFF" stroke="#000000" stroke-miterlimit="10" d="M422.6,147.8l-4-14.8h-34.6l-11.2,14.8l-27.2,4v16.2h11.9
	c0-4.9,4-8.9,8.9-8.9c4.9,0,8.9,4,8.9,8.9h34.5c0-4.9,4-8.9,8.9-8.9c4.9,0,8.9,4,8.9,8.9h6.4v-18.3L422.6,147.8z"/>
<circle stroke="#000000" stroke-miterlimit="10" cx="366.4" cy="168" r="6.1"/>
<circle stroke="#000000" stroke-miterlimit="10" cx="418.7" cy="168" r="6.1"/>
<rect x="130.4" y="36.3" display="none" fill="#FFFFFF" fill-opacity="0.7" width="239.6" height="177.7"/>
<rect fill="none" stroke="#000000" stroke-miterlimit="10" width="500" height="250"/>
<path stroke="#000000" stroke-miterlimit="10" d="M105,30v190h290V30H105z M367,211H132V38h235V211z"/>
<ellipse fill="#FFFFFF" cx="118.5" cy="125" rx="2.5" ry="2.3"/>
<ellipse fill="none" stroke="#FFFFFF" stroke-miterlimit="10" cx="381.3" cy="125" rx="6.3" ry="5.8"/>
<circle fill="#FFFFFF" stroke="#000000" stroke-miterlimit="10" cx="282.5" cy="187.5" r="14.5"/>
<g>
	<path d="M283.1,194.7l-0.3-1.7c-1,0.2-2.1,0-2.8-0.3l0.2-1.2c0.7,0.3,1.6,0.5,2.6,0.3c1.2-0.2,2-1.1,1.8-2c-0.2-1-0.9-1.4-2.3-1.7
		c-1.9-0.4-3.1-1-3.4-2.5c-0.2-1.4,0.6-2.7,2.1-3.2l-0.3-1.7l1.1-0.2l0.3,1.7c1-0.1,1.8,0,2.4,0.2l-0.2,1.2
		c-0.4-0.1-1.2-0.4-2.3-0.2c-1.3,0.2-1.7,1.1-1.6,1.8c0.1,0.9,0.9,1.2,2.5,1.6c1.9,0.4,3,1.2,3.2,2.7c0.2,1.4-0.5,2.8-2.3,3.4
		l0.3,1.8L283.1,194.7z"/>
</g>
<circle fill="#FFFFFF" stroke="#000000" stroke-miterlimit="10" cx="255.5" cy="164.5" r="14.5"/>
<g>
	<path d="M252.7,171.2l0.5-1.7c-1-0.3-1.9-1-2.3-1.6l0.8-1c0.5,0.6,1.2,1.2,2.2,1.5c1.2,0.4,2.2,0,2.5-1c0.3-0.9-0.2-1.7-1.3-2.6
		c-1.5-1.2-2.3-2.4-1.8-3.8c0.4-1.4,1.8-2.1,3.4-1.9l0.5-1.7l1.1,0.3l-0.5,1.6c1,0.4,1.6,0.8,2,1.3l-0.8,1c-0.3-0.3-0.9-0.9-1.9-1.3
		c-1.3-0.4-2,0.2-2.3,0.9c-0.3,0.9,0.2,1.5,1.5,2.6c1.5,1.3,2.1,2.4,1.6,3.9c-0.4,1.3-1.8,2.3-3.6,2l-0.6,1.7L252.7,171.2z"/>
</g>
<rect x="145" y="80" fill="#FFFFFF" stroke="#000000" stroke-miterlimit="10" width="84" height="103"/>
<rect x="143" y="76.3" fill="#FFFFFF" stroke="#000000" stroke-miterlimit="10" width="88" height="3.4"/>
<rect x="153" y="91" fill="none" stroke="#000000" stroke-miterlimit="10" width="14" height="21"/>
<rect x="184" y="91" fill="none" stroke="#000000" stroke-miterlimit="10" width="14" height="21"/>
<rect x="207" y="91" fill="none" stroke="#000000" stroke-miterlimit="10" width="14" height="21"/>
<rect x="153" y="122" fill="none" stroke="#000000" stroke-miterlimit="10" width="14" height="21"/>
<rect x="184" y="122" fill="none" stroke="#000000" stroke-miterlimit="10" width="14" height="21"/>
<rect x="207" y="122" fill="none" stroke="#000000" stroke-miterlimit="10" width="14" height="21"/>
<rect x="184" y="153" fill="none" stroke="#000000" stroke-miterlimit="10" width="14" height="21"/>
<rect x="207" y="153" fill="none" stroke="#000000" stroke-miterlimit="10" width="14" height="21"/>
<path fill="none" stroke="#000000" stroke-miterlimit="10" d="M151,153v30h18v-30H151z M158,168h-3v-11h3V168z M165,168h-3v-11h3
	V168z"/>
<line fill="none" stroke="#000000" stroke-miterlimit="10" x1="150" y1="112" x2="170" y2="112"/>
<line fill="none" stroke="#000000" stroke-miterlimit="10" x1="150" y1="143" x2="170" y2="143"/>
<line fill="none" stroke="#000000" stroke-miterlimit="10" x1="181" y1="112" x2="201" y2="112"/>
<line fill="none" stroke="#000000" stroke-miterlimit="10" x1="204" y1="112" x2="224" y2="112"/>
<line fill="none" stroke="#000000" stroke-miterlimit="10" x1="181" y1="143" x2="201" y2="143"/>
<line fill="none" stroke="#000000" stroke-miterlimit="10" x1="204" y1="143" x2="224" y2="143"/>
<line fill="none" stroke="#000000" stroke-miterlimit="10" x1="181" y1="174" x2="201" y2="174"/>
<line fill="none" stroke="#000000" stroke-miterlimit="10" x1="204" y1="174" x2="224" y2="174"/>
<line fill="none" stroke="#000000" stroke-miterlimit="10" x1="153" y1="102" x2="167" y2="102"/>
<line fill="none" stroke="#000000" stroke-miterlimit="10" x1="184" y1="102" x2="198" y2="102"/>
<line fill="none" stroke="#000000" stroke-miterlimit="10" x1="207" y1="102" x2="221" y2="102"/>
<line fill="none" stroke="#000000" stroke-miterlimit="10" x1="153" y1="133" x2="167" y2="133"/>
<line fill="none" stroke="#000000" stroke-miterlimit="10" x1="184" y1="133" x2="198" y2="133"/>
<line fill="none" stroke="#000000" stroke-miterlimit="10" x1="207" y1="133" x2="221" y2="133"/>
<line fill="none" stroke="#000000" stroke-miterlimit="10" x1="184" y1="164" x2="198" y2="164"/>
<line fill="none" stroke="#000000" stroke-miterlimit="10" x1="207" y1="164" x2="221" y2="164"/>
<g>
	<polygon fill="#FFFFFF" stroke="#000000" stroke-miterlimit="10" points="439,58 411,58 411,106 451,106 451,70 	"/>
	<polyline fill="#FFFFFF" stroke="#000000" stroke-miterlimit="10" points="439,58 439,70 451,70 	"/>
</g>
<g>
	<path fill="none" stroke="#000000" stroke-miterlimit="10" d="M67.4,123.5"/>
	<path fill="none" stroke="#000000" stroke-miterlimit="10" d="M87.2,142.5"/>
	<polygon fill="none" stroke="#000000" stroke-miterlimit="10" points="67.4,125.9 78.5,146.5 59.5,146.5 40.4,129.8 42,125.9 	"/>
	<circle fill="none" stroke="#000000" stroke-miterlimit="10" cx="78.5" cy="146.5" r="13.5"/>
	<circle fill="none" stroke="#000000" stroke-miterlimit="10" cx="32.5" cy="146.5" r="13.5"/>
	<line fill="none" stroke="#000000" stroke-miterlimit="10" x1="69" y1="121.8" x2="59.5" y2="146.5"/>
	<line fill="none" stroke="#000000" stroke-miterlimit="10" x1="32.5" y1="146.5" x2="40.4" y2="129.8"/>
	<line fill="none" stroke="#000000" stroke-miterlimit="10" x1="42" y1="125.9" x2="42.9" y2="123.7"/>
	<line fill="none" stroke="#000000" stroke-miterlimit="10" x1="63.4" y1="121.9" x2="72.2" y2="121.9"/>
	<path fill="none" stroke="#000000" stroke-miterlimit="10" d="M43.6,123.2c0,0-9.6-0.5-6,5.8"/>
</g>
<rect x="287" y="135" fill="#FFFFFF" stroke="#000000" stroke-miterlimit="10" width="40" height="30"/>
<g>
	<path fill="#FFFFFF" stroke="#000000" stroke-miterlimit="10" d="M319.5,135"/>
	<path fill="#FFFFFF" stroke="#000000" stroke-miterlimit="10" d="M294.5,135"/>
	<path fill="#FFFFFF" stroke="#000000" stroke-miterlimit="10" d="M298.5,130c0-4.4,3.6-8,8-8h1c4.4,0,8,3.6,8,8v5h4v-5
		c0-6.6-5.4-12-12-12h-1c-6.6,0-12,5.4-12,12v5h4V130z"/>
	<path fill="#FFFFFF" stroke="#000000" stroke-miterlimit="10" d="M298.5,135"/>
	<path fill="#FFFFFF" stroke="#000000" stroke-miterlimit="10" d="M315.5,135"/>
</g>
<path stroke="#000000" stroke-miterlimit="10" d="M312.2,146.2c0-2.9-2.4-5.2-5.2-5.2c-2.9,0-5.2,2.4-5.2,5.2c0,2.3,1.5,4.2,3.5,4.9
	c-0.1,0.2-0.1,0.4-0.1,0.7v5.2c0,1,0.8,1.9,1.9,1.9c1,0,1.9-0.8,1.9-1.9v-5.2c0-0.2,0-0.5-0.1-0.7
	C310.8,150.5,312.2,148.5,312.2,146.2z"/>
<g>
	<rect x="54" y="66.5" fill="#FFFFFF" stroke="#000000" stroke-miterlimit="10" width="40" height="37"/>
	<line fill="#FFFFFF" stroke="#000000" stroke-miterlimit="10" x1="64" y1="62" x2="64" y2="72"/>
	<line fill="#FFFFFF" stroke="#000000" stroke-miterlimit="10" x1="84" y1="62" x2="84" y2="72"/>
	<polyline fill="#FFFFFF" stroke="#000000" stroke-miterlimit="10" points="66,78 82,78 70,97 	"/>
</g>
<polyline fill="none" stroke="#000000" stroke-miterlimit="10" points="181,71 181,61 258,61 "/>
<polyline fill="none" stroke="#000000" stroke-miterlimit="10" points="301,189 315,189 315,169 "/>
<polyline fill="none" stroke="#000000" stroke-miterlimit="10" points="47,81 28,81 28,126 "/>
<polyline fill="none" stroke="#000000" stroke-miterlimit="10" points="456,88 475,88 475,156 439,156 "/>
<polyline fill="none" stroke="#000000" stroke-miterlimit="10" points="84,212 84,235 188,235 188,224 "/>
<line fill="none" stroke="#000000" stroke-miterlimit="10" x1="188" y1="207" x2="188" y2="188"/>
<polyline fill="none" stroke="#000000" stroke-miterlimit="10" points="45,162 45,189 56,189 "/>
<polyline fill="none" stroke="#000000" stroke-miterlimit="10" points="405,174 405,190 494,190 "/>
<polyline fill="none" stroke="#000000" stroke-miterlimit="10" points="6,43 74,43 74,61 "/>
<line fill="none" stroke="#000000" stroke-miterlimit="10" x1="346" y1="60" x2="346" y2="42"/>
<polyline fill="none" stroke="#000000" stroke-miterlimit="10" points="346,26 346,17 428,17 428,54 "/>
<line fill="none" stroke="#000000" stroke-miterlimit="10" x1="233" y1="142" x2="283" y2="142"/>
<polyline fill="none" stroke="#000000" stroke-miterlimit="10" points="87,108 87,125 101,125 "/>
<line fill="none" stroke="#000000" stroke-miterlimit="10" x1="135" y1="125" x2="141" y2="125"/>
<line fill="none" stroke="#000000" stroke-miterlimit="10" x1="399" y1="88" x2="407" y2="88"/>
<line fill="none" stroke="#000000" stroke-miterlimit="10" x1="331" y1="142" x2="362" y2="142"/>
<line fill="none" stroke="#000000" stroke-miterlimit="10" x1="346" y1="115" x2="346" y2="142"/>
</svg>
