<?xml version="1.0" encoding="utf-8"?>
<!-- Generator: Adobe Illustrator 18.0.0, SVG Export Plug-In . SVG Version: 6.00 Build 0)  -->
<!DOCTYPE svg PUBLIC "-//W3C//DTD SVG 1.1//EN" "http://www.w3.org/Graphics/SVG/1.1/DTD/svg11.dtd">
<svg version="1.1" id="Layer_1" xmlns="http://www.w3.org/2000/svg" xmlns:xlink="http://www.w3.org/1999/xlink" x="0px" y="0px"
	 viewBox="0 0 500 250" enable-background="new 0 0 500 250" xml:space="preserve">
<rect x="105" y="30" fill="none" stroke="#000000" stroke-miterlimit="10" width="290" height="190"/>
<rect fill="none" stroke="#000000" stroke-miterlimit="10" width="500" height="250"/>
<rect x="109" y="113" fill="none" stroke="#000000" stroke-miterlimit="10" width="103" height="103"/>
<rect x="288" y="113" fill="none" stroke="#000000" stroke-miterlimit="10" width="103" height="103"/>
<g>
	<path fill="none" stroke="#000000" stroke-miterlimit="10" d="M208,207c0,2.8-2.2,5-5,5h-85c-2.8,0-5-2.2-5-5v-85c0-2.8,2.2-5,5-5
		h85c2.8,0,5,2.2,5,5V207z"/>
</g>
<g>
	<path fill-rule="evenodd" clip-rule="evenodd" fill="#90A4AE" d="M115.5,116.9c0.5,0.7-0.7,1.9-1.9,1.7
		C113.6,117.5,114.8,117.5,115.5,116.9z"/>
	<path fill-rule="evenodd" clip-rule="evenodd" fill="#90A4AE" d="M122.7,117.1c0.2-0.5,1.3-0.1,1.9-0.2
		C124.3,117.6,123.3,117.4,122.7,117.1z"/>
	<path fill-rule="evenodd" clip-rule="evenodd" fill="#90A4AE" d="M138,117.1c1.1-0.4,2,0,2.2,1.2
		C140.7,122.6,134.1,118.5,138,117.1z"/>
	<path fill-rule="evenodd" clip-rule="evenodd" fill="#90A4AE" d="M146.4,116.9c1.1,0,2.2,0,3.4,0
		C150.2,119.7,146,119.7,146.4,116.9z"/>
	<path fill-rule="evenodd" clip-rule="evenodd" fill="#90A4AE" d="M156.3,116.9c1,0,1.9,0,2.9,0
		C159.1,118.4,156.3,118.4,156.3,116.9z"/>
	<path fill-rule="evenodd" clip-rule="evenodd" fill="#90A4AE" d="M183.4,117.1C184.4,123.3,176.1,116,183.4,117.1L183.4,117.1z"/>
	<path fill-rule="evenodd" clip-rule="evenodd" fill="#90A4AE" d="M189.9,116.9c1.1,0,2.2,0,3.4,0C193.2,119,189.9,119,189.9,116.9z
		"/>
	<path fill-rule="evenodd" clip-rule="evenodd" fill="#90A4AE" d="M199.9,117.1c0.3-0.5,1.7-0.1,2.4-0.2
		C202,117.8,200.5,117.7,199.9,117.1z"/>
	<path fill-rule="evenodd" clip-rule="evenodd" fill="#90A4AE" d="M172.1,117.9c1.1-0.4,2,0,2.2,1.2
		C174.7,123.3,168.2,119.3,172.1,117.9z"/>
	<path fill-rule="evenodd" clip-rule="evenodd" fill="#90A4AE" d="M128.4,118.3c1.1-0.4,2,0,2.2,1.2
		C131.1,123.8,124.5,119.7,128.4,118.3z"/>
	<path fill-rule="evenodd" clip-rule="evenodd" fill="#90A4AE" d="M206.9,121.7c-1.4,0-2.1-0.6-2.2-1.4
		C204.4,117.5,208,118.9,206.9,121.7z"/>
	<path fill-rule="evenodd" clip-rule="evenodd" fill="#90A4AE" d="M162.5,119.1c1.1-0.4,2,0,2.2,1.2
		C165.1,124.5,158.6,120.5,162.5,119.1z"/>
	<path fill-rule="evenodd" clip-rule="evenodd" fill="#90A4AE" d="M119.1,119.5c1.1-0.4,2,0,2.2,1.2
		C121.7,125,115.1,120.9,119.1,119.5z"/>
	<path fill-rule="evenodd" clip-rule="evenodd" fill="#90A4AE" d="M196.3,119.8c1.1-0.4,2,0,2.2,1.2
		C199,125.2,192.4,121.2,196.3,119.8z"/>
	<path fill-rule="evenodd" clip-rule="evenodd" fill="#90A4AE" d="M152.9,120.3c1.1-0.4,2,0,2.2,1.2
		C155.5,125.7,149,121.7,152.9,120.3z"/>
	<path fill-rule="evenodd" clip-rule="evenodd" fill="#90A4AE" d="M187,121c1.1-0.4,2,0,2.2,1.2C189.6,126.4,183.1,122.4,187,121z"
		/>
	<path fill-rule="evenodd" clip-rule="evenodd" fill="#90A4AE" d="M143.3,121.5c1.1-0.4,2,0,2.2,1.2
		C145.9,126.9,139.4,122.9,143.3,121.5z"/>
	<path fill-rule="evenodd" clip-rule="evenodd" fill="#90A4AE" d="M177.4,122.2c1.1-0.4,2,0,2.2,1.2
		C180,127.6,173.5,123.6,177.4,122.2z"/>
	<path fill-rule="evenodd" clip-rule="evenodd" fill="#90A4AE" d="M133.9,122.7c1.1-0.4,2,0,2.2,1.2
		C136.6,128.1,130,124.1,133.9,122.7z"/>
	<path fill-rule="evenodd" clip-rule="evenodd" fill="#90A4AE" d="M167.8,123.1c1.1-0.4,2,0,2.2,1.2
		C170.4,128.6,163.9,124.5,167.8,123.1z"/>
	<path fill-rule="evenodd" clip-rule="evenodd" fill="#90A4AE" d="M124.3,123.6c1.1-0.4,2,0,2.2,1.2
		C127,129.1,120.4,125,124.3,123.6z"/>
	<path fill-rule="evenodd" clip-rule="evenodd" fill="#90A4AE" d="M201.9,123.9c1.1-0.4,2,0,2.2,1.2
		C204.5,129.3,197.9,125.3,201.9,123.9z"/>
	<path fill-rule="evenodd" clip-rule="evenodd" fill="#90A4AE" d="M158.2,124.3c1.1-0.4,2,0,2.2,1.2
		C160.8,129.8,154.3,125.7,158.2,124.3z"/>
	<path fill-rule="evenodd" clip-rule="evenodd" fill="#90A4AE" d="M114.7,124.8c1.1-0.4,2,0,2.2,1.2
		C117.4,130.3,110.8,126.2,114.7,124.8z"/>
	<path fill-rule="evenodd" clip-rule="evenodd" fill="#90A4AE" d="M192.3,125.1c1.1-0.4,2,0,2.2,1.2
		C194.9,130.5,188.3,126.5,192.3,125.1z"/>
	<path fill-rule="evenodd" clip-rule="evenodd" fill="#90A4AE" d="M148.8,125.5c1.1-0.4,2,0,2.2,1.2
		C151.5,131,144.9,126.9,148.8,125.5z"/>
	<path fill-rule="evenodd" clip-rule="evenodd" fill="#90A4AE" d="M182.7,126.3c1.1-0.4,2,0,2.2,1.2
		C185.3,131.7,178.7,127.7,182.7,126.3z"/>
	<path fill-rule="evenodd" clip-rule="evenodd" fill="#90A4AE" d="M139.2,126.7c1.1-0.4,2,0,2.2,1.2
		C141.9,132.2,135.3,128.1,139.2,126.7z"/>
	<path fill-rule="evenodd" clip-rule="evenodd" fill="#90A4AE" d="M173.1,127.5c1.1-0.4,2,0,2.2,1.2
		C175.7,132.9,169.1,128.9,173.1,127.5z"/>
	<path fill-rule="evenodd" clip-rule="evenodd" fill="#90A4AE" d="M129.6,127.9c1.1-0.4,2,0,2.2,1.2
		C132.3,133.4,125.7,129.3,129.6,127.9z"/>
	<path fill-rule="evenodd" clip-rule="evenodd" fill="#90A4AE" d="M206.7,128.2c1,0.1,0.2,2,0.5,2.9c-0.8,0-0.9-0.7-1.2-1.2
		C205.8,128.9,206.4,128.7,206.7,128.2z"/>
	<path fill-rule="evenodd" clip-rule="evenodd" fill="#90A4AE" d="M163.7,128.7c1.1-0.4,2,0,2.2,1.2
		C166.3,134.1,159.8,130.1,163.7,128.7z"/>
	<path fill-rule="evenodd" clip-rule="evenodd" fill="#90A4AE" d="M120.3,129.1c1.1-0.4,2,0,2.2,1.2
		C122.9,134.6,116.3,130.5,120.3,129.1z"/>
	<path fill-rule="evenodd" clip-rule="evenodd" fill="#90A4AE" d="M197.5,129.4c1.1-0.4,2,0,2.2,1.2
		C200.2,134.8,193.6,130.8,197.5,129.4z"/>
	<path fill-rule="evenodd" clip-rule="evenodd" fill="#90A4AE" d="M154.1,129.9c1.1-0.4,2,0,2.2,1.2
		C156.7,135.3,150.2,131.3,154.1,129.9z"/>
	<path fill-rule="evenodd" clip-rule="evenodd" fill="#90A4AE" d="M187.9,130.3c1.1-0.4,2,0,2.2,1.2
		C190.6,135.8,184,131.7,187.9,130.3z"/>
	<path fill-rule="evenodd" clip-rule="evenodd" fill="#90A4AE" d="M112.1,130.6c0.9,0.3,0.8,1.8,0.2,2.4
		C111.8,132.6,112.3,131.3,112.1,130.6z"/>
	<path fill-rule="evenodd" clip-rule="evenodd" fill="#90A4AE" d="M144.5,130.8c1.1-0.4,2,0,2.2,1.2
		C147.1,136.3,140.6,132.2,144.5,130.8z"/>
	<path fill-rule="evenodd" clip-rule="evenodd" fill="#90A4AE" d="M178.6,131.5c1.1-0.4,2,0,2.2,1.2
		C181.2,137,174.7,132.9,178.6,131.5z"/>
	<path fill-rule="evenodd" clip-rule="evenodd" fill="#90A4AE" d="M135.1,132c1.1-0.4,2,0,2.2,1.2
		C137.8,137.5,131.2,133.4,135.1,132z"/>
	<path fill-rule="evenodd" clip-rule="evenodd" fill="#90A4AE" d="M169,132.7c1.1-0.4,2,0,2.2,1.2
		C171.6,138.2,165.1,134.1,169,132.7z"/>
	<path fill-rule="evenodd" clip-rule="evenodd" fill="#90A4AE" d="M125.5,133.2c1.1-0.4,2,0,2.2,1.2
		C128.2,138.7,121.6,134.6,125.5,133.2z"/>
	<path fill-rule="evenodd" clip-rule="evenodd" fill="#90A4AE" d="M202.8,133.5c1.1-0.4,2,0,2.2,1.2
		C205.5,138.9,198.9,134.9,202.8,133.5z"/>
	<path fill-rule="evenodd" clip-rule="evenodd" fill="#90A4AE" d="M159.4,133.9c1.1-0.4,2,0,2.2,1.2
		C162,139.4,155.5,135.3,159.4,133.9z"/>
	<path fill-rule="evenodd" clip-rule="evenodd" fill="#90A4AE" d="M115.9,134.4c1.1-0.4,2,0,2.2,1.2
		C118.6,139.9,112,135.8,115.9,134.4z"/>
	<path fill-rule="evenodd" clip-rule="evenodd" fill="#90A4AE" d="M193.5,134.7c1.1-0.4,2,0,2.2,1.2
		C196.1,140.1,189.5,136.1,193.5,134.7z"/>
	<path fill-rule="evenodd" clip-rule="evenodd" fill="#90A4AE" d="M150,135.1c1.1-0.4,2,0,2.2,1.2
		C152.7,140.6,146.1,136.5,150,135.1z"/>
	<path fill-rule="evenodd" clip-rule="evenodd" fill="#90A4AE" d="M183.9,135.9c1.1-0.4,2,0,2.2,1.2
		C186.5,141.3,179.9,137.3,183.9,135.9z"/>
	<path fill-rule="evenodd" clip-rule="evenodd" fill="#90A4AE" d="M140.4,136.3c1.1-0.4,2,0,2.2,1.2
		C143.1,141.8,136.5,137.7,140.4,136.3z"/>
	<path fill-rule="evenodd" clip-rule="evenodd" fill="#90A4AE" d="M174.3,137.1c1.1-0.4,2,0,2.2,1.2
		C176.9,142.5,170.3,138.5,174.3,137.1z"/>
	<path fill-rule="evenodd" clip-rule="evenodd" fill="#90A4AE" d="M130.8,137.5c1.1-0.4,2,0,2.2,1.2
		C133.5,143,126.9,138.9,130.8,137.5z"/>
	<path fill-rule="evenodd" clip-rule="evenodd" fill="#90A4AE" d="M164.9,138c1.1-0.4,2,0,2.2,1.2C167.5,143.5,161,139.4,164.9,138z
		"/>
	<path fill-rule="evenodd" clip-rule="evenodd" fill="#90A4AE" d="M121.2,138.5c1.1-0.4,2,0,2.2,1.2
		C123.9,144,117.3,139.9,121.2,138.5z"/>
	<path fill-rule="evenodd" clip-rule="evenodd" fill="#90A4AE" d="M198.7,138.7c1.1-0.4,2,0,2.2,1.2
		C201.4,144.2,194.8,140.1,198.7,138.7z"/>
	<path fill-rule="evenodd" clip-rule="evenodd" fill="#90A4AE" d="M155.3,139.2c1.1-0.4,2,0,2.2,1.2
		C157.9,144.7,151.4,140.6,155.3,139.2z"/>
	<path fill-rule="evenodd" clip-rule="evenodd" fill="#90A4AE" d="M112.1,139.5c2.4-0.2,2.4,3.6,0,3.4
		C112.1,141.7,112.1,140.6,112.1,139.5z"/>
	<path fill-rule="evenodd" clip-rule="evenodd" fill="#90A4AE" d="M189.1,139.9c1.1-0.4,2,0,2.2,1.2
		C191.8,145.4,185.2,141.3,189.1,139.9z"/>
	<path fill-rule="evenodd" clip-rule="evenodd" fill="#90A4AE" d="M145.7,140.4c1.1-0.4,2,0,2.2,1.2
		C148.3,145.9,141.8,141.8,145.7,140.4z"/>
	<path fill-rule="evenodd" clip-rule="evenodd" fill="#90A4AE" d="M179.8,141.1c1.1-0.4,2,0,2.2,1.2
		C182.4,146.6,175.9,142.5,179.8,141.1z"/>
	<path fill-rule="evenodd" clip-rule="evenodd" fill="#90A4AE" d="M136.1,141.6c1.1-0.4,2,0,2.2,1.2
		C138.7,147.1,132.2,143,136.1,141.6z"/>
	<path fill-rule="evenodd" clip-rule="evenodd" fill="#90A4AE" d="M170.2,142.3c1.1-0.4,2,0,2.2,1.2
		C172.8,147.8,166.3,143.7,170.2,142.3z"/>
	<path fill-rule="evenodd" clip-rule="evenodd" fill="#90A4AE" d="M126.7,142.8c1.1-0.4,2,0,2.2,1.2
		C129.4,148.3,122.8,144.2,126.7,142.8z"/>
	<path fill-rule="evenodd" clip-rule="evenodd" fill="#90A4AE" d="M204,143.1c1.1-0.4,2,0,2.2,1.2
		C206.7,148.5,200.1,144.5,204,143.1z"/>
	<path fill-rule="evenodd" clip-rule="evenodd" fill="#90A4AE" d="M160.6,143.5c1.1-0.4,2,0,2.2,1.2
		C163.2,149,156.7,144.9,160.6,143.5z"/>
	<path fill-rule="evenodd" clip-rule="evenodd" fill="#90A4AE" d="M117.1,144c1.1-0.4,2,0,2.2,1.2
		C119.8,149.5,113.2,145.4,117.1,144z"/>
	<path fill-rule="evenodd" clip-rule="evenodd" fill="#90A4AE" d="M194.7,144c1.1-0.4,2,0,2.2,1.2
		C197.3,149.5,190.7,145.4,194.7,144z"/>
	<path fill-rule="evenodd" clip-rule="evenodd" fill="#90A4AE" d="M151,144.7c1.1-0.4,2,0,2.2,1.2
		C153.6,150.2,147.1,146.1,151,144.7z"/>
	<path fill-rule="evenodd" clip-rule="evenodd" fill="#90A4AE" d="M185.1,145.2c1.1-0.4,2,0,2.2,1.2
		C187.7,150.7,181.1,146.6,185.1,145.2z"/>
	<path fill-rule="evenodd" clip-rule="evenodd" fill="#90A4AE" d="M141.6,145.7c1.1-0.4,2,0,2.2,1.2
		C144.3,151.2,137.7,147.1,141.6,145.7z"/>
	<path fill-rule="evenodd" clip-rule="evenodd" fill="#90A4AE" d="M175.5,146.4c1.1-0.4,2,0,2.2,1.2
		C178.1,151.9,171.5,147.8,175.5,146.4z"/>
	<path fill-rule="evenodd" clip-rule="evenodd" fill="#90A4AE" d="M132,146.9c1.1-0.4,2,0,2.2,1.2
		C134.7,152.4,128.1,148.3,132,146.9z"/>
	<path fill-rule="evenodd" clip-rule="evenodd" fill="#90A4AE" d="M165.9,147.6c1.1-0.4,2,0,2.2,1.2
		C168.5,153.1,161.9,149,165.9,147.6z"/>
	<path fill-rule="evenodd" clip-rule="evenodd" fill="#90A4AE" d="M122.4,148.1c1.1-0.4,2,0,2.2,1.2
		C125.1,153.6,118.5,149.5,122.4,148.1z"/>
	<path fill-rule="evenodd" clip-rule="evenodd" fill="#90A4AE" d="M199.9,148.3c1.1-0.4,2,0,2.2,1.2
		C202.6,153.8,196,149.7,199.9,148.3z"/>
	<path fill-rule="evenodd" clip-rule="evenodd" fill="#90A4AE" d="M156.5,148.8c1.1-0.4,2,0,2.2,1.2
		C159.1,154.3,152.6,150.2,156.5,148.8z"/>
	<path fill-rule="evenodd" clip-rule="evenodd" fill="#90A4AE" d="M112.1,151.7c-0.7-3.5,2.9-3.1,3.1-1.2
		C115.4,152,113.5,153.2,112.1,151.7z"/>
	<path fill-rule="evenodd" clip-rule="evenodd" fill="#90A4AE" d="M190.3,149.5c1.1-0.4,2,0,2.2,1.2
		C193,155,186.4,150.9,190.3,149.5z"/>
	<path fill-rule="evenodd" clip-rule="evenodd" fill="#90A4AE" d="M146.9,150c1.1-0.4,2,0,2.2,1.2C149.5,155.5,143,151.4,146.9,150z
		"/>
	<path fill-rule="evenodd" clip-rule="evenodd" fill="#90A4AE" d="M180.7,150.7c1.1-0.4,2,0,2.2,1.2
		C183.4,156.2,176.8,152.1,180.7,150.7z"/>
	<path fill-rule="evenodd" clip-rule="evenodd" fill="#90A4AE" d="M137.3,151.2c1.1-0.4,2,0,2.2,1.2
		C139.9,156.7,133.4,152.6,137.3,151.2z"/>
	<path fill-rule="evenodd" clip-rule="evenodd" fill="#90A4AE" d="M171.4,151.7c1.1-0.4,2,0,2.2,1.2
		C174,157.2,167.5,153.1,171.4,151.7z"/>
	<path fill-rule="evenodd" clip-rule="evenodd" fill="#90A4AE" d="M127.9,152.4c1.1-0.4,2,0,2.2,1.2
		C130.6,157.9,124,153.8,127.9,152.4z"/>
	<path fill-rule="evenodd" clip-rule="evenodd" fill="#90A4AE" d="M207.1,152.9c0,0.6,0,1.3,0,1.9
		C203.4,157.9,203.4,149.8,207.1,152.9z"/>
	<path fill-rule="evenodd" clip-rule="evenodd" fill="#90A4AE" d="M161.8,152.9c1.1-0.4,2,0,2.2,1.2
		C164.4,158.4,157.9,154.3,161.8,152.9z"/>
	<path fill-rule="evenodd" clip-rule="evenodd" fill="#90A4AE" d="M118.3,153.4c1.1-0.4,2,0,2.2,1.2
		C121,158.8,114.4,154.8,118.3,153.4z"/>
	<path fill-rule="evenodd" clip-rule="evenodd" fill="#90A4AE" d="M195.6,153.6c1.1-0.4,2,0,2.2,1.2
		C198.3,159.1,191.7,155,195.6,153.6z"/>
	<path fill-rule="evenodd" clip-rule="evenodd" fill="#90A4AE" d="M152.2,154.1c1.1-0.4,2,0,2.2,1.2
		C154.8,159.6,148.3,155.5,152.2,154.1z"/>
	<path fill-rule="evenodd" clip-rule="evenodd" fill="#90A4AE" d="M186.3,154.8c1.1-0.4,2,0,2.2,1.2
		C188.9,160.3,182.3,156.2,186.3,154.8z"/>
	<path fill-rule="evenodd" clip-rule="evenodd" fill="#90A4AE" d="M142.8,155.3c1.1-0.4,2,0,2.2,1.2
		C145.5,160.8,138.9,156.7,142.8,155.3z"/>
	<path fill-rule="evenodd" clip-rule="evenodd" fill="#90A4AE" d="M176.7,156c1.1-0.4,2,0,2.2,1.2
		C179.3,161.5,172.7,157.4,176.7,156z"/>
	<path fill-rule="evenodd" clip-rule="evenodd" fill="#90A4AE" d="M133.2,156.5c1.1-0.4,2,0,2.2,1.2
		C135.9,162,129.3,157.9,133.2,156.5z"/>
	<path fill-rule="evenodd" clip-rule="evenodd" fill="#90A4AE" d="M167.1,157.2c1.1-0.4,2,0,2.2,1.2
		C169.7,162.7,163.1,158.6,167.1,157.2z"/>
	<path fill-rule="evenodd" clip-rule="evenodd" fill="#90A4AE" d="M123.6,157.7c1.1-0.4,2,0,2.2,1.2
		C126.3,163.2,119.7,159.1,123.6,157.7z"/>
	<path fill-rule="evenodd" clip-rule="evenodd" fill="#90A4AE" d="M201.1,157.9c1.1-0.4,2,0,2.2,1.2
		C203.8,163.4,197.2,159.3,201.1,157.9z"/>
	<path fill-rule="evenodd" clip-rule="evenodd" fill="#90A4AE" d="M157.7,158.4c1.1-0.4,2,0,2.2,1.2
		C160.3,163.9,153.8,159.8,157.7,158.4z"/>
	<path fill-rule="evenodd" clip-rule="evenodd" fill="#90A4AE" d="M114.3,158.9c1.1-0.4,2,0,2.2,1.2
		C116.9,164.4,110.3,160.3,114.3,158.9z"/>
	<path fill-rule="evenodd" clip-rule="evenodd" fill="#90A4AE" d="M191.5,158.9c1.1-0.4,2,0,2.2,1.2
		C194.2,164.4,187.6,160.3,191.5,158.9z"/>
	<path fill-rule="evenodd" clip-rule="evenodd" fill="#90A4AE" d="M148.1,159.4c1.1-0.4,2,0,2.2,1.2
		C150.7,164.8,144.2,160.8,148.1,159.4z"/>
	<path fill-rule="evenodd" clip-rule="evenodd" fill="#90A4AE" d="M181.9,160.1c1.1-0.4,2,0,2.2,1.2
		C184.6,165.6,178,161.5,181.9,160.1z"/>
	<path fill-rule="evenodd" clip-rule="evenodd" fill="#90A4AE" d="M138.5,160.6c1.1-0.4,2,0,2.2,1.2
		C141.1,166,134.6,162,138.5,160.6z"/>
	<path fill-rule="evenodd" clip-rule="evenodd" fill="#90A4AE" d="M172.6,161.3c1.1-0.4,2,0,2.2,1.2
		C175.2,166.8,168.7,162.7,172.6,161.3z"/>
	<path fill-rule="evenodd" clip-rule="evenodd" fill="#90A4AE" d="M128.9,161.8c1.1-0.4,2,0,2.2,1.2
		C131.5,167.2,125,163.2,128.9,161.8z"/>
	<path fill-rule="evenodd" clip-rule="evenodd" fill="#90A4AE" d="M207.1,161.8c0,1.1,0,2.2,0,3.4
		C204.7,165.3,204.7,161.6,207.1,161.8z"/>
	<path fill-rule="evenodd" clip-rule="evenodd" fill="#90A4AE" d="M163,162.5c1.1-0.4,2,0,2.2,1.2C165.6,168,159.1,163.9,163,162.5z
		"/>
	<path fill-rule="evenodd" clip-rule="evenodd" fill="#90A4AE" d="M119.5,163c1.1-0.4,2,0,2.2,1.2
		C122.2,168.4,115.6,164.4,119.5,163z"/>
	<path fill-rule="evenodd" clip-rule="evenodd" fill="#90A4AE" d="M196.8,163.2c1.1-0.4,2,0,2.2,1.2
		C199.5,168.7,192.9,164.6,196.8,163.2z"/>
	<path fill-rule="evenodd" clip-rule="evenodd" fill="#90A4AE" d="M153.4,163.7c1.1-0.4,2,0,2.2,1.2
		C156,169.2,149.5,165.1,153.4,163.7z"/>
	<path fill-rule="evenodd" clip-rule="evenodd" fill="#90A4AE" d="M187.5,164.4c1.1-0.4,2,0,2.2,1.2
		C190.1,169.9,183.5,165.8,187.5,164.4z"/>
	<path fill-rule="evenodd" clip-rule="evenodd" fill="#90A4AE" d="M143.8,164.9c1.1-0.4,2,0,2.2,1.2
		C146.4,170.4,139.9,166.3,143.8,164.9z"/>
	<path fill-rule="evenodd" clip-rule="evenodd" fill="#90A4AE" d="M177.9,165.6c1.1-0.4,2,0,2.2,1.2
		C180.5,171.1,173.9,167,177.9,165.6z"/>
	<path fill-rule="evenodd" clip-rule="evenodd" fill="#90A4AE" d="M134.4,166.1c1.1-0.4,2,0,2.2,1.2
		C137.1,171.6,130.5,167.5,134.4,166.1z"/>
	<path fill-rule="evenodd" clip-rule="evenodd" fill="#90A4AE" d="M168.3,166.6c1.1-0.4,2,0,2.2,1.2
		C170.9,172,164.3,168,168.3,166.6z"/>
	<path fill-rule="evenodd" clip-rule="evenodd" fill="#90A4AE" d="M124.8,167.1c1.1-0.4,2,0,2.2,1.2
		C127.5,172.5,120.9,168.5,124.8,167.1z"/>
	<path fill-rule="evenodd" clip-rule="evenodd" fill="#90A4AE" d="M202.3,167.3c1.1-0.4,2,0,2.2,1.2
		C205,172.8,198.4,168.7,202.3,167.3z"/>
	<path fill-rule="evenodd" clip-rule="evenodd" fill="#90A4AE" d="M158.7,167.8c1.1-0.4,2,0,2.2,1.2
		C161.3,173.2,154.7,169.2,158.7,167.8z"/>
	<path fill-rule="evenodd" clip-rule="evenodd" fill="#90A4AE" d="M115.2,168.3c1.1-0.4,2,0,2.2,1.2
		C117.9,173.7,111.3,169.7,115.2,168.3z"/>
	<path fill-rule="evenodd" clip-rule="evenodd" fill="#90A4AE" d="M192.7,168.5c1.1-0.4,2,0,2.2,1.2
		C195.4,174,188.8,169.9,192.7,168.5z"/>
	<path fill-rule="evenodd" clip-rule="evenodd" fill="#90A4AE" d="M149.3,169c1.1-0.4,2,0,2.2,1.2
		C151.9,174.4,145.4,170.4,149.3,169z"/>
	<path fill-rule="evenodd" clip-rule="evenodd" fill="#90A4AE" d="M183.1,169.7c1.1-0.4,2,0,2.2,1.2
		C185.8,175.2,179.2,171.1,183.1,169.7z"/>
	<path fill-rule="evenodd" clip-rule="evenodd" fill="#90A4AE" d="M139.7,170.2c1.1-0.4,2,0,2.2,1.2
		C142.3,175.6,135.8,171.6,139.7,170.2z"/>
	<path fill-rule="evenodd" clip-rule="evenodd" fill="#90A4AE" d="M173.5,170.9c1.1-0.4,2,0,2.2,1.2
		C176.2,176.4,169.6,172.3,173.5,170.9z"/>
	<path fill-rule="evenodd" clip-rule="evenodd" fill="#90A4AE" d="M130.1,171.4c1.1-0.4,2,0,2.2,1.2
		C132.7,176.8,126.2,172.8,130.1,171.4z"/>
	<path fill-rule="evenodd" clip-rule="evenodd" fill="#90A4AE" d="M164.2,172.1c1.1-0.4,2,0,2.2,1.2
		C166.8,177.6,160.3,173.5,164.2,172.1z"/>
	<path fill-rule="evenodd" clip-rule="evenodd" fill="#90A4AE" d="M206.9,171.9c0.5,0.3,0.1,1.7,0.2,2.4
		C206.2,173.9,206.3,172.5,206.9,171.9z"/>
	<path fill-rule="evenodd" clip-rule="evenodd" fill="#90A4AE" d="M120.7,172.6c1.1-0.4,2,0,2.2,1.2
		C123.4,178,116.8,174,120.7,172.6z"/>
	<path fill-rule="evenodd" clip-rule="evenodd" fill="#90A4AE" d="M198,172.8c1.1-0.4,2,0,2.2,1.2
		C200.7,178.3,194.1,174.2,198,172.8z"/>
	<path fill-rule="evenodd" clip-rule="evenodd" fill="#90A4AE" d="M154.6,173.3c1.1-0.4,2,0,2.2,1.2
		C157.2,178.8,150.7,174.7,154.6,173.3z"/>
	<path fill-rule="evenodd" clip-rule="evenodd" fill="#90A4AE" d="M188.4,173.8c1.1-0.4,2,0,2.2,1.2
		C191.1,179.2,184.5,175.2,188.4,173.8z"/>
	<path fill-rule="evenodd" clip-rule="evenodd" fill="#90A4AE" d="M112.1,173.8c1.5,0.1,1.5,2.8,0,2.9
		C112.1,175.7,112.1,174.7,112.1,173.8z"/>
	<path fill-rule="evenodd" clip-rule="evenodd" fill="#90A4AE" d="M145,174.3c1.1-0.4,2,0,2.2,1.2
		C147.6,179.7,141.1,175.7,145,174.3z"/>
	<path fill-rule="evenodd" clip-rule="evenodd" fill="#90A4AE" d="M179.1,175c1.1-0.4,2,0,2.2,1.2
		C181.7,180.4,175.1,176.4,179.1,175z"/>
	<path fill-rule="evenodd" clip-rule="evenodd" fill="#90A4AE" d="M135.6,175.5c1.1-0.4,2,0,2.2,1.2
		C138.3,180.9,131.7,176.9,135.6,175.5z"/>
	<path fill-rule="evenodd" clip-rule="evenodd" fill="#90A4AE" d="M169.5,176.2c1.1-0.4,2,0,2.2,1.2
		C172.1,181.6,165.5,177.6,169.5,176.2z"/>
	<path fill-rule="evenodd" clip-rule="evenodd" fill="#90A4AE" d="M126,176.7c1.1-0.4,2,0,2.2,1.2
		C128.7,182.1,122.1,178.1,126,176.7z"/>
	<path fill-rule="evenodd" clip-rule="evenodd" fill="#90A4AE" d="M203.3,176.9c1.1-0.4,2,0,2.2,1.2
		C205.9,182.4,199.4,178.3,203.3,176.9z"/>
	<path fill-rule="evenodd" clip-rule="evenodd" fill="#90A4AE" d="M159.9,177.4c1.1-0.4,2,0,2.2,1.2
		C162.5,182.8,155.9,178.8,159.9,177.4z"/>
	<path fill-rule="evenodd" clip-rule="evenodd" fill="#90A4AE" d="M116.4,177.9c1.1-0.4,2,0,2.2,1.2
		C119.1,183.3,112.5,179.3,116.4,177.9z"/>
	<path fill-rule="evenodd" clip-rule="evenodd" fill="#90A4AE" d="M193.9,178.1c1.1-0.4,2,0,2.2,1.2
		C196.6,183.6,190,179.5,193.9,178.1z"/>
	<path fill-rule="evenodd" clip-rule="evenodd" fill="#90A4AE" d="M150.5,178.6c1.1-0.4,2,0,2.2,1.2
		C153.1,184,146.6,180,150.5,178.6z"/>
	<path fill-rule="evenodd" clip-rule="evenodd" fill="#90A4AE" d="M184.3,179.3c1.1-0.4,2,0,2.2,1.2
		C187,184.8,180.4,180.7,184.3,179.3z"/>
	<path fill-rule="evenodd" clip-rule="evenodd" fill="#90A4AE" d="M140.9,179.8c1.1-0.4,2,0,2.2,1.2
		C143.5,185.2,137,181.2,140.9,179.8z"/>
	<path fill-rule="evenodd" clip-rule="evenodd" fill="#90A4AE" d="M174.7,180.5c1.1-0.4,2,0,2.2,1.2
		C177.4,186,170.8,181.9,174.7,180.5z"/>
	<path fill-rule="evenodd" clip-rule="evenodd" fill="#90A4AE" d="M131.3,181c1.1-0.4,2,0,2.2,1.2
		C133.9,186.4,127.4,182.4,131.3,181z"/>
	<path fill-rule="evenodd" clip-rule="evenodd" fill="#90A4AE" d="M165.4,181.5c1.1-0.4,2,0,2.2,1.2
		C168,186.9,161.5,182.9,165.4,181.5z"/>
	<path fill-rule="evenodd" clip-rule="evenodd" fill="#90A4AE" d="M121.9,181.9c1.1-0.4,2,0,2.2,1.2
		C124.6,187.4,118,183.3,121.9,181.9z"/>
	<path fill-rule="evenodd" clip-rule="evenodd" fill="#90A4AE" d="M199.2,182.2c1.1-0.4,2,0,2.2,1.2
		C201.9,187.6,195.3,183.6,199.2,182.2z"/>
	<path fill-rule="evenodd" clip-rule="evenodd" fill="#90A4AE" d="M155.8,182.7c1.1-0.4,2,0,2.2,1.2
		C158.4,188.1,151.9,184.1,155.8,182.7z"/>
	<path fill-rule="evenodd" clip-rule="evenodd" fill="#90A4AE" d="M112.3,182.9c2.8-0.4,2.8,3.8,0,3.4
		C112,185.6,112,183.6,112.3,182.9z"/>
	<path fill-rule="evenodd" clip-rule="evenodd" fill="#90A4AE" d="M189.6,183.4c1.1-0.4,2,0,2.2,1.2
		C192.3,188.8,185.7,184.8,189.6,183.4z"/>
	<path fill-rule="evenodd" clip-rule="evenodd" fill="#90A4AE" d="M146.2,183.9c1.1-0.4,2,0,2.2,1.2
		C148.8,189.3,142.3,185.3,146.2,183.9z"/>
	<path fill-rule="evenodd" clip-rule="evenodd" fill="#90A4AE" d="M180.3,184.6c1.1-0.4,2,0,2.2,1.2
		C182.9,190,176.3,186,180.3,184.6z"/>
	<path fill-rule="evenodd" clip-rule="evenodd" fill="#90A4AE" d="M136.6,185.1c1.1-0.4,2,0,2.2,1.2
		C139.2,190.5,132.7,186.5,136.6,185.1z"/>
	<path fill-rule="evenodd" clip-rule="evenodd" fill="#90A4AE" d="M170.7,185.8c1.1-0.4,2,0,2.2,1.2
		C173.3,191.2,166.7,187.2,170.7,185.8z"/>
	<path fill-rule="evenodd" clip-rule="evenodd" fill="#90A4AE" d="M127.2,186.3c1.1-0.4,2,0,2.2,1.2
		C129.9,191.7,123.3,187.7,127.2,186.3z"/>
	<path fill-rule="evenodd" clip-rule="evenodd" fill="#90A4AE" d="M204.5,186.5c1.1-0.4,2,0,2.2,1.2
		C207.1,192,200.6,187.9,204.5,186.5z"/>
	<path fill-rule="evenodd" clip-rule="evenodd" fill="#90A4AE" d="M161.1,187c1.1-0.4,2,0,2.2,1.2
		C163.7,192.4,157.1,188.4,161.1,187z"/>
	<path fill-rule="evenodd" clip-rule="evenodd" fill="#90A4AE" d="M117.6,187.5c1.1-0.4,2,0,2.2,1.2
		C120.3,192.9,113.7,188.9,117.6,187.5z"/>
	<path fill-rule="evenodd" clip-rule="evenodd" fill="#90A4AE" d="M195.1,187.7c1.1-0.4,2,0,2.2,1.2
		C197.8,193.2,191.2,189.1,195.1,187.7z"/>
	<path fill-rule="evenodd" clip-rule="evenodd" fill="#90A4AE" d="M151.5,188.2c1.1-0.4,2,0,2.2,1.2
		C154.1,193.6,147.5,189.6,151.5,188.2z"/>
	<path fill-rule="evenodd" clip-rule="evenodd" fill="#90A4AE" d="M185.5,188.7c1.1-0.4,2,0,2.2,1.2
		C188.2,194.1,181.6,190.1,185.5,188.7z"/>
	<path fill-rule="evenodd" clip-rule="evenodd" fill="#90A4AE" d="M142.1,189.1c1.1-0.4,2,0,2.2,1.2
		C144.7,194.6,138.2,190.5,142.1,189.1z"/>
	<path fill-rule="evenodd" clip-rule="evenodd" fill="#90A4AE" d="M175.9,189.9c1.1-0.4,2,0,2.2,1.2
		C178.6,195.3,172,191.3,175.9,189.9z"/>
	<path fill-rule="evenodd" clip-rule="evenodd" fill="#90A4AE" d="M132.5,190.3c1.1-0.4,2,0,2.2,1.2
		C135.1,195.8,128.6,191.7,132.5,190.3z"/>
	<path fill-rule="evenodd" clip-rule="evenodd" fill="#90A4AE" d="M166.3,191.1c1.1-0.4,2,0,2.2,1.2
		C169,196.5,162.4,192.5,166.3,191.1z"/>
	<path fill-rule="evenodd" clip-rule="evenodd" fill="#90A4AE" d="M122.9,191.5c1.1-0.4,2,0,2.2,1.2
		C125.5,197,119,192.9,122.9,191.5z"/>
	<path fill-rule="evenodd" clip-rule="evenodd" fill="#90A4AE" d="M200.4,191.8c1.1-0.4,2,0,2.2,1.2
		C203.1,197.2,196.5,193.2,200.4,191.8z"/>
	<path fill-rule="evenodd" clip-rule="evenodd" fill="#90A4AE" d="M157,192.3c1.1-0.4,2,0,2.2,1.2
		C159.6,197.7,153.1,193.7,157,192.3z"/>
	<path fill-rule="evenodd" clip-rule="evenodd" fill="#90A4AE" d="M113.5,192.7c1.1-0.4,2,0,2.2,1.2
		C116.2,198.2,109.6,194.1,113.5,192.7z"/>
	<path fill-rule="evenodd" clip-rule="evenodd" fill="#90A4AE" d="M190.8,193c1.1-0.4,2,0,2.2,1.2
		C193.5,198.4,186.9,194.4,190.8,193z"/>
	<path fill-rule="evenodd" clip-rule="evenodd" fill="#90A4AE" d="M147.4,193.5c1.1-0.4,2,0,2.2,1.2
		C150,198.9,143.5,194.9,147.4,193.5z"/>
	<path fill-rule="evenodd" clip-rule="evenodd" fill="#90A4AE" d="M181.2,194.2c1.1-0.4,2,0,2.2,1.2
		C183.9,199.6,177.3,195.6,181.2,194.2z"/>
	<path fill-rule="evenodd" clip-rule="evenodd" fill="#90A4AE" d="M137.8,194.7c1.1-0.4,2,0,2.2,1.2
		C140.4,200.1,133.9,196.1,137.8,194.7z"/>
	<path fill-rule="evenodd" clip-rule="evenodd" fill="#90A4AE" d="M171.9,195.4c1.1-0.4,2,0,2.2,1.2
		C174.5,200.8,167.9,196.8,171.9,195.4z"/>
	<path fill-rule="evenodd" clip-rule="evenodd" fill="#90A4AE" d="M128.4,195.9c1.1-0.4,2,0,2.2,1.2
		C131.1,201.3,124.5,197.3,128.4,195.9z"/>
	<path fill-rule="evenodd" clip-rule="evenodd" fill="#90A4AE" d="M207.1,195.9c0,1,0,1.9,0,2.9
		C203.9,200.3,203.9,194.3,207.1,195.9z"/>
	<path fill-rule="evenodd" clip-rule="evenodd" fill="#90A4AE" d="M162.3,196.3c1.1-0.4,2,0,2.2,1.2
		C164.9,201.8,158.3,197.7,162.3,196.3z"/>
	<path fill-rule="evenodd" clip-rule="evenodd" fill="#90A4AE" d="M118.8,196.8c1.1-0.4,2,0,2.2,1.2
		C121.5,202.3,114.9,198.2,118.8,196.8z"/>
	<path fill-rule="evenodd" clip-rule="evenodd" fill="#90A4AE" d="M196.1,197.1c1.1-0.4,2,0,2.2,1.2
		C198.7,202.5,192.2,198.5,196.1,197.1z"/>
	<path fill-rule="evenodd" clip-rule="evenodd" fill="#90A4AE" d="M152.7,197.5c1.1-0.4,2,0,2.2,1.2
		C155.3,203,148.7,198.9,152.7,197.5z"/>
	<path fill-rule="evenodd" clip-rule="evenodd" fill="#90A4AE" d="M186.7,198.3c1.1-0.4,2,0,2.2,1.2
		C189.4,203.7,182.8,199.7,186.7,198.3z"/>
	<path fill-rule="evenodd" clip-rule="evenodd" fill="#90A4AE" d="M143.3,198.7c1.1-0.4,2,0,2.2,1.2
		C145.9,204.2,139.4,200.1,143.3,198.7z"/>
	<path fill-rule="evenodd" clip-rule="evenodd" fill="#90A4AE" d="M177.1,199.5c1.1-0.4,2,0,2.2,1.2
		C179.8,204.9,173.2,200.9,177.1,199.5z"/>
	<path fill-rule="evenodd" clip-rule="evenodd" fill="#90A4AE" d="M133.7,199.9c1.1-0.4,2,0,2.2,1.2
		C136.3,205.4,129.8,201.3,133.7,199.9z"/>
	<path fill-rule="evenodd" clip-rule="evenodd" fill="#90A4AE" d="M167.5,200.7c1.1-0.4,2,0,2.2,1.2
		C170.2,206.1,163.6,202.1,167.5,200.7z"/>
	<path fill-rule="evenodd" clip-rule="evenodd" fill="#90A4AE" d="M124.1,201.1c1.1-0.4,2,0,2.2,1.2
		C126.7,206.6,120.2,202.5,124.1,201.1z"/>
	<path fill-rule="evenodd" clip-rule="evenodd" fill="#90A4AE" d="M201.6,201.4c1.1-0.4,2,0,2.2,1.2
		C204.3,206.8,197.7,202.8,201.6,201.4z"/>
	<path fill-rule="evenodd" clip-rule="evenodd" fill="#90A4AE" d="M158.2,201.9c1.1-0.4,2,0,2.2,1.2
		C160.8,207.3,154.3,203.3,158.2,201.9z"/>
	<path fill-rule="evenodd" clip-rule="evenodd" fill="#90A4AE" d="M114.7,202.3c1.1-0.4,2,0,2.2,1.2
		C117.4,207.8,110.8,203.7,114.7,202.3z"/>
	<path fill-rule="evenodd" clip-rule="evenodd" fill="#90A4AE" d="M192,202.6c1.1-0.4,2,0,2.2,1.2C194.7,208,188.1,204,192,202.6z"
		/>
	<path fill-rule="evenodd" clip-rule="evenodd" fill="#90A4AE" d="M148.6,203.1c1.1-0.4,2,0,2.2,1.2
		C151.2,208.5,144.7,204.5,148.6,203.1z"/>
	<path fill-rule="evenodd" clip-rule="evenodd" fill="#90A4AE" d="M182.4,203.5c1.1-0.4,2,0,2.2,1.2
		C185.1,209,178.5,204.9,182.4,203.5z"/>
	<path fill-rule="evenodd" clip-rule="evenodd" fill="#90A4AE" d="M139,204c1.1-0.4,2,0,2.2,1.2C141.6,209.5,135.1,205.4,139,204z"
		/>
	<path fill-rule="evenodd" clip-rule="evenodd" fill="#90A4AE" d="M173.1,204.7c1.1-0.4,2,0,2.2,1.2
		C175.7,210.2,169.1,206.1,173.1,204.7z"/>
	<path fill-rule="evenodd" clip-rule="evenodd" fill="#90A4AE" d="M129.6,205.2c1.1-0.4,2,0,2.2,1.2
		C132.3,210.7,125.7,206.6,129.6,205.2z"/>
	<path fill-rule="evenodd" clip-rule="evenodd" fill="#90A4AE" d="M206.9,205.2c0.6,0.6,0.1,2.2,0.2,3.1
		C205.1,208.4,205.6,205.6,206.9,205.2z"/>
	<path fill-rule="evenodd" clip-rule="evenodd" fill="#90A4AE" d="M163.5,205.9c1.1-0.4,2,0,2.2,1.2
		C166.1,211.4,159.5,207.3,163.5,205.9z"/>
	<path fill-rule="evenodd" clip-rule="evenodd" fill="#90A4AE" d="M120,206.4c1.1-0.4,2,0,2.2,1.2
		C122.7,211.9,116.1,207.8,120,206.4z"/>
	<path fill-rule="evenodd" clip-rule="evenodd" fill="#90A4AE" d="M197.3,206.7c1.1-0.4,2,0,2.2,1.2
		C199.9,212.1,193.4,208.1,197.3,206.7z"/>
	<path fill-rule="evenodd" clip-rule="evenodd" fill="#90A4AE" d="M153.9,207.1c1.1-0.4,2,0,2.2,1.2
		C156.5,212.6,149.9,208.5,153.9,207.1z"/>
	<path fill-rule="evenodd" clip-rule="evenodd" fill="#90A4AE" d="M187.9,207.9c1.1-0.4,2,0,2.2,1.2
		C190.6,213.3,184,209.3,187.9,207.9z"/>
	<path fill-rule="evenodd" clip-rule="evenodd" fill="#90A4AE" d="M144.3,208.3c1.1-0.4,2,0,2.2,1.2
		C146.9,213.8,140.3,209.7,144.3,208.3z"/>
	<path fill-rule="evenodd" clip-rule="evenodd" fill="#90A4AE" d="M179.8,211.9c-0.6,0-1.3,0-1.9,0
		C174.8,208.2,182.9,208.2,179.8,211.9z"/>
	<path fill-rule="evenodd" clip-rule="evenodd" fill="#90A4AE" d="M136.8,211.9c-1,0-1.9,0-2.9,0
		C132.4,208.7,138.4,208.7,136.8,211.9z"/>
	<path fill-rule="evenodd" clip-rule="evenodd" fill="#90A4AE" d="M170.9,211.9c-1.1,0-2.2,0-3.4,0
		C167.3,209.5,171.1,209.5,170.9,211.9z"/>
	<path fill-rule="evenodd" clip-rule="evenodd" fill="#90A4AE" d="M127.5,211.7c-0.6,0.6-2.3,0.1-3.4,0.2
		C124.4,210.2,126.9,210.2,127.5,211.7z"/>
	<path fill-rule="evenodd" clip-rule="evenodd" fill="#90A4AE" d="M204.7,211.2c-0.6,0.7-1.8,0.8-3.1,0.7
		C201.9,210.5,203.9,210.1,204.7,211.2z"/>
	<path fill-rule="evenodd" clip-rule="evenodd" fill="#90A4AE" d="M161.1,211.7c-0.5,0.6-2,0.1-2.9,0.2
		C158.6,210.7,160.4,210.8,161.1,211.7z"/>
	<path fill-rule="evenodd" clip-rule="evenodd" fill="#90A4AE" d="M115.7,211.5c0.7-0.2,0.9,0.2,1.4,0.2
		C117.1,212.1,115.4,212.2,115.7,211.5z"/>
</g>
<g>
	<path fill-rule="evenodd" clip-rule="evenodd" fill="#90A4AE" d="M389,120.3c-0.7,0.5-1.9-0.7-1.7-1.9
		C388.4,118.4,388.4,119.6,389,120.3z"/>
	<path fill-rule="evenodd" clip-rule="evenodd" fill="#90A4AE" d="M388.7,127.5c0.5,0.2,0.1,1.3,0.2,1.9
		C388.3,129.1,388.5,128.1,388.7,127.5z"/>
	<path fill-rule="evenodd" clip-rule="evenodd" fill="#90A4AE" d="M388.7,142.8c0.4,1.1,0,2-1.2,2.2
		C383.3,145.5,387.3,138.9,388.7,142.8z"/>
	<path fill-rule="evenodd" clip-rule="evenodd" fill="#90A4AE" d="M389,151.2c0,1.1,0,2.2,0,3.4C386.2,155,386.2,150.8,389,151.2z"
		/>
	<path fill-rule="evenodd" clip-rule="evenodd" fill="#90A4AE" d="M389,161.1c0,1,0,1.9,0,2.9C387.4,163.9,387.4,161.1,389,161.1z"
		/>
	<path fill-rule="evenodd" clip-rule="evenodd" fill="#90A4AE" d="M388.7,188.2C382.5,189.2,389.9,180.9,388.7,188.2L388.7,188.2z"
		/>
	<path fill-rule="evenodd" clip-rule="evenodd" fill="#90A4AE" d="M389,194.7c0,1.1,0,2.2,0,3.4C386.8,198,386.8,194.7,389,194.7z"
		/>
	<path fill-rule="evenodd" clip-rule="evenodd" fill="#90A4AE" d="M388.7,204.7c0.5,0.3,0.1,1.7,0.2,2.4
		C388,206.8,388.1,205.3,388.7,204.7z"/>
	<path fill-rule="evenodd" clip-rule="evenodd" fill="#90A4AE" d="M388,176.9c0.4,1.1,0,2-1.2,2.2C382.5,179.5,386.6,173,388,176.9z
		"/>
	<path fill-rule="evenodd" clip-rule="evenodd" fill="#90A4AE" d="M387.5,133.2c0.4,1.1,0,2-1.2,2.2
		C382.1,135.9,386.1,129.3,387.5,133.2z"/>
	<path fill-rule="evenodd" clip-rule="evenodd" fill="#90A4AE" d="M384.2,211.7c0-1.4,0.6-2.1,1.4-2.2
		C388.3,209.2,386.9,212.8,384.2,211.7z"/>
	<path fill-rule="evenodd" clip-rule="evenodd" fill="#90A4AE" d="M386.8,167.3c0.4,1.1,0,2-1.2,2.2
		C381.3,169.9,385.4,163.4,386.8,167.3z"/>
	<path fill-rule="evenodd" clip-rule="evenodd" fill="#90A4AE" d="M386.3,123.9c0.4,1.1,0,2-1.2,2.2
		C380.9,126.5,384.9,119.9,386.3,123.9z"/>
	<path fill-rule="evenodd" clip-rule="evenodd" fill="#90A4AE" d="M386.1,201.1c0.4,1.1,0,2-1.2,2.2
		C380.6,203.8,384.7,197.2,386.1,201.1z"/>
	<path fill-rule="evenodd" clip-rule="evenodd" fill="#90A4AE" d="M385.6,157.7c0.4,1.1,0,2-1.2,2.2
		C380.1,160.3,384.2,153.8,385.6,157.7z"/>
	<path fill-rule="evenodd" clip-rule="evenodd" fill="#90A4AE" d="M384.9,191.8c0.4,1.1,0,2-1.2,2.2
		C379.4,194.4,383.5,187.9,384.9,191.8z"/>
	<path fill-rule="evenodd" clip-rule="evenodd" fill="#90A4AE" d="M384.4,148.1c0.4,1.1,0,2-1.2,2.2
		C378.9,150.7,383,144.2,384.4,148.1z"/>
	<path fill-rule="evenodd" clip-rule="evenodd" fill="#90A4AE" d="M383.7,182.2c0.4,1.1,0,2-1.2,2.2
		C378.2,184.8,382.3,178.3,383.7,182.2z"/>
	<path fill-rule="evenodd" clip-rule="evenodd" fill="#90A4AE" d="M383.2,138.7c0.4,1.1,0,2-1.2,2.2
		C377.7,141.4,381.8,134.8,383.2,138.7z"/>
	<path fill-rule="evenodd" clip-rule="evenodd" fill="#90A4AE" d="M382.7,172.6c0.4,1.1,0,2-1.2,2.2
		C377.3,175.2,381.3,168.7,382.7,172.6z"/>
	<path fill-rule="evenodd" clip-rule="evenodd" fill="#90A4AE" d="M382.2,129.1c0.4,1.1,0,2-1.2,2.2
		C376.8,131.8,380.8,125.2,382.2,129.1z"/>
	<path fill-rule="evenodd" clip-rule="evenodd" fill="#90A4AE" d="M382,206.7c0.4,1.1,0,2-1.2,2.2
		C376.5,209.3,380.6,202.7,382,206.7z"/>
	<path fill-rule="evenodd" clip-rule="evenodd" fill="#90A4AE" d="M381.5,163c0.4,1.1,0,2-1.2,2.2
		C376.1,165.6,380.1,159.1,381.5,163z"/>
	<path fill-rule="evenodd" clip-rule="evenodd" fill="#90A4AE" d="M381,119.5c0.4,1.1,0,2-1.2,2.2
		C375.6,122.2,379.6,115.6,381,119.5z"/>
	<path fill-rule="evenodd" clip-rule="evenodd" fill="#90A4AE" d="M380.8,197.1c0.4,1.1,0,2-1.2,2.2
		C375.3,199.7,379.4,193.1,380.8,197.1z"/>
	<path fill-rule="evenodd" clip-rule="evenodd" fill="#90A4AE" d="M380.3,153.6c0.4,1.1,0,2-1.2,2.2
		C374.9,156.3,378.9,149.7,380.3,153.6z"/>
	<path fill-rule="evenodd" clip-rule="evenodd" fill="#90A4AE" d="M379.6,187.5c0.4,1.1,0,2-1.2,2.2
		C374.1,190.1,378.2,183.5,379.6,187.5z"/>
	<path fill-rule="evenodd" clip-rule="evenodd" fill="#90A4AE" d="M379.1,144c0.4,1.1,0,2-1.2,2.2
		C373.7,146.7,377.7,140.1,379.1,144z"/>
	<path fill-rule="evenodd" clip-rule="evenodd" fill="#90A4AE" d="M378.4,177.9c0.4,1.1,0,2-1.2,2.2
		C372.9,180.5,377,173.9,378.4,177.9z"/>
	<path fill-rule="evenodd" clip-rule="evenodd" fill="#90A4AE" d="M377.9,134.4c0.4,1.1,0,2-1.2,2.2
		C372.5,137.1,376.5,130.5,377.9,134.4z"/>
	<path fill-rule="evenodd" clip-rule="evenodd" fill="#90A4AE" d="M377.7,211.5c-0.1,1-2,0.2-2.9,0.5c0-0.8,0.7-0.9,1.2-1.2
		C376.9,210.6,377.1,211.2,377.7,211.5z"/>
	<path fill-rule="evenodd" clip-rule="evenodd" fill="#90A4AE" d="M377.2,168.5c0.4,1.1,0,2-1.2,2.2
		C371.7,171.1,375.8,164.6,377.2,168.5z"/>
	<path fill-rule="evenodd" clip-rule="evenodd" fill="#90A4AE" d="M376.7,125.1c0.4,1.1,0,2-1.2,2.2
		C371.3,127.7,375.3,121.1,376.7,125.1z"/>
	<path fill-rule="evenodd" clip-rule="evenodd" fill="#90A4AE" d="M376.5,202.3c0.4,1.1,0,2-1.2,2.2
		C371,205,375.1,198.4,376.5,202.3z"/>
	<path fill-rule="evenodd" clip-rule="evenodd" fill="#90A4AE" d="M376,158.9c0.4,1.1,0,2-1.2,2.2C370.5,161.5,374.6,155,376,158.9z
		"/>
	<path fill-rule="evenodd" clip-rule="evenodd" fill="#90A4AE" d="M375.5,192.7c0.4,1.1,0,2-1.2,2.2
		C370.1,195.4,374.1,188.8,375.5,192.7z"/>
	<path fill-rule="evenodd" clip-rule="evenodd" fill="#90A4AE" d="M375.3,116.9c-0.3,0.9-1.8,0.8-2.4,0.2
		C373.2,116.6,374.6,117.1,375.3,116.9z"/>
	<path fill-rule="evenodd" clip-rule="evenodd" fill="#90A4AE" d="M375,149.3c0.4,1.1,0,2-1.2,2.2
		C369.6,151.9,373.6,145.4,375,149.3z"/>
	<path fill-rule="evenodd" clip-rule="evenodd" fill="#90A4AE" d="M374.3,183.4c0.4,1.1,0,2-1.2,2.2
		C368.9,186,372.9,179.5,374.3,183.4z"/>
	<path fill-rule="evenodd" clip-rule="evenodd" fill="#90A4AE" d="M373.8,139.9c0.4,1.1,0,2-1.2,2.2
		C368.4,142.6,372.4,136,373.8,139.9z"/>
	<path fill-rule="evenodd" clip-rule="evenodd" fill="#90A4AE" d="M373.1,173.8c0.4,1.1,0,2-1.2,2.2
		C367.7,176.4,371.7,169.9,373.1,173.8z"/>
	<path fill-rule="evenodd" clip-rule="evenodd" fill="#90A4AE" d="M372.6,130.3c0.4,1.1,0,2-1.2,2.2
		C367.2,133,371.2,126.4,372.6,130.3z"/>
	<path fill-rule="evenodd" clip-rule="evenodd" fill="#90A4AE" d="M372.4,207.6c0.4,1.1,0,2-1.2,2.2
		C366.9,210.3,371,203.7,372.4,207.6z"/>
	<path fill-rule="evenodd" clip-rule="evenodd" fill="#90A4AE" d="M371.9,164.2c0.4,1.1,0,2-1.2,2.2
		C366.5,166.8,370.5,160.3,371.9,164.2z"/>
	<path fill-rule="evenodd" clip-rule="evenodd" fill="#90A4AE" d="M371.4,120.7c0.4,1.1,0,2-1.2,2.2
		C366,123.4,370,116.8,371.4,120.7z"/>
	<path fill-rule="evenodd" clip-rule="evenodd" fill="#90A4AE" d="M371.2,198.3c0.4,1.1,0,2-1.2,2.2
		C365.7,200.9,369.8,194.3,371.2,198.3z"/>
	<path fill-rule="evenodd" clip-rule="evenodd" fill="#90A4AE" d="M370.7,154.8c0.4,1.1,0,2-1.2,2.2
		C365.3,157.5,369.3,150.9,370.7,154.8z"/>
	<path fill-rule="evenodd" clip-rule="evenodd" fill="#90A4AE" d="M370,188.7c0.4,1.1,0,2-1.2,2.2
		C364.5,191.3,368.6,184.7,370,188.7z"/>
	<path fill-rule="evenodd" clip-rule="evenodd" fill="#90A4AE" d="M369.5,145.2c0.4,1.1,0,2-1.2,2.2
		C364.1,147.9,368.1,141.3,369.5,145.2z"/>
	<path fill-rule="evenodd" clip-rule="evenodd" fill="#90A4AE" d="M368.8,179.1c0.4,1.1,0,2-1.2,2.2
		C363.3,181.7,367.4,175.1,368.8,179.1z"/>
	<path fill-rule="evenodd" clip-rule="evenodd" fill="#90A4AE" d="M368.3,135.6c0.4,1.1,0,2-1.2,2.2
		C362.9,138.3,366.9,131.7,368.3,135.6z"/>
	<path fill-rule="evenodd" clip-rule="evenodd" fill="#90A4AE" d="M367.8,169.7c0.4,1.1,0,2-1.2,2.2
		C362.4,172.3,366.4,165.8,367.8,169.7z"/>
	<path fill-rule="evenodd" clip-rule="evenodd" fill="#90A4AE" d="M367.4,126c0.4,1.1,0,2-1.2,2.2C361.9,128.7,366,122.1,367.4,126z
		"/>
	<path fill-rule="evenodd" clip-rule="evenodd" fill="#90A4AE" d="M367.1,203.5c0.4,1.1,0,2-1.2,2.2
		C361.7,206.2,365.7,199.6,367.1,203.5z"/>
	<path fill-rule="evenodd" clip-rule="evenodd" fill="#90A4AE" d="M366.6,160.1c0.4,1.1,0,2-1.2,2.2
		C361.2,162.7,365.2,156.2,366.6,160.1z"/>
	<path fill-rule="evenodd" clip-rule="evenodd" fill="#90A4AE" d="M366.4,116.9c0.2,2.4-3.6,2.4-3.4,0
		C364.2,116.9,365.3,116.9,366.4,116.9z"/>
	<path fill-rule="evenodd" clip-rule="evenodd" fill="#90A4AE" d="M365.9,193.9c0.4,1.1,0,2-1.2,2.2
		C360.5,196.6,364.5,190,365.9,193.9z"/>
	<path fill-rule="evenodd" clip-rule="evenodd" fill="#90A4AE" d="M365.4,150.5c0.4,1.1,0,2-1.2,2.2
		C360,153.1,364,146.6,365.4,150.5z"/>
	<path fill-rule="evenodd" clip-rule="evenodd" fill="#90A4AE" d="M364.7,184.6c0.4,1.1,0,2-1.2,2.2
		C359.3,187.2,363.3,180.7,364.7,184.6z"/>
	<path fill-rule="evenodd" clip-rule="evenodd" fill="#90A4AE" d="M364.2,140.9c0.4,1.1,0,2-1.2,2.2
		C358.8,143.5,362.8,137,364.2,140.9z"/>
	<path fill-rule="evenodd" clip-rule="evenodd" fill="#90A4AE" d="M363.5,175c0.4,1.1,0,2-1.2,2.2
		C358.1,177.6,362.1,171.1,363.5,175z"/>
	<path fill-rule="evenodd" clip-rule="evenodd" fill="#90A4AE" d="M363,131.5c0.4,1.1,0,2-1.2,2.2
		C357.6,134.2,361.6,127.6,363,131.5z"/>
	<path fill-rule="evenodd" clip-rule="evenodd" fill="#90A4AE" d="M362.8,208.8c0.4,1.1,0,2-1.2,2.2
		C357.3,211.5,361.4,204.9,362.8,208.8z"/>
	<path fill-rule="evenodd" clip-rule="evenodd" fill="#90A4AE" d="M362.3,165.4c0.4,1.1,0,2-1.2,2.2
		C356.9,168,360.9,161.5,362.3,165.4z"/>
	<path fill-rule="evenodd" clip-rule="evenodd" fill="#90A4AE" d="M361.8,121.9c0.4,1.1,0,2-1.2,2.2
		C356.4,124.6,360.4,118,361.8,121.9z"/>
	<path fill-rule="evenodd" clip-rule="evenodd" fill="#90A4AE" d="M361.8,199.5c0.4,1.1,0,2-1.2,2.2
		C356.4,202.1,360.4,195.5,361.8,199.5z"/>
	<path fill-rule="evenodd" clip-rule="evenodd" fill="#90A4AE" d="M361.1,155.8c0.4,1.1,0,2-1.2,2.2
		C355.7,158.4,359.7,151.9,361.1,155.8z"/>
	<path fill-rule="evenodd" clip-rule="evenodd" fill="#90A4AE" d="M360.6,189.9c0.4,1.1,0,2-1.2,2.2
		C355.2,192.5,359.2,185.9,360.6,189.9z"/>
	<path fill-rule="evenodd" clip-rule="evenodd" fill="#90A4AE" d="M360.2,146.4c0.4,1.1,0,2-1.2,2.2
		C354.7,149.1,358.8,142.5,360.2,146.4z"/>
	<path fill-rule="evenodd" clip-rule="evenodd" fill="#90A4AE" d="M359.4,180.3c0.4,1.1,0,2-1.2,2.2
		C354,182.9,358,176.3,359.4,180.3z"/>
	<path fill-rule="evenodd" clip-rule="evenodd" fill="#90A4AE" d="M359,136.8c0.4,1.1,0,2-1.2,2.2
		C353.5,139.5,357.6,132.9,359,136.8z"/>
	<path fill-rule="evenodd" clip-rule="evenodd" fill="#90A4AE" d="M358.2,170.7c0.4,1.1,0,2-1.2,2.2
		C352.8,173.3,356.8,166.7,358.2,170.7z"/>
	<path fill-rule="evenodd" clip-rule="evenodd" fill="#90A4AE" d="M357.8,127.2c0.4,1.1,0,2-1.2,2.2
		C352.3,129.9,356.4,123.3,357.8,127.2z"/>
	<path fill-rule="evenodd" clip-rule="evenodd" fill="#90A4AE" d="M357.5,204.7c0.4,1.1,0,2-1.2,2.2
		C352.1,207.4,356.1,200.8,357.5,204.7z"/>
	<path fill-rule="evenodd" clip-rule="evenodd" fill="#90A4AE" d="M357,161.3c0.4,1.1,0,2-1.2,2.2
		C351.6,163.9,355.6,157.4,357,161.3z"/>
	<path fill-rule="evenodd" clip-rule="evenodd" fill="#90A4AE" d="M354.2,116.9c3.5-0.8,3.1,2.9,1.2,3.1
		C353.9,120.2,352.7,118.3,354.2,116.9z"/>
	<path fill-rule="evenodd" clip-rule="evenodd" fill="#90A4AE" d="M356.3,195.1c0.4,1.1,0,2-1.2,2.2
		C350.9,197.8,354.9,191.2,356.3,195.1z"/>
	<path fill-rule="evenodd" clip-rule="evenodd" fill="#90A4AE" d="M355.8,151.7c0.4,1.1,0,2-1.2,2.2
		C350.4,154.3,354.4,147.8,355.8,151.7z"/>
	<path fill-rule="evenodd" clip-rule="evenodd" fill="#90A4AE" d="M355.1,185.5c0.4,1.1,0,2-1.2,2.2
		C349.7,188.2,353.7,181.6,355.1,185.5z"/>
	<path fill-rule="evenodd" clip-rule="evenodd" fill="#90A4AE" d="M354.6,142.1c0.4,1.1,0,2-1.2,2.2
		C349.2,144.7,353.2,138.2,354.6,142.1z"/>
	<path fill-rule="evenodd" clip-rule="evenodd" fill="#90A4AE" d="M354.2,176.2c0.4,1.1,0,2-1.2,2.2
		C348.7,178.8,352.8,172.3,354.2,176.2z"/>
	<path fill-rule="evenodd" clip-rule="evenodd" fill="#90A4AE" d="M353.4,132.7c0.4,1.1,0,2-1.2,2.2
		C348,135.4,352,128.8,353.4,132.7z"/>
	<path fill-rule="evenodd" clip-rule="evenodd" fill="#90A4AE" d="M353,211.9c-0.6,0-1.3,0-1.9,0C347.9,208.2,356.1,208.2,353,211.9
		z"/>
	<path fill-rule="evenodd" clip-rule="evenodd" fill="#90A4AE" d="M353,166.6c0.4,1.1,0,2-1.2,2.2
		C347.5,169.2,351.6,162.7,353,166.6z"/>
	<path fill-rule="evenodd" clip-rule="evenodd" fill="#90A4AE" d="M352.5,123.1c0.4,1.1,0,2-1.2,2.2
		C347,125.8,351.1,119.2,352.5,123.1z"/>
	<path fill-rule="evenodd" clip-rule="evenodd" fill="#90A4AE" d="M352.2,200.4c0.4,1.1,0,2-1.2,2.2
		C346.8,203.1,350.8,196.5,352.2,200.4z"/>
	<path fill-rule="evenodd" clip-rule="evenodd" fill="#90A4AE" d="M351.8,157c0.4,1.1,0,2-1.2,2.2
		C346.3,159.6,350.4,153.1,351.8,157z"/>
	<path fill-rule="evenodd" clip-rule="evenodd" fill="#90A4AE" d="M351,191.1c0.4,1.1,0,2-1.2,2.2
		C345.6,193.7,349.6,187.1,351,191.1z"/>
	<path fill-rule="evenodd" clip-rule="evenodd" fill="#90A4AE" d="M350.6,147.6c0.4,1.1,0,2-1.2,2.2
		C345.1,150.3,349.2,143.7,350.6,147.6z"/>
	<path fill-rule="evenodd" clip-rule="evenodd" fill="#90A4AE" d="M349.8,181.5c0.4,1.1,0,2-1.2,2.2
		C344.4,184.1,348.4,177.5,349.8,181.5z"/>
	<path fill-rule="evenodd" clip-rule="evenodd" fill="#90A4AE" d="M349.4,138c0.4,1.1,0,2-1.2,2.2C343.9,140.7,348,134.1,349.4,138z
		"/>
	<path fill-rule="evenodd" clip-rule="evenodd" fill="#90A4AE" d="M348.6,171.9c0.4,1.1,0,2-1.2,2.2
		C343.2,174.5,347.2,167.9,348.6,171.9z"/>
	<path fill-rule="evenodd" clip-rule="evenodd" fill="#90A4AE" d="M348.2,128.4c0.4,1.1,0,2-1.2,2.2
		C342.7,131.1,346.8,124.5,348.2,128.4z"/>
	<path fill-rule="evenodd" clip-rule="evenodd" fill="#90A4AE" d="M347.9,205.9c0.4,1.1,0,2-1.2,2.2
		C342.5,208.6,346.5,202,347.9,205.9z"/>
	<path fill-rule="evenodd" clip-rule="evenodd" fill="#90A4AE" d="M347.4,162.5c0.4,1.1,0,2-1.2,2.2
		C342,165.1,346,158.6,347.4,162.5z"/>
	<path fill-rule="evenodd" clip-rule="evenodd" fill="#90A4AE" d="M347,119.1c0.4,1.1,0,2-1.2,2.2
		C341.5,121.7,345.6,115.1,347,119.1z"/>
	<path fill-rule="evenodd" clip-rule="evenodd" fill="#90A4AE" d="M347,196.3c0.4,1.1,0,2-1.2,2.2C341.5,199,345.6,192.4,347,196.3z
		"/>
	<path fill-rule="evenodd" clip-rule="evenodd" fill="#90A4AE" d="M346.5,152.9c0.4,1.1,0,2-1.2,2.2
		C341,155.5,345.1,149,346.5,152.9z"/>
	<path fill-rule="evenodd" clip-rule="evenodd" fill="#90A4AE" d="M345.8,186.7c0.4,1.1,0,2-1.2,2.2
		C340.3,189.4,344.4,182.8,345.8,186.7z"/>
	<path fill-rule="evenodd" clip-rule="evenodd" fill="#90A4AE" d="M345.3,143.3c0.4,1.1,0,2-1.2,2.2
		C339.8,145.9,343.9,139.4,345.3,143.3z"/>
	<path fill-rule="evenodd" clip-rule="evenodd" fill="#90A4AE" d="M344.6,177.4c0.4,1.1,0,2-1.2,2.2
		C339.1,180,343.2,173.5,344.6,177.4z"/>
	<path fill-rule="evenodd" clip-rule="evenodd" fill="#90A4AE" d="M344.1,133.7c0.4,1.1,0,2-1.2,2.2
		C338.6,136.3,342.7,129.8,344.1,133.7z"/>
	<path fill-rule="evenodd" clip-rule="evenodd" fill="#90A4AE" d="M344.1,211.9c-1.1,0-2.2,0-3.4,0
		C340.5,209.5,344.3,209.5,344.1,211.9z"/>
	<path fill-rule="evenodd" clip-rule="evenodd" fill="#90A4AE" d="M343.4,167.8c0.4,1.1,0,2-1.2,2.2
		C337.9,170.4,342,163.9,343.4,167.8z"/>
	<path fill-rule="evenodd" clip-rule="evenodd" fill="#90A4AE" d="M342.9,124.3c0.4,1.1,0,2-1.2,2.2
		C337.4,127,341.5,120.4,342.9,124.3z"/>
	<path fill-rule="evenodd" clip-rule="evenodd" fill="#90A4AE" d="M342.6,201.6c0.4,1.1,0,2-1.2,2.2
		C337.2,204.3,341.2,197.7,342.6,201.6z"/>
	<path fill-rule="evenodd" clip-rule="evenodd" fill="#90A4AE" d="M342.2,158.2c0.4,1.1,0,2-1.2,2.2
		C336.7,160.8,340.8,154.3,342.2,158.2z"/>
	<path fill-rule="evenodd" clip-rule="evenodd" fill="#90A4AE" d="M341.4,192.3c0.4,1.1,0,2-1.2,2.2
		C336,194.9,340,188.3,341.4,192.3z"/>
	<path fill-rule="evenodd" clip-rule="evenodd" fill="#90A4AE" d="M341,148.6c0.4,1.1,0,2-1.2,2.2
		C335.5,151.2,339.6,144.7,341,148.6z"/>
	<path fill-rule="evenodd" clip-rule="evenodd" fill="#90A4AE" d="M340.2,182.7c0.4,1.1,0,2-1.2,2.2
		C334.8,185.3,338.8,178.7,340.2,182.7z"/>
	<path fill-rule="evenodd" clip-rule="evenodd" fill="#90A4AE" d="M339.8,139.2c0.4,1.1,0,2-1.2,2.2
		C334.3,141.9,338.4,135.3,339.8,139.2z"/>
	<path fill-rule="evenodd" clip-rule="evenodd" fill="#90A4AE" d="M339.3,173.1c0.4,1.1,0,2-1.2,2.2
		C333.8,175.7,337.9,169.1,339.3,173.1z"/>
	<path fill-rule="evenodd" clip-rule="evenodd" fill="#90A4AE" d="M338.8,129.6c0.4,1.1,0,2-1.2,2.2
		C333.3,132.3,337.4,125.7,338.8,129.6z"/>
	<path fill-rule="evenodd" clip-rule="evenodd" fill="#90A4AE" d="M338.6,207.1c0.4,1.1,0,2-1.2,2.2
		C333.1,209.8,337.2,203.2,338.6,207.1z"/>
	<path fill-rule="evenodd" clip-rule="evenodd" fill="#90A4AE" d="M338.1,163.5c0.4,1.1,0,2-1.2,2.2
		C332.6,166.1,336.7,159.5,338.1,163.5z"/>
	<path fill-rule="evenodd" clip-rule="evenodd" fill="#90A4AE" d="M337.6,120c0.4,1.1,0,2-1.2,2.2
		C332.1,122.7,336.2,116.1,337.6,120z"/>
	<path fill-rule="evenodd" clip-rule="evenodd" fill="#90A4AE" d="M337.4,197.5c0.4,1.1,0,2-1.2,2.2
		C331.9,200.2,336,193.6,337.4,197.5z"/>
	<path fill-rule="evenodd" clip-rule="evenodd" fill="#90A4AE" d="M336.9,154.1c0.4,1.1,0,2-1.2,2.2
		C331.4,156.7,335.5,150.2,336.9,154.1z"/>
	<path fill-rule="evenodd" clip-rule="evenodd" fill="#90A4AE" d="M336.2,187.9c0.4,1.1,0,2-1.2,2.2
		C330.7,190.6,334.8,184,336.2,187.9z"/>
	<path fill-rule="evenodd" clip-rule="evenodd" fill="#90A4AE" d="M335.7,144.5c0.4,1.1,0,2-1.2,2.2
		C330.2,147.1,334.3,140.6,335.7,144.5z"/>
	<path fill-rule="evenodd" clip-rule="evenodd" fill="#90A4AE" d="M335,178.3c0.4,1.1,0,2-1.2,2.2C329.5,181,333.6,174.4,335,178.3z
		"/>
	<path fill-rule="evenodd" clip-rule="evenodd" fill="#90A4AE" d="M334.5,134.9c0.4,1.1,0,2-1.2,2.2
		C329,137.5,333.1,131,334.5,134.9z"/>
	<path fill-rule="evenodd" clip-rule="evenodd" fill="#90A4AE" d="M333.8,169c0.4,1.1,0,2-1.2,2.2
		C328.3,171.6,332.4,165.1,333.8,169z"/>
	<path fill-rule="evenodd" clip-rule="evenodd" fill="#90A4AE" d="M334,211.7c-0.3,0.5-1.7,0.1-2.4,0.2
		C331.9,211,333.4,211.1,334,211.7z"/>
	<path fill-rule="evenodd" clip-rule="evenodd" fill="#90A4AE" d="M333.3,125.5c0.4,1.1,0,2-1.2,2.2
		C327.8,128.2,331.9,121.6,333.3,125.5z"/>
	<path fill-rule="evenodd" clip-rule="evenodd" fill="#90A4AE" d="M333,202.8c0.4,1.1,0,2-1.2,2.2
		C327.6,205.5,331.6,198.9,333,202.8z"/>
	<path fill-rule="evenodd" clip-rule="evenodd" fill="#90A4AE" d="M332.6,159.4c0.4,1.1,0,2-1.2,2.2
		C327.1,162,331.2,155.5,332.6,159.4z"/>
	<path fill-rule="evenodd" clip-rule="evenodd" fill="#90A4AE" d="M332.1,193.2c0.4,1.1,0,2-1.2,2.2
		C326.6,195.9,330.7,189.3,332.1,193.2z"/>
	<path fill-rule="evenodd" clip-rule="evenodd" fill="#90A4AE" d="M332.1,116.9c-0.1,1.5-2.8,1.5-2.9,0
		C330.2,116.9,331.1,116.9,332.1,116.9z"/>
	<path fill-rule="evenodd" clip-rule="evenodd" fill="#90A4AE" d="M331.6,149.8c0.4,1.1,0,2-1.2,2.2
		C326.1,152.4,330.2,145.9,331.6,149.8z"/>
	<path fill-rule="evenodd" clip-rule="evenodd" fill="#90A4AE" d="M330.9,183.9c0.4,1.1,0,2-1.2,2.2
		C325.4,186.5,329.5,179.9,330.9,183.9z"/>
	<path fill-rule="evenodd" clip-rule="evenodd" fill="#90A4AE" d="M330.4,140.4c0.4,1.1,0,2-1.2,2.2
		C324.9,143.1,329,136.5,330.4,140.4z"/>
	<path fill-rule="evenodd" clip-rule="evenodd" fill="#90A4AE" d="M329.7,174.3c0.4,1.1,0,2-1.2,2.2
		C324.2,176.9,328.3,170.3,329.7,174.3z"/>
	<path fill-rule="evenodd" clip-rule="evenodd" fill="#90A4AE" d="M329.2,130.8c0.4,1.1,0,2-1.2,2.2
		C323.7,133.5,327.8,126.9,329.2,130.8z"/>
	<path fill-rule="evenodd" clip-rule="evenodd" fill="#90A4AE" d="M329,208.1c0.4,1.1,0,2-1.2,2.2
		C323.5,210.7,327.6,204.2,329,208.1z"/>
	<path fill-rule="evenodd" clip-rule="evenodd" fill="#90A4AE" d="M328.5,164.7c0.4,1.1,0,2-1.2,2.2
		C323,167.3,327.1,160.7,328.5,164.7z"/>
	<path fill-rule="evenodd" clip-rule="evenodd" fill="#90A4AE" d="M328,121.2c0.4,1.1,0,2-1.2,2.2
		C322.5,123.9,326.6,117.3,328,121.2z"/>
	<path fill-rule="evenodd" clip-rule="evenodd" fill="#90A4AE" d="M327.8,198.7c0.4,1.1,0,2-1.2,2.2
		C322.3,201.4,326.4,194.8,327.8,198.7z"/>
	<path fill-rule="evenodd" clip-rule="evenodd" fill="#90A4AE" d="M327.3,155.3c0.4,1.1,0,2-1.2,2.2
		C321.8,157.9,325.9,151.4,327.3,155.3z"/>
	<path fill-rule="evenodd" clip-rule="evenodd" fill="#90A4AE" d="M326.6,189.1c0.4,1.1,0,2-1.2,2.2
		C321.1,191.8,325.2,185.2,326.6,189.1z"/>
	<path fill-rule="evenodd" clip-rule="evenodd" fill="#90A4AE" d="M326.1,145.7c0.4,1.1,0,2-1.2,2.2
		C320.6,148.3,324.7,141.8,326.1,145.7z"/>
	<path fill-rule="evenodd" clip-rule="evenodd" fill="#90A4AE" d="M325.4,179.5c0.4,1.1,0,2-1.2,2.2
		C319.9,182.2,324,175.6,325.4,179.5z"/>
	<path fill-rule="evenodd" clip-rule="evenodd" fill="#90A4AE" d="M324.9,136.1c0.4,1.1,0,2-1.2,2.2
		C319.4,138.7,323.5,132.2,324.9,136.1z"/>
	<path fill-rule="evenodd" clip-rule="evenodd" fill="#90A4AE" d="M324.4,170.2c0.4,1.1,0,2-1.2,2.2
		C318.9,172.8,323,166.3,324.4,170.2z"/>
	<path fill-rule="evenodd" clip-rule="evenodd" fill="#90A4AE" d="M323.9,126.7c0.4,1.1,0,2-1.2,2.2
		C318.5,129.4,322.5,122.8,323.9,126.7z"/>
	<path fill-rule="evenodd" clip-rule="evenodd" fill="#90A4AE" d="M323.7,204c0.4,1.1,0,2-1.2,2.2
		C318.2,206.7,322.3,200.1,323.7,204z"/>
	<path fill-rule="evenodd" clip-rule="evenodd" fill="#90A4AE" d="M323.2,160.6c0.4,1.1,0,2-1.2,2.2
		C317.7,163.2,321.8,156.7,323.2,160.6z"/>
	<path fill-rule="evenodd" clip-rule="evenodd" fill="#90A4AE" d="M323,117.1c0.4,2.8-3.8,2.8-3.4,0
		C320.3,116.8,322.3,116.8,323,117.1z"/>
	<path fill-rule="evenodd" clip-rule="evenodd" fill="#90A4AE" d="M322.5,194.4c0.4,1.1,0,2-1.2,2.2
		C317,197.1,321.1,190.5,322.5,194.4z"/>
	<path fill-rule="evenodd" clip-rule="evenodd" fill="#90A4AE" d="M322,151c0.4,1.1,0,2-1.2,2.2C316.5,153.6,320.6,147.1,322,151z"
		/>
	<path fill-rule="evenodd" clip-rule="evenodd" fill="#90A4AE" d="M321.3,185.1c0.4,1.1,0,2-1.2,2.2
		C315.8,187.7,319.9,181.1,321.3,185.1z"/>
	<path fill-rule="evenodd" clip-rule="evenodd" fill="#90A4AE" d="M320.8,141.4c0.4,1.1,0,2-1.2,2.2
		C315.3,144,319.4,137.5,320.8,141.4z"/>
	<path fill-rule="evenodd" clip-rule="evenodd" fill="#90A4AE" d="M320.1,175.5c0.4,1.1,0,2-1.2,2.2
		C314.6,178.1,318.7,171.5,320.1,175.5z"/>
	<path fill-rule="evenodd" clip-rule="evenodd" fill="#90A4AE" d="M319.6,132c0.4,1.1,0,2-1.2,2.2
		C314.1,134.7,318.2,128.1,319.6,132z"/>
	<path fill-rule="evenodd" clip-rule="evenodd" fill="#90A4AE" d="M319.4,209.3c0.4,1.1,0,2-1.2,2.2
		C313.9,211.9,318,205.4,319.4,209.3z"/>
	<path fill-rule="evenodd" clip-rule="evenodd" fill="#90A4AE" d="M318.9,165.9c0.4,1.1,0,2-1.2,2.2
		C313.4,168.5,317.5,161.9,318.9,165.9z"/>
	<path fill-rule="evenodd" clip-rule="evenodd" fill="#90A4AE" d="M318.4,122.4c0.4,1.1,0,2-1.2,2.2
		C312.9,125.1,317,118.5,318.4,122.4z"/>
	<path fill-rule="evenodd" clip-rule="evenodd" fill="#90A4AE" d="M318.2,199.9c0.4,1.1,0,2-1.2,2.2
		C312.7,202.6,316.8,196,318.2,199.9z"/>
	<path fill-rule="evenodd" clip-rule="evenodd" fill="#90A4AE" d="M317.7,156.3c0.4,1.1,0,2-1.2,2.2
		C312.2,158.9,316.3,152.3,317.7,156.3z"/>
	<path fill-rule="evenodd" clip-rule="evenodd" fill="#90A4AE" d="M317.2,190.3c0.4,1.1,0,2-1.2,2.2
		C311.7,193,315.8,186.4,317.2,190.3z"/>
	<path fill-rule="evenodd" clip-rule="evenodd" fill="#90A4AE" d="M316.7,146.9c0.4,1.1,0,2-1.2,2.2
		C311.3,149.5,315.3,143,316.7,146.9z"/>
	<path fill-rule="evenodd" clip-rule="evenodd" fill="#90A4AE" d="M316,180.7c0.4,1.1,0,2-1.2,2.2
		C310.5,183.4,314.6,176.8,316,180.7z"/>
	<path fill-rule="evenodd" clip-rule="evenodd" fill="#90A4AE" d="M315.5,137.3c0.4,1.1,0,2-1.2,2.2
		C310.1,139.9,314.1,133.4,315.5,137.3z"/>
	<path fill-rule="evenodd" clip-rule="evenodd" fill="#90A4AE" d="M314.8,171.1c0.4,1.1,0,2-1.2,2.2
		C309.3,173.8,313.4,167.2,314.8,171.1z"/>
	<path fill-rule="evenodd" clip-rule="evenodd" fill="#90A4AE" d="M314.3,127.7c0.4,1.1,0,2-1.2,2.2
		C308.9,130.3,312.9,123.8,314.3,127.7z"/>
	<path fill-rule="evenodd" clip-rule="evenodd" fill="#90A4AE" d="M314.1,205.2c0.4,1.1,0,2-1.2,2.2
		C308.6,207.9,312.7,201.3,314.1,205.2z"/>
	<path fill-rule="evenodd" clip-rule="evenodd" fill="#90A4AE" d="M313.6,161.8c0.4,1.1,0,2-1.2,2.2
		C308.1,164.4,312.2,157.9,313.6,161.8z"/>
	<path fill-rule="evenodd" clip-rule="evenodd" fill="#90A4AE" d="M313.1,118.3c0.4,1.1,0,2-1.2,2.2
		C307.7,121,311.7,114.4,313.1,118.3z"/>
	<path fill-rule="evenodd" clip-rule="evenodd" fill="#90A4AE" d="M312.9,195.6c0.4,1.1,0,2-1.2,2.2
		C307.4,198.3,311.5,191.7,312.9,195.6z"/>
	<path fill-rule="evenodd" clip-rule="evenodd" fill="#90A4AE" d="M312.4,152.2c0.4,1.1,0,2-1.2,2.2
		C306.9,154.8,311,148.3,312.4,152.2z"/>
	<path fill-rule="evenodd" clip-rule="evenodd" fill="#90A4AE" d="M311.7,186c0.4,1.1,0,2-1.2,2.2
		C306.2,188.7,310.3,182.1,311.7,186z"/>
	<path fill-rule="evenodd" clip-rule="evenodd" fill="#90A4AE" d="M311.2,142.6c0.4,1.1,0,2-1.2,2.2
		C305.7,145.2,309.8,138.7,311.2,142.6z"/>
	<path fill-rule="evenodd" clip-rule="evenodd" fill="#90A4AE" d="M310.5,176.7c0.4,1.1,0,2-1.2,2.2
		C305,179.3,309.1,172.7,310.5,176.7z"/>
	<path fill-rule="evenodd" clip-rule="evenodd" fill="#90A4AE" d="M310,133.2c0.4,1.1,0,2-1.2,2.2
		C304.5,135.9,308.6,129.3,310,133.2z"/>
	<path fill-rule="evenodd" clip-rule="evenodd" fill="#90A4AE" d="M310,211.9c-1,0-1.9,0-2.9,0C305.6,208.7,311.5,208.7,310,211.9z"
		/>
	<path fill-rule="evenodd" clip-rule="evenodd" fill="#90A4AE" d="M309.5,167.1c0.4,1.1,0,2-1.2,2.2
		C304.1,169.7,308.1,163.1,309.5,167.1z"/>
	<path fill-rule="evenodd" clip-rule="evenodd" fill="#90A4AE" d="M309,123.6c0.4,1.1,0,2-1.2,2.2
		C303.6,126.3,307.6,119.7,309,123.6z"/>
	<path fill-rule="evenodd" clip-rule="evenodd" fill="#90A4AE" d="M308.8,200.9c0.4,1.1,0,2-1.2,2.2
		C303.3,203.5,307.4,197,308.8,200.9z"/>
	<path fill-rule="evenodd" clip-rule="evenodd" fill="#90A4AE" d="M308.3,157.5c0.4,1.1,0,2-1.2,2.2
		C302.9,160.1,306.9,153.5,308.3,157.5z"/>
	<path fill-rule="evenodd" clip-rule="evenodd" fill="#90A4AE" d="M307.6,191.5c0.4,1.1,0,2-1.2,2.2
		C302.1,194.2,306.2,187.6,307.6,191.5z"/>
	<path fill-rule="evenodd" clip-rule="evenodd" fill="#90A4AE" d="M307.1,148.1c0.4,1.1,0,2-1.2,2.2
		C301.7,150.7,305.7,144.2,307.1,148.1z"/>
	<path fill-rule="evenodd" clip-rule="evenodd" fill="#90A4AE" d="M306.4,181.9c0.4,1.1,0,2-1.2,2.2
		C300.9,184.6,305,178,306.4,181.9z"/>
	<path fill-rule="evenodd" clip-rule="evenodd" fill="#90A4AE" d="M305.9,138.5c0.4,1.1,0,2-1.2,2.2
		C300.5,141.1,304.5,134.6,305.9,138.5z"/>
	<path fill-rule="evenodd" clip-rule="evenodd" fill="#90A4AE" d="M305.2,172.3c0.4,1.1,0,2-1.2,2.2
		C299.7,175,303.8,168.4,305.2,172.3z"/>
	<path fill-rule="evenodd" clip-rule="evenodd" fill="#90A4AE" d="M304.7,128.9c0.4,1.1,0,2-1.2,2.2
		C299.3,131.5,303.3,125,304.7,128.9z"/>
	<path fill-rule="evenodd" clip-rule="evenodd" fill="#90A4AE" d="M304.5,206.4c0.4,1.1,0,2-1.2,2.2
		C299,209.1,303.1,202.5,304.5,206.4z"/>
	<path fill-rule="evenodd" clip-rule="evenodd" fill="#90A4AE" d="M304,163c0.4,1.1,0,2-1.2,2.2C298.5,165.6,302.6,159.1,304,163z"
		/>
	<path fill-rule="evenodd" clip-rule="evenodd" fill="#90A4AE" d="M303.5,119.5c0.4,1.1,0,2-1.2,2.2
		C298.1,122.2,302.1,115.6,303.5,119.5z"/>
	<path fill-rule="evenodd" clip-rule="evenodd" fill="#90A4AE" d="M303.3,196.8c0.4,1.1,0,2-1.2,2.2
		C297.8,199.5,301.9,192.9,303.3,196.8z"/>
	<path fill-rule="evenodd" clip-rule="evenodd" fill="#90A4AE" d="M302.8,153.4c0.4,1.1,0,2-1.2,2.2
		C297.3,156,301.4,149.5,302.8,153.4z"/>
	<path fill-rule="evenodd" clip-rule="evenodd" fill="#90A4AE" d="M302.3,187.2c0.4,1.1,0,2-1.2,2.2
		C296.9,189.9,300.9,183.3,302.3,187.2z"/>
	<path fill-rule="evenodd" clip-rule="evenodd" fill="#90A4AE" d="M301.8,143.8c0.4,1.1,0,2-1.2,2.2
		C296.4,146.4,300.4,139.9,301.8,143.8z"/>
	<path fill-rule="evenodd" clip-rule="evenodd" fill="#90A4AE" d="M301.1,177.9c0.4,1.1,0,2-1.2,2.2
		C295.7,180.5,299.7,173.9,301.1,177.9z"/>
	<path fill-rule="evenodd" clip-rule="evenodd" fill="#90A4AE" d="M300.6,134.4c0.4,1.1,0,2-1.2,2.2
		C295.2,137.1,299.2,130.5,300.6,134.4z"/>
	<path fill-rule="evenodd" clip-rule="evenodd" fill="#90A4AE" d="M300.6,211.7c-0.6,0.6-2.2,0.1-3.1,0.2
		C297.5,209.9,300.3,210.4,300.6,211.7z"/>
	<path fill-rule="evenodd" clip-rule="evenodd" fill="#90A4AE" d="M299.9,168.3c0.4,1.1,0,2-1.2,2.2
		C294.5,170.9,298.5,164.3,299.9,168.3z"/>
	<path fill-rule="evenodd" clip-rule="evenodd" fill="#90A4AE" d="M299.4,124.8c0.4,1.1,0,2-1.2,2.2
		C294,127.5,298,120.9,299.4,124.8z"/>
	<path fill-rule="evenodd" clip-rule="evenodd" fill="#90A4AE" d="M299.2,202.1c0.4,1.1,0,2-1.2,2.2
		C293.7,204.7,297.8,198.2,299.2,202.1z"/>
	<path fill-rule="evenodd" clip-rule="evenodd" fill="#90A4AE" d="M298.7,158.7c0.4,1.1,0,2-1.2,2.2
		C293.3,161.3,297.3,154.7,298.7,158.7z"/>
	<path fill-rule="evenodd" clip-rule="evenodd" fill="#90A4AE" d="M298,192.7c0.4,1.1,0,2-1.2,2.2
		C292.5,195.4,296.6,188.8,298,192.7z"/>
	<path fill-rule="evenodd" clip-rule="evenodd" fill="#90A4AE" d="M297.5,149.1c0.4,1.1,0,2-1.2,2.2
		C292.1,151.7,296.1,145.1,297.5,149.1z"/>
	<path fill-rule="evenodd" clip-rule="evenodd" fill="#90A4AE" d="M293.9,184.6c0-0.6,0-1.3,0-1.9
		C297.6,179.6,297.6,187.7,293.9,184.6z"/>
	<path fill-rule="evenodd" clip-rule="evenodd" fill="#90A4AE" d="M293.9,141.6c0-1,0-1.9,0-2.9
		C297.2,137.2,297.2,143.2,293.9,141.6z"/>
	<path fill-rule="evenodd" clip-rule="evenodd" fill="#90A4AE" d="M293.9,175.7c0-1.1,0-2.2,0-3.4
		C296.4,172.1,296.4,175.9,293.9,175.7z"/>
	<path fill-rule="evenodd" clip-rule="evenodd" fill="#90A4AE" d="M294.2,132.3c-0.6-0.6-0.1-2.3-0.2-3.4
		C295.7,129.2,295.7,131.7,294.2,132.3z"/>
	<path fill-rule="evenodd" clip-rule="evenodd" fill="#90A4AE" d="M294.6,209.5c-0.7-0.6-0.8-1.8-0.7-3.1
		C295.4,206.7,295.8,208.7,294.6,209.5z"/>
	<path fill-rule="evenodd" clip-rule="evenodd" fill="#90A4AE" d="M294.2,165.9c-0.6-0.5-0.1-2-0.2-2.9
		C295.1,163.4,295,165.2,294.2,165.9z"/>
	<path fill-rule="evenodd" clip-rule="evenodd" fill="#90A4AE" d="M294.4,120.5c0.2,0.7-0.2,0.9-0.2,1.4
		C293.8,121.9,293.6,120.2,294.4,120.5z"/>
</g>
<g>
	<path fill="none" stroke="#000000" stroke-miterlimit="10" d="M387,207c0,2.8-2.2,5-5,5h-85c-2.8,0-5-2.2-5-5v-85c0-2.8,2.2-5,5-5
		h85c2.8,0,5,2.2,5,5V207z"/>
</g>
<rect x="217" y="113" fill="none" stroke="#000000" stroke-miterlimit="10" width="66" height="27"/>
<rect x="217" y="189" fill="none" stroke="#000000" stroke-miterlimit="10" width="66" height="27"/>
<rect x="217" y="143" fill="none" stroke="#000000" stroke-miterlimit="10" width="66" height="43"/>
<circle fill="none" stroke="#000000" stroke-miterlimit="10" cx="160.5" cy="164.5" r="41.5"/>
<circle fill="none" stroke="#000000" stroke-miterlimit="10" cx="160.5" cy="164.5" r="12.5"/>
<circle fill="none" stroke="#000000" stroke-miterlimit="10" cx="339.5" cy="164.5" r="41.5"/>
<circle fill="none" stroke="#000000" stroke-miterlimit="10" cx="339.5" cy="164.5" r="12.5"/>
<line fill="none" stroke="#000000" stroke-miterlimit="10" x1="221" y1="181" x2="279" y2="181"/>
<rect x="227" y="148" fill="none" stroke="#000000" stroke-miterlimit="10" width="46" height="28"/>
<rect x="220" y="194" fill="none" stroke="#000000" stroke-miterlimit="10" width="60" height="17"/>
<circle fill="none" stroke="#000000" stroke-miterlimit="10" cx="237.5" cy="161.5" r="4.5"/>
<circle fill="none" stroke="#000000" stroke-miterlimit="10" cx="262.5" cy="161.5" r="4.5"/>
<rect x="225" y="196" fill="none" stroke="#000000" stroke-miterlimit="10" width="6" height="13"/>
<rect x="236" y="196" fill="none" stroke="#000000" stroke-miterlimit="10" width="6" height="13"/>
<rect x="247" y="196" fill="none" stroke="#000000" stroke-miterlimit="10" width="6" height="13"/>
<rect x="258" y="196" fill="none" stroke="#000000" stroke-miterlimit="10" width="6" height="13"/>
<rect x="269" y="196" fill="none" stroke="#000000" stroke-miterlimit="10" width="6" height="13"/>
<rect x="226" y="206.9" stroke="#000000" stroke-miterlimit="10" width="4" height="1.2"/>
<rect x="237" y="206.9" stroke="#000000" stroke-miterlimit="10" width="4" height="1.2"/>
<rect x="248" y="206.9" stroke="#000000" stroke-miterlimit="10" width="4" height="1.2"/>
<rect x="259" y="196.9" stroke="#000000" stroke-miterlimit="10" width="4" height="1.2"/>
<rect x="270" y="206.9" stroke="#000000" stroke-miterlimit="10" width="4" height="1.2"/>
<rect x="220" y="120" fill="none" stroke="#000000" stroke-miterlimit="10" width="27" height="11"/>
<rect x="253" y="120" fill="none" stroke="#000000" stroke-miterlimit="10" width="27" height="11"/>
<rect x="223" y="123" fill="none" stroke="#000000" stroke-miterlimit="10" width="13" height="5"/>
<rect x="256" y="123" fill="none" stroke="#000000" stroke-miterlimit="10" width="4" height="5"/>
<rect x="260" y="123" fill="none" stroke="#000000" stroke-miterlimit="10" width="4" height="5"/>
<rect x="264" y="123" fill="none" stroke="#000000" stroke-miterlimit="10" width="4" height="5"/>
<rect x="273" y="124" fill="none" stroke="#000000" stroke-miterlimit="10" width="4" height="3"/>
<circle fill="none" stroke="#000000" stroke-miterlimit="10" cx="339.5" cy="164.5" r="9.5"/>
<circle fill="none" stroke="#000000" stroke-miterlimit="10" cx="160.5" cy="164.5" r="9.5"/>
<rect x="109" y="87" fill-rule="evenodd" clip-rule="evenodd" fill="none" stroke="#000000" stroke-miterlimit="10" width="65" height="21"/>
<rect x="326" y="87" fill-rule="evenodd" clip-rule="evenodd" fill="none" stroke="#000000" stroke-miterlimit="10" width="65" height="21"/>
<g>
	<path fill="none" d="M153.3,91.1c0.5,4.2-5.9,0.3-2.3-1.1h-21.9c-0.2,1.8-2.4,1.1-3.2,0H125v12.8c0.5,0.1,0.9,0.6,1,1.3
		c0,0.4,0,0.7,0,0.9h21.9c0.1-0.1,0.3-0.1,0.4-0.2c0.7-0.2,1.3-0.2,1.7,0.2h6.4c-0.1-0.5,0.3-1,1.2-1.4c0.1,0,0.2-0.1,0.3-0.1v-6.4
		c-1.5,0.3-4.1-2-1.3-3.1c0.5-0.2,0.9-0.2,1.3-0.1v-4h-5.3C153,90.2,153.3,90.6,153.3,91.1z M127.9,97.6c1.1-0.4,2,0,2.2,1.2
		C130.5,103.1,124,99,127.9,97.6z M132.2,92.3c1.1-0.4,2,0,2.2,1.2C134.9,97.8,128.3,93.7,132.2,92.3z M133.4,101.7
		c1.1-0.4,2,0,2.2,1.2C136.1,107.2,129.5,103.1,133.4,101.7z M137.5,96.4c1.1-0.4,2,0,2.2,1.2C140.1,101.9,133.6,97.8,137.5,96.4z
		 M141.8,91.1c1.1-0.4,2,0,2.2,1.2C144.5,96.6,137.9,92.5,141.8,91.1z M142.8,100.7c1.1-0.4,2,0,2.2,1.2
		C145.4,106.2,138.9,102.1,142.8,100.7z M147.1,95.2c1.1-0.4,2,0,2.2,1.2C149.7,100.7,143.2,96.6,147.1,95.2z M154.5,100.7
		c0.5,4.3-6.1,0.2-2.2-1.2C153.5,99.1,154.4,99.5,154.5,100.7z"/>
	<path fill="#90A4AE" d="M129.1,90h-3.2C126.7,91.1,128.9,91.8,129.1,90z"/>
	<path fill="#90A4AE" d="M153.3,91.1c-0.1-0.6-0.3-0.9-0.6-1.1H151C147.5,91.5,153.8,95.3,153.3,91.1z"/>
	<path fill="#90A4AE" d="M144,92.3c-0.1-1.2-1.1-1.6-2.2-1.2C137.9,92.5,144.5,96.6,144,92.3z"/>
	<path fill="#90A4AE" d="M134.4,93.5c-0.1-1.2-1.1-1.6-2.2-1.2C128.3,93.7,134.9,97.8,134.4,93.5z"/>
	<path fill="#90A4AE" d="M156.7,94c-2.8,1-0.2,3.4,1.3,3.1V94C157.6,93.8,157.2,93.8,156.7,94z"/>
	<path fill="#90A4AE" d="M147.1,95.2c-3.9,1.4,2.6,5.5,2.2,1.2C149.1,95.2,148.2,94.8,147.1,95.2z"/>
	<path fill="#90A4AE" d="M137.5,96.4c-3.9,1.4,2.6,5.5,2.2,1.2C139.5,96.4,138.6,96,137.5,96.4z"/>
	<path fill="#90A4AE" d="M127.9,97.6c-3.9,1.4,2.6,5.5,2.2,1.2C129.9,97.6,129,97.2,127.9,97.6z"/>
	<path fill="#90A4AE" d="M152.4,99.5c-3.9,1.4,2.6,5.5,2.2,1.2C154.4,99.5,153.5,99.1,152.4,99.5z"/>
	<path fill="#90A4AE" d="M142.8,100.7c-3.9,1.4,2.6,5.5,2.2,1.2C144.8,100.7,143.9,100.3,142.8,100.7z"/>
	<path fill="#90A4AE" d="M133.4,101.7c-3.9,1.4,2.6,5.5,2.2,1.2C135.4,101.7,134.5,101.3,133.4,101.7z"/>
	<path fill="#90A4AE" d="M126,104.1c-0.1-0.7-0.5-1.2-1-1.3v2.2h1C126,104.8,126,104.5,126,104.1z"/>
	<path fill="#90A4AE" d="M156.4,105h1.6v-1.5c-0.1,0-0.2,0.1-0.3,0.1C156.7,104,156.4,104.5,156.4,105z"/>
	<path fill="#90A4AE" d="M148.3,104.8c-0.2,0.1-0.3,0.1-0.4,0.2h2.1C149.6,104.6,149,104.6,148.3,104.8z"/>
</g>
<g>
	<path fill="none" d="M346.7,103.9c-0.5-4.2,5.9-0.3,2.3,1.1h21.9c0.2-1.8,2.4-1.1,3.2,0h0.9V92.2c-0.5-0.1-0.9-0.6-1-1.3
		c0-0.4,0-0.7,0-0.9h-21.9c-0.1,0.1-0.3,0.1-0.4,0.2c-0.7,0.2-1.3,0.2-1.7-0.2h-6.4c0.1,0.5-0.3,1-1.2,1.4c-0.1,0-0.2,0.1-0.3,0.1
		v6.4c1.5-0.3,4.1,2,1.3,3.1c-0.5,0.2-0.9,0.2-1.3,0.1v4h5.3C347,104.8,346.7,104.4,346.7,103.9z M372.1,97.4c-1.1,0.4-2,0-2.2-1.2
		C369.5,91.9,376,96,372.1,97.4z M367.8,102.7c-1.1,0.4-2,0-2.2-1.2C365.1,97.2,371.7,101.3,367.8,102.7z M366.6,93.3
		c-1.1,0.4-2,0-2.2-1.2C363.9,87.8,370.5,91.9,366.6,93.3z M362.5,98.6c-1.1,0.4-2,0-2.2-1.2C359.9,93.1,366.4,97.2,362.5,98.6z
		 M358.2,103.9c-1.1,0.4-2,0-2.2-1.2C355.5,98.4,362.1,102.5,358.2,103.9z M357.2,94.3c-1.1,0.4-2,0-2.2-1.2
		C354.6,88.8,361.1,92.9,357.2,94.3z M352.9,99.8c-1.1,0.4-2,0-2.2-1.2C350.3,94.3,356.8,98.4,352.9,99.8z M345.5,94.3
		c-0.5-4.3,6.1-0.2,2.2,1.2C346.5,95.9,345.6,95.5,345.5,94.3z"/>
	<path fill="#90A4AE" d="M370.9,105h3.2C373.3,103.9,371.2,103.2,370.9,105z"/>
	<path fill="#90A4AE" d="M346.7,103.9c0.1,0.6,0.3,0.9,0.6,1.1h1.7C352.5,103.5,346.2,99.7,346.7,103.9z"/>
	<path fill="#90A4AE" d="M356,102.7c0.1,1.2,1.1,1.6,2.2,1.2C362.1,102.5,355.5,98.4,356,102.7z"/>
	<path fill="#90A4AE" d="M365.6,101.5c0.1,1.2,1.1,1.6,2.2,1.2C371.7,101.3,365.1,97.2,365.6,101.5z"/>
	<path fill="#90A4AE" d="M343.3,101c2.8-1,0.2-3.4-1.3-3.1v3.1C342.4,101.2,342.8,101.2,343.3,101z"/>
	<path fill="#90A4AE" d="M352.9,99.8c3.9-1.4-2.6-5.5-2.2-1.2C350.9,99.8,351.8,100.2,352.9,99.8z"/>
	<path fill="#90A4AE" d="M362.5,98.6c3.9-1.4-2.6-5.5-2.2-1.2C360.5,98.6,361.4,99,362.5,98.6z"/>
	<path fill="#90A4AE" d="M372.1,97.4c3.9-1.4-2.6-5.5-2.2-1.2C370.1,97.4,371,97.8,372.1,97.4z"/>
	<path fill="#90A4AE" d="M347.6,95.5c3.9-1.4-2.6-5.5-2.2-1.2C345.6,95.5,346.5,95.9,347.6,95.5z"/>
	<path fill="#90A4AE" d="M357.2,94.3c3.9-1.4-2.6-5.5-2.2-1.2C355.2,94.3,356.1,94.7,357.2,94.3z"/>
	<path fill="#90A4AE" d="M366.6,93.3c3.9-1.4-2.6-5.5-2.2-1.2C364.6,93.3,365.5,93.7,366.6,93.3z"/>
	<path fill="#90A4AE" d="M374,90.9c0.1,0.7,0.5,1.2,1,1.3V90h-1C374,90.2,374,90.5,374,90.9z"/>
	<path fill="#90A4AE" d="M343.6,90H342v1.5c0.1,0,0.2-0.1,0.3-0.1C343.3,91,343.6,90.5,343.6,90z"/>
	<path fill="#90A4AE" d="M351.7,90.2c0.2-0.1,0.3-0.1,0.4-0.2H350C350.4,90.4,351,90.4,351.7,90.2z"/>
</g>
<rect x="109" y="66" fill-rule="evenodd" clip-rule="evenodd" fill="none" stroke="#000000" stroke-miterlimit="10" width="29" height="15"/>
<rect x="342" y="90" fill-rule="evenodd" clip-rule="evenodd" fill="none" stroke="#000000" stroke-miterlimit="10" width="33" height="15"/>
<rect x="125" y="90" fill-rule="evenodd" clip-rule="evenodd" fill="none" stroke="#000000" stroke-miterlimit="10" width="33" height="15"/>
<line fill="none" stroke="#000000" stroke-miterlimit="10" x1="232" y1="169" x2="232" y2="174"/>
<line fill="none" stroke="#000000" stroke-miterlimit="10" x1="235" y1="169" x2="235" y2="172"/>
<line fill="none" stroke="#000000" stroke-miterlimit="10" x1="229" y1="169" x2="229" y2="172"/>
<line fill="none" stroke="#000000" stroke-miterlimit="10" x1="238" y1="169" x2="238" y2="172"/>
<line fill="none" stroke="#000000" stroke-miterlimit="10" x1="241" y1="169" x2="241" y2="174"/>
<line fill="none" stroke="#000000" stroke-miterlimit="10" x1="244" y1="169" x2="244" y2="172"/>
<line fill="none" stroke="#000000" stroke-miterlimit="10" x1="247" y1="169" x2="247" y2="172"/>
<line fill="none" stroke="#000000" stroke-miterlimit="10" x1="250" y1="169" x2="250" y2="174"/>
<line fill="none" stroke="#000000" stroke-miterlimit="10" x1="253" y1="169" x2="253" y2="172"/>
<line fill="none" stroke="#000000" stroke-miterlimit="10" x1="256" y1="169" x2="256" y2="172"/>
<line fill="none" stroke="#000000" stroke-miterlimit="10" x1="259" y1="169" x2="259" y2="174"/>
<line fill="none" stroke="#000000" stroke-miterlimit="10" x1="262" y1="169" x2="262" y2="172"/>
<line fill="none" stroke="#000000" stroke-miterlimit="10" x1="271" y1="169" x2="271" y2="172"/>
<line fill="none" stroke="#000000" stroke-miterlimit="10" x1="265" y1="169" x2="265" y2="172"/>
<line fill="none" stroke="#000000" stroke-miterlimit="10" x1="268" y1="169" x2="268" y2="174"/>
<line fill="none" stroke="#000000" stroke-miterlimit="10" x1="238" y1="125.5" x2="245" y2="125.5"/>
<rect x="178" y="87" fill="none" stroke="#000000" stroke-miterlimit="10" width="144" height="21"/>
<rect x="181" y="90" fill="none" stroke="#000000" stroke-miterlimit="10" width="138" height="15"/>
<polygon fill="none" stroke="#000000" stroke-miterlimit="10" points="244,97 185,99 185,93 "/>
<polygon fill="none" stroke="#000000" stroke-miterlimit="10" points="256,97 315,99 315,93 "/>
<line fill="none" stroke="#000000" stroke-miterlimit="10" x1="185" y1="102" x2="189" y2="102"/>
<line fill="none" stroke="#000000" stroke-miterlimit="10" x1="191" y1="102" x2="195" y2="102"/>
<line fill="none" stroke="#000000" stroke-miterlimit="10" x1="197" y1="102" x2="201" y2="102"/>
<line fill="none" stroke="#000000" stroke-miterlimit="10" x1="203" y1="102" x2="207" y2="102"/>
<line fill="none" stroke="#000000" stroke-miterlimit="10" x1="209" y1="102" x2="213" y2="102"/>
<line fill="none" stroke="#000000" stroke-miterlimit="10" x1="215" y1="102" x2="219" y2="102"/>
<line fill="none" stroke="#000000" stroke-miterlimit="10" x1="221" y1="102" x2="225" y2="102"/>
<line fill="none" stroke="#000000" stroke-miterlimit="10" x1="227" y1="102" x2="231" y2="102"/>
<line fill="none" stroke="#000000" stroke-miterlimit="10" x1="233" y1="102" x2="237" y2="102"/>
<line fill="none" stroke="#000000" stroke-miterlimit="10" x1="239" y1="102" x2="243" y2="102"/>
<line fill="none" stroke="#000000" stroke-miterlimit="10" x1="257" y1="102" x2="261" y2="102"/>
<line fill="none" stroke="#000000" stroke-miterlimit="10" x1="263" y1="102" x2="267" y2="102"/>
<line fill="none" stroke="#000000" stroke-miterlimit="10" x1="269" y1="102" x2="273" y2="102"/>
<line fill="none" stroke="#000000" stroke-miterlimit="10" x1="275" y1="102" x2="279" y2="102"/>
<line fill="none" stroke="#000000" stroke-miterlimit="10" x1="281" y1="102" x2="285" y2="102"/>
<line fill="none" stroke="#000000" stroke-miterlimit="10" x1="287" y1="102" x2="291" y2="102"/>
<line fill="none" stroke="#000000" stroke-miterlimit="10" x1="293" y1="102" x2="297" y2="102"/>
<line fill="none" stroke="#000000" stroke-miterlimit="10" x1="299" y1="102" x2="303" y2="102"/>
<line fill="none" stroke="#000000" stroke-miterlimit="10" x1="305" y1="102" x2="309" y2="102"/>
<line fill="none" stroke="#000000" stroke-miterlimit="10" x1="311" y1="102" x2="315" y2="102"/>
<rect x="174" y="66" fill="none" stroke="#000000" stroke-miterlimit="10" width="4" height="15"/>
<rect x="200" y="66" fill="none" stroke="#000000" stroke-miterlimit="10" width="4" height="15"/>
<rect x="190" y="66" fill="none" stroke="#000000" stroke-miterlimit="10" width="4" height="15"/>
<rect x="210" y="66" fill="none" stroke="#000000" stroke-miterlimit="10" width="4" height="15"/>
<rect x="220" y="66" fill="none" stroke="#000000" stroke-miterlimit="10" width="4" height="15"/>
<rect x="230" y="66" fill="none" stroke="#000000" stroke-miterlimit="10" width="4" height="15"/>
<rect x="240" y="66" fill="none" stroke="#000000" stroke-miterlimit="10" width="4" height="15"/>
<circle fill="none" stroke="#000000" stroke-miterlimit="10" cx="272.5" cy="73.5" r="7.5"/>
<circle fill="none" stroke="#000000" stroke-miterlimit="10" cx="155.5" cy="73.5" r="7.5"/>
<circle fill="none" stroke="#000000" stroke-miterlimit="10" cx="293.5" cy="73.5" r="7.5"/>
<circle fill="none" stroke="#000000" stroke-miterlimit="10" cx="314.5" cy="73.5" r="7.5"/>
<circle fill="none" stroke="#000000" stroke-miterlimit="10" cx="335.5" cy="73.5" r="7.5"/>
<circle fill="none" stroke="#000000" stroke-miterlimit="10" cx="356.5" cy="73.5" r="7.5"/>
<line fill="none" stroke="#000000" stroke-miterlimit="10" x1="265" y1="73.5" x2="270" y2="73.5"/>
<line fill="none" stroke="#000000" stroke-miterlimit="10" x1="288.1" y1="69" x2="291.8" y2="72.3"/>
<line fill="none" stroke="#000000" stroke-miterlimit="10" x1="307.7" y1="77" x2="312" y2="74.5"/>
<line fill="none" stroke="#000000" stroke-miterlimit="10" x1="330.6" y1="78.5" x2="334" y2="74.8"/>
<line fill="none" stroke="#000000" stroke-miterlimit="10" x1="356.5" y1="76" x2="356.5" y2="81"/>
<circle stroke="#000000" stroke-miterlimit="10" cx="155.5" cy="73.5" r="4.5"/>
<line fill="none" stroke="#000000" stroke-miterlimit="10" x1="378" y1="69" x2="391" y2="69"/>
<line fill="none" stroke="#000000" stroke-miterlimit="10" x1="370" y1="73" x2="391" y2="73"/>
<line fill="none" stroke="#000000" stroke-miterlimit="10" x1="385" y1="77" x2="391" y2="77"/>
<rect x="109" y="36" fill="none" stroke="#000000" stroke-miterlimit="10" width="282" height="24"/>
<rect x="109" y="36" fill="none" stroke="#000000" stroke-miterlimit="10" width="29" height="24"/>
<line fill="none" stroke="#000000" stroke-miterlimit="10" x1="138" y1="47" x2="362" y2="47"/>
<line fill="none" stroke="#000000" stroke-miterlimit="10" x1="138" y1="53" x2="362" y2="53"/>
<line fill="none" stroke="#000000" stroke-miterlimit="10" x1="304" y1="39" x2="304" y2="60"/>
<line fill="none" stroke="#000000" stroke-miterlimit="10" x1="357" y1="44" x2="352" y2="44"/>
<line fill="none" stroke="#000000" stroke-miterlimit="10" x1="346" y1="44" x2="341" y2="44"/>
<line fill="none" stroke="#000000" stroke-miterlimit="10" x1="335" y1="44" x2="330" y2="44"/>
<line fill="none" stroke="#000000" stroke-miterlimit="10" x1="324" y1="44" x2="319" y2="44"/>
<line fill="none" stroke="#000000" stroke-miterlimit="10" x1="313" y1="44" x2="308" y2="44"/>
<line fill="none" stroke="#000000" stroke-miterlimit="10" x1="302" y1="44" x2="297" y2="44"/>
<line fill="none" stroke="#000000" stroke-miterlimit="10" x1="291" y1="44" x2="286" y2="44"/>
<line fill="none" stroke="#000000" stroke-miterlimit="10" x1="280" y1="44" x2="275" y2="44"/>
<line fill="none" stroke="#000000" stroke-miterlimit="10" x1="269" y1="44" x2="264" y2="44"/>
<line fill="none" stroke="#000000" stroke-miterlimit="10" x1="258" y1="44" x2="253" y2="44"/>
<line fill="none" stroke="#000000" stroke-miterlimit="10" x1="247" y1="44" x2="242" y2="44"/>
<line fill="none" stroke="#000000" stroke-miterlimit="10" x1="168" y1="44" x2="163" y2="44"/>
<line fill="none" stroke="#000000" stroke-miterlimit="10" x1="168" y1="50" x2="163" y2="50"/>
<line fill="none" stroke="#000000" stroke-miterlimit="10" x1="113" y1="44" x2="134" y2="44"/>
<line fill="none" stroke="#000000" stroke-miterlimit="10" x1="113" y1="40" x2="134" y2="40"/>
<line fill="none" stroke="#000000" stroke-miterlimit="10" x1="113" y1="48" x2="134" y2="48"/>
<line fill="none" stroke="#000000" stroke-miterlimit="10" x1="113" y1="52" x2="134" y2="52"/>
<line fill="none" stroke="#000000" stroke-miterlimit="10" x1="113" y1="56" x2="134" y2="56"/>
<circle fill="none" stroke="#000000" stroke-miterlimit="10" cx="221.5" cy="161.5" r="1.5"/>
<circle fill="none" stroke="#000000" stroke-miterlimit="10" cx="278.5" cy="161.5" r="1.5"/>
<rect x="362" y="36" fill="none" stroke="#000000" stroke-miterlimit="10" width="29" height="24"/>
<line fill="none" stroke="#000000" stroke-miterlimit="10" x1="366" y1="44" x2="387" y2="44"/>
<line fill="none" stroke="#000000" stroke-miterlimit="10" x1="366" y1="40" x2="387" y2="40"/>
<line fill="none" stroke="#000000" stroke-miterlimit="10" x1="366" y1="48" x2="387" y2="48"/>
<line fill="none" stroke="#000000" stroke-miterlimit="10" x1="366" y1="52" x2="387" y2="52"/>
<line fill="none" stroke="#000000" stroke-miterlimit="10" x1="366" y1="56" x2="387" y2="56"/>
<rect x="118" y="70.1" fill="none" stroke="#000000" stroke-miterlimit="10" width="11" height="3.8"/>
<line fill="none" stroke="#000000" stroke-miterlimit="10" x1="113" y1="77" x2="134" y2="77"/>
<g>
	<g>
		<path fill="none" stroke="#000000" stroke-miterlimit="10" d="M35,122c-12.2,9.8-20,24.8-20,41.7s7.8,31.9,20,41.7"/>
		<path fill="none" stroke="#000000" stroke-miterlimit="10" d="M35,205.4"/>
		<path fill="none" stroke="#000000" stroke-miterlimit="10" d="M35,122"/>
	</g>
	<g>
		<path fill="none" stroke="#000000" stroke-miterlimit="10" d="M42.9,125c-11.3,9.1-18.6,23.1-18.6,38.7c0,15.7,7.3,29.6,18.6,38.7
			"/>
		<path fill="none" stroke="#000000" stroke-miterlimit="10" d="M42.9,202.4"/>
		<path fill="none" stroke="#000000" stroke-miterlimit="10" d="M42.9,125"/>
	</g>
	<g>
		<path fill="none" stroke="#000000" stroke-miterlimit="10" d="M50.7,128c-10.4,8.4-17.1,21.3-17.1,35.7c0,14.5,6.7,27.3,17.1,35.7
			"/>
		<path fill="none" stroke="#000000" stroke-miterlimit="10" d="M50.7,199.4"/>
		<path fill="none" stroke="#000000" stroke-miterlimit="10" d="M50.7,128"/>
	</g>
	<g>
		<path fill="none" stroke="#000000" stroke-miterlimit="10" d="M58.6,130.9c-9.6,7.7-15.7,19.5-15.7,32.8
			c0,13.2,6.1,25.1,15.7,32.8"/>
		<path fill="none" stroke="#000000" stroke-miterlimit="10" d="M58.6,196.5"/>
		<path fill="none" stroke="#000000" stroke-miterlimit="10" d="M58.6,130.9"/>
	</g>
	<g>
		<path fill="none" stroke="#000000" stroke-miterlimit="10" d="M66.4,133.9c-8.7,7-14.3,17.7-14.3,29.8s5.6,22.8,14.3,29.8"/>
		<path fill="none" stroke="#000000" stroke-miterlimit="10" d="M66.4,193.5"/>
		<path fill="none" stroke="#000000" stroke-miterlimit="10" d="M66.4,133.9"/>
	</g>
	<g>
		<path fill="none" stroke="#000000" stroke-miterlimit="10" d="M74.3,136.9c-7.8,6.3-12.9,16-12.9,26.8s5,20.5,12.9,26.8"/>
		<path fill="none" stroke="#000000" stroke-miterlimit="10" d="M74.3,190.5"/>
		<path fill="none" stroke="#000000" stroke-miterlimit="10" d="M74.3,136.9"/>
	</g>
	<g>
		<path fill="none" stroke="#000000" stroke-miterlimit="10" d="M82.1,139.9c-7,5.6-11.4,14.2-11.4,23.8c0,9.6,4.5,18.2,11.4,23.8"
			/>
		<path fill="none" stroke="#000000" stroke-miterlimit="10" d="M82.1,187.5"/>
		<path fill="none" stroke="#000000" stroke-miterlimit="10" d="M82.1,139.9"/>
	</g>
	<g>
		<path fill="none" stroke="#000000" stroke-miterlimit="10" d="M90,142.8c-6.1,4.9-10,12.4-10,20.9c0,8.4,3.9,15.9,10,20.9"/>
		<path fill="none" stroke="#000000" stroke-miterlimit="10" d="M90,184.6"/>
		<path fill="none" stroke="#000000" stroke-miterlimit="10" d="M90,142.8"/>
	</g>
</g>
<g>
	<g>
		<path fill="none" stroke="#000000" stroke-miterlimit="10" d="M465,205.4c12.2-9.8,20-24.8,20-41.7s-7.8-31.9-20-41.7"/>
		<path fill="none" stroke="#000000" stroke-miterlimit="10" d="M465,122"/>
		<path fill="none" stroke="#000000" stroke-miterlimit="10" d="M465,205.4"/>
	</g>
	<g>
		<path fill="none" stroke="#000000" stroke-miterlimit="10" d="M457.1,202.4c11.3-9.1,18.6-23.1,18.6-38.7s-7.3-29.6-18.6-38.7"/>
		<path fill="none" stroke="#000000" stroke-miterlimit="10" d="M457.1,125"/>
		<path fill="none" stroke="#000000" stroke-miterlimit="10" d="M457.1,202.4"/>
	</g>
	<g>
		<path fill="none" stroke="#000000" stroke-miterlimit="10" d="M449.3,199.4c10.4-8.4,17.1-21.3,17.1-35.7
			c0-14.5-6.7-27.3-17.1-35.7"/>
		<path fill="none" stroke="#000000" stroke-miterlimit="10" d="M449.3,128"/>
		<path fill="none" stroke="#000000" stroke-miterlimit="10" d="M449.3,199.4"/>
	</g>
	<g>
		<path fill="none" stroke="#000000" stroke-miterlimit="10" d="M441.4,196.5c9.6-7.7,15.7-19.5,15.7-32.8
			c0-13.2-6.1-25.1-15.7-32.8"/>
		<path fill="none" stroke="#000000" stroke-miterlimit="10" d="M441.4,130.9"/>
		<path fill="none" stroke="#000000" stroke-miterlimit="10" d="M441.4,196.5"/>
	</g>
	<g>
		<path fill="none" stroke="#000000" stroke-miterlimit="10" d="M433.6,193.5c8.7-7,14.3-17.7,14.3-29.8s-5.6-22.8-14.3-29.8"/>
		<path fill="none" stroke="#000000" stroke-miterlimit="10" d="M433.6,133.9"/>
		<path fill="none" stroke="#000000" stroke-miterlimit="10" d="M433.6,193.5"/>
	</g>
	<g>
		<path fill="none" stroke="#000000" stroke-miterlimit="10" d="M425.7,190.5c7.8-6.3,12.9-16,12.9-26.8s-5-20.5-12.9-26.8"/>
		<path fill="none" stroke="#000000" stroke-miterlimit="10" d="M425.7,136.9"/>
		<path fill="none" stroke="#000000" stroke-miterlimit="10" d="M425.7,190.5"/>
	</g>
	<g>
		<path fill="none" stroke="#000000" stroke-miterlimit="10" d="M417.9,187.5c7-5.6,11.4-14.2,11.4-23.8c0-9.6-4.5-18.2-11.4-23.8"
			/>
		<path fill="none" stroke="#000000" stroke-miterlimit="10" d="M417.9,139.9"/>
		<path fill="none" stroke="#000000" stroke-miterlimit="10" d="M417.9,187.5"/>
	</g>
	<g>
		<path fill="none" stroke="#000000" stroke-miterlimit="10" d="M410,184.6c6.1-4.9,10-12.4,10-20.9c0-8.4-3.9-15.9-10-20.9"/>
		<path fill="none" stroke="#000000" stroke-miterlimit="10" d="M410,142.8"/>
		<path fill="none" stroke="#000000" stroke-miterlimit="10" d="M410,184.6"/>
	</g>
</g>
</svg>
