<?xml version="1.0" encoding="utf-8"?>
<!-- Generator: Adobe Illustrator 18.0.0, SVG Export Plug-In . SVG Version: 6.00 Build 0)  -->
<!DOCTYPE svg PUBLIC "-//W3C//DTD SVG 1.1//EN" "http://www.w3.org/Graphics/SVG/1.1/DTD/svg11.dtd">
<svg version="1.1" id="Layer_1" xmlns="http://www.w3.org/2000/svg" xmlns:xlink="http://www.w3.org/1999/xlink" x="0px" y="0px"
	 viewBox="0 0 500 250" enable-background="new 0 0 500 250" xml:space="preserve">
<rect x="409" y="20" transform="matrix(0.9965 8.359808e-02 -8.359808e-02 0.9965 5.8037 -36.6046)" fill="#D0D8DC" stroke="#000000" stroke-miterlimit="10" width="62" height="62"/>
<circle fill="#FFFFFF" stroke="#000000" stroke-miterlimit="10" cx="441.5" cy="52.5" r="26.5"/>
<circle fill="#FFFFFF" stroke="#000000" stroke-miterlimit="10" cx="441.5" cy="52.5" r="23.5"/>
<path fill="#FFFFFF" stroke="#000000" stroke-miterlimit="10" d="M446.1,48.1c0.1,0.9-0.6,1.7-1.4,1.7L432.9,51
	c-0.9,0.1-1.7-0.6-1.7-1.4L430,37.8c-0.1-0.9,0.6-1.7,1.4-1.7l11.8-1.2c0.9-0.1,1.7,0.6,1.7,1.4L446.1,48.1z"/>
<path fill="#FFFFFF" stroke="#000000" stroke-miterlimit="10" d="M446.7,69.8c-0.8,0.4-1.7,0.1-2.1-0.7l-5.4-10.5
	c-0.4-0.8-0.1-1.7,0.7-2.1l10.5-5.4c0.8-0.4,1.7-0.1,2.1,0.7l5.4,10.5c0.4,0.8,0.1,1.7-0.7,2.1L446.7,69.8z"/>
<path fill="#9CCC65" stroke="#000000" stroke-miterlimit="10" d="M454.4,42c-3.3-2.8-3.2-8.3,0.2-12.2c3.4-3.9,8.8-4.8,12.1-1.9
	L454.4,42z"/>
<polyline fill="#FFFFFF" stroke="#000000" stroke-miterlimit="10" points="425,63 426.9,61.8 428.7,63 430.9,61.8 432.8,63 
	435,61.8 "/>
<polyline fill="#FFFFFF" stroke="#000000" stroke-miterlimit="10" points="424.1,55.8 426.4,57 428.2,55.8 430.4,57 432.3,55.8 
	434.1,57 436,55.8 "/>
<polyline fill="#FFFFFF" stroke="#000000" stroke-miterlimit="10" points="449,47.2 450.9,46 452.7,47.2 454.9,46 456.8,47.2 
	459,46 "/>
<polyline fill="#FFFFFF" stroke="#000000" stroke-miterlimit="10" points="433,68.2 434.9,67 436.7,68.2 438.9,67 "/>
<g>
	<path fill="#FFF278" d="M18,89c-2.3,0-6.2,0.1-6,3c0.1,1.1,0.6,2.8,1,3.9c0.5,1.6,0.7,3.3,1.2,4.9c0.7,2.6,2.1,4.7,3.4,7.1
		c0.9,1.7,2.7,3.7,3.2,5.5c0.3,1,0.1,2.1,0.4,3.1c0.3,1.1,0.8,2.1,1.2,3.1c2.5,6.1,3.4,13,5.9,19.2c0.8,2,1.5,6.3,3.7,7.1
		c1.1,0.4,2.8-0.5,4-0.8c1.6-0.4,3.1-0.7,4.7-1c2.2-0.4,2.6-0.9,3.3-3.1c1.2-3.3,0.9-5.8,2-9.2c1.2-3.8,2.3-8.3,3-12.2
		c0.5-2.8,3.4-5.4,4.7-8c0.9-1.8,2-4.7,3.6-6c1.1,0.9,0.8,6.9,0.8,8.5c0,3.1-1.7,6.6-2.5,9.6c-1.4,5.3-1.3,11.1-3,16.3
		c1.9,0.8,4-1,5.7-1.9c1.7-0.9,3.7-1.4,5.5-2.1c4-1.6,8.2-2.5,12.3-3.5c2.9-0.7,6.3-1.3,6.8-4.8c0.6-3.7-1.7-8.1-2-11.9
		c-0.3-3.7-1.6-7.6-2.7-11.3c-0.7-2.2-1.3-4.4-2.2-6.5c-1.1-2.7-2.7-5.1-3.9-7.7c-1.6-3.8-2.5-7.8-4.1-11.6c-0.5-1.1-1.1-3-2.1-3.5
		c-1.6-0.8-5.1,0.3-6.6,0.9c-7,2.9-13.9,5.3-21.2,7c-6.3,1.5-12.4,2.4-18.3,4.8c-0.9,0.4-2.1,0.5-2.8,1.2"/>
	<line fill="none" stroke="#000000" stroke-miterlimit="10" x1="58.6" y1="116.2" x2="50.8" y2="114.5"/>
	<g>
		<g>
			<polygon fill="none" stroke="#000000" stroke-miterlimit="10" points="56.8,105.6 58.6,116.2 53.2,141.5 84,132.7 67.8,76 
				13,91.6 29.2,148.4 44.5,144 50.8,114.5 			"/>
			<polyline fill="none" stroke="#000000" stroke-miterlimit="10" points="44.5,144 35.5,185.9 43.4,187.6 53.2,141.5 			"/>
			<polyline fill="none" stroke="#000000" stroke-miterlimit="10" points="53.2,141.5 58.6,116.2 56.8,105.6 50.8,114.5 44.5,144 
							"/>
		</g>
		
			<rect x="34.6" y="186.7" transform="matrix(-0.978 -0.2087 0.2087 -0.978 36.5684 385.2025)" fill="none" stroke="#000000" stroke-miterlimit="10" width="8" height="8"/>
		<path fill="none" stroke="#000000" stroke-miterlimit="10" d="M33.9,193.7l-0.8,3.9c-0.4,1.9,1.3,3.9,3.2,4.3l0,0
			c1.9,0.4,4.2-0.7,4.6-2.6l0.8-3.9L33.9,193.7z"/>
	</g>
</g>
<rect fill="none" stroke="#000000" stroke-miterlimit="10" width="500" height="250"/>
<g>
	<path fill="none" stroke="#000000" stroke-miterlimit="10" d="M301.8,32.2c-2,0-4,0.1-6,0.2v72.2c1.9-0.6,3.9-0.9,6-0.9
		c11.6,0,21,9.4,21,21s-9.4,21-21,21c-2.1,0-4.1-0.3-6-0.9v72.2c2,0.1,4,0.2,6,0.2c51.1,0,92.5-41.4,92.5-92.5
		S352.8,32.2,301.8,32.2z"/>
	<circle fill="none" stroke="#000000" stroke-miterlimit="10" cx="301.8" cy="124" r="4"/>
	<g>
		<path fill="none" d="M239.7,125c0,34.4,28,62.3,62.3,62.3c17.3,0,32.9-7,44.2-18.4l-2-2c-10.8,10.8-25.7,17.6-42.1,17.6
			c-32.8,0-59.4-26.7-59.4-59.4c0-32.8,26.7-59.4,59.4-59.4c16.1,0,30.7,6.4,41.4,16.8l2-2c-11.2-10.9-26.6-17.7-43.4-17.7
			C267.6,62.7,239.7,90.6,239.7,125z"/>
		<path fill="none" d="M243.6,125c0,32.2,26.2,58.4,58.4,58.4c16.2,0,30.8-6.6,41.4-17.3l-2-2c-10.1,10.1-24,16.4-39.4,16.4
			c-30.6,0-55.6-24.9-55.6-55.6c0-30.6,24.9-55.6,55.6-55.6c15,0,28.6,6,38.7,15.7l2-2c-10.5-10.2-24.9-16.6-40.7-16.6
			C269.8,66.6,243.6,92.8,243.6,125z"/>
		<path fill="none" d="M247.4,125c0,30.1,24.5,54.6,54.6,54.6c15.1,0,28.8-6.2,38.7-16.1l-2-2c-9.4,9.4-22.3,15.3-36.7,15.3
			c-28.5,0-51.7-23.2-51.7-51.7c0-28.5,23.2-51.7,51.7-51.7c13.9,0,26.6,5.6,35.9,14.6l2-2c-9.8-9.5-23.2-15.4-37.9-15.4
			C271.9,70.4,247.4,94.9,247.4,125z"/>
		<path fill="none" d="M235.8,125c0,36.5,29.7,66.2,66.2,66.2c18.3,0,34.9-7.5,46.9-19.6l-2-2c-11.5,11.5-27.4,18.7-44.9,18.7
			c-34.9,0-63.3-28.4-63.3-63.3c0-34.9,28.4-63.3,63.3-63.3c17.2,0,32.7,6.9,44.1,18l2-2C336.2,66,320,58.8,302,58.8
			C265.5,58.8,235.8,88.5,235.8,125z"/>
		<path fill="none" d="M228,125c0,40.8,33.2,74,74,74c20.5,0,39-8.4,52.4-21.8l-2-2c-12.9,13-30.7,21-50.4,21
			c-39.2,0-71.1-31.9-71.1-71.1s31.9-71.1,71.1-71.1c19.3,0,36.8,7.7,49.6,20.3l2-2C340.3,59.1,322.1,51,302,51
			C261.2,51,228,84.2,228,125z"/>
		<path fill="none" d="M231.9,125c0,38.6,31.4,70.1,70.1,70.1c19.4,0,37-7.9,49.7-20.7l-2-2c-12.2,12.2-29,19.8-47.6,19.8
			c-37.1,0-67.2-30.1-67.2-67.2s30.1-67.2,67.2-67.2c18.2,0,34.8,7.3,46.9,19.1l2-2c-12.6-12.3-29.9-20-48.9-20
			C263.4,54.9,231.9,86.4,231.9,125z"/>
		<path fill="none" d="M270.7,125c0,17.2,14,31.3,31.3,31.3c8.7,0,16.6-3.6,22.2-9.3l-2-2c-5.2,5.2-12.3,8.5-20.2,8.5
			c-15.7,0-28.4-12.7-28.4-28.4s12.7-28.4,28.4-28.4c7.5,0,14.4,2.9,19.4,7.7l2-2c-5.6-5.3-13.2-8.6-21.5-8.6
			C284.8,93.7,270.7,107.8,270.7,125z"/>
		<path fill="none" d="M224.1,125c0,42.9,34.9,77.9,77.9,77.9c21.5,0,41-8.8,55.2-23l-2-2C341.5,191.5,322.7,200,302,200
			c-41.3,0-75-33.6-75-75s33.6-75,75-75c20.4,0,38.9,8.2,52.4,21.4l2-2c-14-13.7-33.3-22.2-54.4-22.2
			C259.1,47.1,224.1,82.1,224.1,125z"/>
		<path fill="none" d="M274.6,125c0,15.1,12.3,27.4,27.4,27.4c7.6,0,14.5-3.1,19.5-8.2l-2-2c-4.4,4.5-10.6,7.3-17.4,7.3
			c-13.5,0-24.5-11-24.5-24.5c0-13.5,11-24.5,24.5-24.5c6.5,0,12.3,2.5,16.7,6.6l2-2c-4.9-4.6-11.5-7.4-18.7-7.4
			C286.9,97.6,274.6,109.9,274.6,125z"/>
		<path fill="none" d="M318,107.8c-4.2-3.9-9.8-6.3-16-6.3c-13,0-23.5,10.5-23.5,23.5s10.5,23.5,23.5,23.5c6.5,0,12.5-2.7,16.7-7"/>
		<path fill="none" d="M301.5,124.3"/>
		<path fill="none" d="M266.9,125c0,19.4,15.8,35.1,35.1,35.1c9.8,0,18.6-4,25-10.4l-2-2c-5.9,5.9-14,9.6-22.9,9.6
			c-17.8,0-32.3-14.5-32.3-32.3s14.5-32.3,32.3-32.3c8.6,0,16.4,3.4,22.2,8.9l2-2c-6.3-6-14.8-9.7-24.2-9.7
			C282.6,89.9,266.9,105.6,266.9,125z"/>
		<path fill="none" d="M259.1,125c0,23.7,19.2,42.9,42.9,42.9c11.9,0,22.7-4.9,30.5-12.7l-2-2c-7.3,7.3-17.3,11.9-28.4,11.9
			c-22.1,0-40-18-40-40s18-40,40-40c10.7,0,20.5,4.3,27.7,11.2l2-2c-7.7-7.4-18.2-12-29.7-12C278.3,82.1,259.1,101.3,259.1,125z"/>
		<path fill="none" d="M255.2,125c0,25.8,21,46.8,46.8,46.8c13,0,24.7-5.3,33.2-13.9l-2-2c-8,8-19,13-31.2,13
			c-24.2,0-43.9-19.7-43.9-43.9s19.7-43.9,43.9-43.9c11.8,0,22.5,4.7,30.4,12.3l2-2c-8.4-8.1-19.9-13.1-32.5-13.1
			C276.2,78.2,255.2,99.2,255.2,125z"/>
		<path fill="none" d="M263,125c0,21.5,17.5,39,39,39c10.8,0,20.6-4.4,27.7-11.6l-2-2c-6.6,6.6-15.6,10.7-25.7,10.7
			c-19.9,0-36.1-16.2-36.1-36.1s16.2-36.1,36.1-36.1c9.7,0,18.4,3.8,24.9,10l2-2c-7-6.7-16.5-10.9-27-10.9
			C280.5,86,263,103.5,263,125z"/>
		<path fill="none" d="M251.3,125c0,27.9,22.7,50.7,50.7,50.7c14,0,26.8-5.7,35.9-15l-2-2c-8.7,8.7-20.7,14.2-33.9,14.2
			c-26.4,0-47.8-21.4-47.8-47.8s21.4-47.8,47.8-47.8c12.9,0,24.6,5.1,33.2,13.4l2-2c-9.1-8.8-21.5-14.3-35.2-14.3
			C274.1,74.3,251.3,97.1,251.3,125z"/>
		<path fill="none" d="M216.4,125c0,47.2,38.4,85.6,85.6,85.6c23.7,0,45.1-9.7,60.6-25.2l-2-2c-15,15.1-35.7,24.4-58.6,24.4
			c-45.6,0-82.7-37.1-82.7-82.7c0-45.6,37.1-82.7,82.7-82.7c22.5,0,42.9,9,57.9,23.7l2-2c-15.5-15.2-36.6-24.5-59.9-24.5
			C254.8,39.4,216.4,77.8,216.4,125z"/>
		<path fill="none" d="M220.3,125c0,45.1,36.7,81.7,81.7,81.7c22.6,0,43.1-9.2,57.9-24.1l-2-2c-14.3,14.4-34.1,23.3-55.9,23.3
			c-43.5,0-78.9-35.4-78.9-78.9s35.4-78.9,78.9-78.9c21.4,0,40.9,8.6,55.1,22.5l2-2c-14.8-14.5-34.9-23.4-57.2-23.4
			C256.9,43.3,220.3,79.9,220.3,125z"/>
		<path fill="none" d="M212.5,125c0,49.4,40.1,89.5,89.5,89.5c24.7,0,47.2-10.1,63.4-26.4l-2-2c-15.7,15.8-37.4,25.5-61.4,25.5
			c-47.8,0-86.6-38.9-86.6-86.6c0-47.8,38.9-86.6,86.6-86.6c23.6,0,45,9.5,60.6,24.8l2-2c-16.2-15.9-38.3-25.7-62.7-25.7
			C252.6,35.5,212.5,75.6,212.5,125z"/>
		<path d="M302,148.5c-13,0-23.5-10.5-23.5-23.5s10.5-23.5,23.5-23.5c6.2,0,11.8,2.4,16,6.3l0.7-0.7c-4.4-4.1-10.3-6.6-16.7-6.6
			c-13.5,0-24.5,11-24.5,24.5c0,13.5,11,24.5,24.5,24.5c6.8,0,13-2.8,17.4-7.3l-0.7-0.7C314.5,145.8,308.5,148.5,302,148.5z"/>
		<path d="M302,152.4c-15.1,0-27.4-12.3-27.4-27.4c0-15.1,12.3-27.4,27.4-27.4c7.2,0,13.8,2.8,18.7,7.4l0.7-0.7
			c-5.1-4.8-11.9-7.7-19.4-7.7c-15.7,0-28.4,12.7-28.4,28.4s12.7,28.4,28.4,28.4c7.9,0,15-3.2,20.2-8.5l-0.7-0.7
			C316.5,149.3,309.6,152.4,302,152.4z"/>
		<path d="M302,156.3c-17.2,0-31.3-14-31.3-31.3s14-31.3,31.3-31.3c8.3,0,15.9,3.3,21.5,8.6l0.7-0.7c-5.8-5.5-13.6-8.9-22.2-8.9
			c-17.8,0-32.3,14.5-32.3,32.3s14.5,32.3,32.3,32.3c9,0,17.1-3.7,22.9-9.6l-0.7-0.7C318.6,152.7,310.7,156.3,302,156.3z"/>
		<path d="M302,160.1c-19.4,0-35.1-15.8-35.1-35.1c0-19.4,15.8-35.1,35.1-35.1c9.4,0,17.9,3.7,24.2,9.7l0.7-0.7
			c-6.5-6.2-15.3-10-24.9-10c-19.9,0-36.1,16.2-36.1,36.1s16.2,36.1,36.1,36.1c10,0,19.1-4.1,25.7-10.7l-0.7-0.7
			C320.6,156.1,311.8,160.1,302,160.1z"/>
		<path d="M302,164c-21.5,0-39-17.5-39-39c0-21.5,17.5-39,39-39c10.5,0,20,4.1,27,10.9l0.7-0.7C322.5,89.2,312.7,85,302,85
			c-22.1,0-40,18-40,40s18,40,40,40c11.1,0,21.2-4.5,28.4-11.9l-0.7-0.7C322.6,159.6,312.8,164,302,164z"/>
		<path d="M302,167.9c-23.7,0-42.9-19.2-42.9-42.9c0-23.7,19.2-42.9,42.9-42.9c11.5,0,22,4.6,29.7,12l0.7-0.7
			c-7.9-7.6-18.6-12.3-30.4-12.3c-24.2,0-43.9,19.7-43.9,43.9s19.7,43.9,43.9,43.9c12.2,0,23.2-5,31.2-13l-0.7-0.7
			C324.7,163,313.9,167.9,302,167.9z"/>
		<path d="M302,171.8c-25.8,0-46.8-21-46.8-46.8c0-25.8,21-46.8,46.8-46.8c12.6,0,24,5,32.5,13.1l0.7-0.7
			c-8.6-8.3-20.3-13.4-33.2-13.4c-26.4,0-47.8,21.4-47.8,47.8s21.4,47.8,47.8,47.8c13.2,0,25.2-5.4,33.9-14.2l-0.7-0.7
			C326.7,166.5,315,171.8,302,171.8z"/>
		<path d="M302,175.7c-27.9,0-50.7-22.7-50.7-50.7c0-27.9,22.7-50.7,50.7-50.7c13.7,0,26.1,5.4,35.2,14.3l0.7-0.7
			c-9.3-9-22-14.6-35.9-14.6c-28.5,0-51.7,23.2-51.7,51.7c0,28.5,23.2,51.7,51.7,51.7c14.3,0,27.3-5.9,36.7-15.3l-0.7-0.7
			C328.8,169.9,316,175.7,302,175.7z"/>
		<path d="M302,179.6c-30.1,0-54.6-24.5-54.6-54.6c0-30.1,24.5-54.6,54.6-54.6c14.7,0,28.1,5.9,37.9,15.4l0.7-0.7
			c-10-9.7-23.6-15.7-38.7-15.7c-30.6,0-55.6,24.9-55.6,55.6c0,30.6,24.9,55.6,55.6,55.6c15.4,0,29.3-6.3,39.4-16.4l-0.7-0.7
			C330.8,173.4,317.1,179.6,302,179.6z"/>
		<path d="M302,183.4c-32.2,0-58.4-26.2-58.4-58.4s26.2-58.4,58.4-58.4c15.8,0,30.2,6.3,40.7,16.6l0.7-0.7
			C332.7,72,318.1,65.6,302,65.6c-32.8,0-59.4,26.7-59.4,59.4c0,32.8,26.7,59.4,59.4,59.4c16.5,0,31.4-6.7,42.1-17.6l-0.7-0.7
			C332.8,176.8,318.2,183.4,302,183.4z"/>
		<path d="M302,187.3c-34.4,0-62.3-28-62.3-62.3s28-62.3,62.3-62.3c16.9,0,32.2,6.8,43.4,17.7l0.7-0.7c-11.4-11.1-27-18-44.1-18
			c-34.9,0-63.3,28.4-63.3,63.3c0,34.9,28.4,63.3,63.3,63.3c17.5,0,33.4-7.2,44.9-18.7l-0.7-0.7C334.9,180.3,319.3,187.3,302,187.3z
			"/>
		<path d="M302,191.2c-36.5,0-66.2-29.7-66.2-66.2c0-36.5,29.7-66.2,66.2-66.2c18,0,34.2,7.2,46.2,18.8l0.7-0.7
			c-12.1-11.8-28.7-19.1-46.9-19.1c-37.1,0-67.2,30.1-67.2,67.2s30.1,67.2,67.2,67.2c18.6,0,35.5-7.6,47.6-19.8l-0.7-0.7
			C336.9,183.7,320.3,191.2,302,191.2z"/>
		<path d="M302,195.1c-38.6,0-70.1-31.4-70.1-70.1c0-38.6,31.4-70.1,70.1-70.1c19,0,36.3,7.6,48.9,20l0.7-0.7
			c-12.8-12.5-30.3-20.3-49.6-20.3c-39.2,0-71.1,31.9-71.1,71.1s31.9,71.1,71.1,71.1c19.7,0,37.5-8,50.4-21l-0.7-0.7
			C339,187.2,321.4,195.1,302,195.1z"/>
		<path d="M302,199c-40.8,0-74-33.2-74-74c0-40.8,33.2-74,74-74c20.1,0,38.3,8.1,51.7,21.1l0.7-0.7C340.9,58.2,322.4,50,302,50
			c-41.3,0-75,33.6-75,75s33.6,75,75,75c20.7,0,39.5-8.5,53.1-22.1l-0.7-0.7C341,190.6,322.5,199,302,199z"/>
		<path d="M302,202.9c-42.9,0-77.9-34.9-77.9-77.9c0-42.9,34.9-77.9,77.9-77.9c21.2,0,40.4,8.5,54.4,22.2l0.7-0.7
			c-14.2-13.9-33.7-22.5-55.1-22.5c-43.5,0-78.9,35.4-78.9,78.9s35.4,78.9,78.9,78.9c21.8,0,41.6-8.9,55.9-23.3l-0.7-0.7
			C343,194.1,323.5,202.9,302,202.9z"/>
		<path d="M302,206.7c-45.1,0-81.7-36.7-81.7-81.7c0-45.1,36.7-81.7,81.7-81.7c22.2,0,42.4,8.9,57.2,23.4l0.7-0.7
			c-14.9-14.6-35.4-23.7-57.9-23.7c-45.6,0-82.7,37.1-82.7,82.7c0,45.6,37.1,82.7,82.7,82.7c22.9,0,43.6-9.3,58.6-24.4l-0.7-0.7
			C345.1,197.5,324.6,206.7,302,206.7z"/>
		<path d="M302,210.6c-47.2,0-85.6-38.4-85.6-85.6s38.4-85.6,85.6-85.6c23.3,0,44.4,9.4,59.9,24.5l0.7-0.7
			c-15.6-15.3-37-24.8-60.6-24.8c-47.8,0-86.6,38.9-86.6,86.6c0,47.8,38.9,86.6,86.6,86.6c23.9,0,45.7-9.8,61.4-25.5l-0.7-0.7
			C347.1,201,325.7,210.6,302,210.6z"/>
		<path d="M302,214.5c-49.4,0-89.5-40.1-89.5-89.5s40.1-89.5,89.5-89.5c24.4,0,46.5,9.8,62.7,25.7l0.7-0.7
			c-16.3-16-38.7-25.9-63.4-25.9c-49.9,0-90.5,40.6-90.5,90.5c0,49.9,40.6,90.5,90.5,90.5c25,0,47.7-10.2,64.1-26.7l-0.7-0.7
			C349.2,204.4,326.7,214.5,302,214.5z"/>
		<path fill="none" stroke="#000000" stroke-miterlimit="10" d="M337.9,160.7c9.1-9.2,14.7-21.8,14.7-35.7
			c0-14.3-5.9-27.2-15.5-36.4"/>
		<path fill="none" stroke="#000000" stroke-miterlimit="10" d="M335.2,90.6c9,8.7,14.6,20.9,14.6,34.4c0,13.1-5.3,25-13.9,33.6"/>
		<path fill="none" stroke="#000000" stroke-miterlimit="10" d="M318.7,141.5c4.2-4.2,6.8-10.1,6.8-16.5c0-6.8-2.9-12.9-7.5-17.2"/>
		<path fill="none" stroke="#000000" stroke-miterlimit="10" d="M301.5,124.3"/>
		<path fill="none" stroke="#000000" stroke-miterlimit="10" d="M329.7,152.4c7-7.1,11.3-16.8,11.3-27.4c0-11.1-4.6-21.1-12.1-28.2"
			/>
		<path fill="none" stroke="#000000" stroke-miterlimit="10" d="M326.9,98.9c6.9,6.6,11.2,15.9,11.2,26.1c0,9.9-4,18.9-10.5,25.4"/>
		<path fill="none" stroke="#000000" stroke-miterlimit="10" d="M332.5,155.2c7.7-7.8,12.5-18.4,12.5-30.2
			c0-12.1-5.1-23.1-13.2-30.9"/>
		<path fill="none" stroke="#000000" stroke-miterlimit="10" d="M329.7,96.1c7.6,7.3,12.3,17.5,12.3,28.9c0,11-4.4,20.9-11.6,28.2"
			/>
		<path fill="none" stroke="#000000" stroke-miterlimit="10" d="M335.2,157.9c8.4-8.5,13.6-20.1,13.6-32.9
			c0-13.2-5.5-25.1-14.3-33.7"/>
		<path fill="none" stroke="#000000" stroke-miterlimit="10" d="M332.4,93.4c8.3,8,13.5,19.2,13.5,31.6c0,12-4.9,23-12.7,30.9"/>
		<path fill="none" stroke="#000000" stroke-miterlimit="10" d="M365.4,188.1c16.1-16.2,26.1-38.5,26.1-63.1
			c0-25-10.3-47.6-26.8-63.8"/>
		<path fill="none" stroke="#000000" stroke-miterlimit="10" d="M362.6,63.2c16,15.7,26,37.6,26,61.8c0,23.8-9.7,45.4-25.3,61.1"/>
		<path fill="none" stroke="#000000" stroke-miterlimit="10" d="M327,149.7c6.3-6.4,10.2-15.1,10.2-24.7c0-10-4.2-19-10.9-25.4"/>
		<path fill="none" stroke="#000000" stroke-miterlimit="10" d="M324.2,101.6c6.2,5.9,10.1,14.2,10.1,23.4c0,8.8-3.6,16.8-9.3,22.7"
			/>
		<path fill="none" stroke="#000000" stroke-miterlimit="10" d="M362.6,185.4c15.4-15.5,25-36.8,25-60.4c0-23.9-9.9-45.5-25.7-61.1"
			/>
		<path fill="none" stroke="#000000" stroke-miterlimit="10" d="M359.9,65.9c15.3,15,24.9,35.9,24.9,59.1c0,22.7-9.2,43.4-24.1,58.3
			"/>
		<path fill="none" stroke="#000000" stroke-miterlimit="10" d="M348.9,171.7c11.9-12,19.3-28.5,19.3-46.7c0-18.6-7.7-35.3-20-47.4"
			/>
		<path fill="none" stroke="#000000" stroke-miterlimit="10" d="M346.1,79.7c11.8,11.5,19.2,27.6,19.2,45.3c0,17.4-7,33.2-18.4,44.6
			"/>
		<path fill="none" stroke="#000000" stroke-miterlimit="10" d="M467,124.3"/>
		<path fill="none" stroke="#000000" stroke-miterlimit="10" d="M365.4,60.4c16.7,16.4,27.1,39.3,27.1,64.6
			c0,24.9-10.1,47.5-26.4,63.8"/>
		<path fill="none" stroke="#000000" stroke-miterlimit="10" d="M321.5,144.2c4.9-4.9,7.9-11.7,7.9-19.2c0-7.9-3.3-14.9-8.6-19.9"/>
		<path fill="none" stroke="#000000" stroke-miterlimit="10" d="M318.7,107.1c4.8,4.5,7.8,10.8,7.8,17.9c0,6.7-2.7,12.8-7.1,17.2"/>
		<path fill="none" stroke="#000000" stroke-miterlimit="10" d="M340.7,163.4c9.8-9.9,15.9-23.5,15.9-38.4
			c0-15.3-6.4-29.2-16.6-39.1"/>
		<path fill="none" stroke="#000000" stroke-miterlimit="10" d="M337.9,87.9c9.7,9.4,15.8,22.6,15.8,37.1c0,14.2-5.7,27-15,36.4"/>
		<path fill="none" stroke="#000000" stroke-miterlimit="10" d="M351.7,174.4c12.6-12.7,20.4-30.1,20.4-49.4
			c0-19.6-8.1-37.4-21.2-50.1"/>
		<path fill="none" stroke="#000000" stroke-miterlimit="10" d="M348.9,76.9c12.5,12.2,20.3,29.3,20.3,48.1
			c0,18.5-7.5,35.2-19.6,47.4"/>
		<path fill="none" stroke="#000000" stroke-miterlimit="10" d="M359.9,182.6c14.7-14.8,23.8-35.2,23.8-57.6
			c0-22.8-9.4-43.5-24.6-58.4"/>
		<path fill="none" stroke="#000000" stroke-miterlimit="10" d="M357.1,68.7C371.8,83,380.9,103,380.9,125c0,21.7-8.8,41.3-23,55.6"
			/>
		<path fill="none" stroke="#000000" stroke-miterlimit="10" d="M343.4,166.2c10.5-10.6,17-25.1,17-41.2c0-16.4-6.8-31.3-17.7-41.9"
			/>
		<path fill="none" stroke="#000000" stroke-miterlimit="10" d="M340.7,85.1c10.4,10.1,16.9,24.2,16.9,39.9
			c0,15.2-6.2,29.1-16.2,39.1"/>
		<path fill="none" stroke="#000000" stroke-miterlimit="10" d="M324.2,147c5.6-5.7,9-13.4,9-22c0-8.9-3.8-17-9.8-22.7"/>
		<path fill="none" stroke="#000000" stroke-miterlimit="10" d="M321.4,104.4c5.5,5.2,8.9,12.5,8.9,20.6c0,7.8-3.1,14.8-8.2,19.9"/>
		<path fill="none" stroke="#000000" stroke-miterlimit="10" d="M357.2,179.9c14-14.1,22.7-33.5,22.7-54.9c0-21.8-9-41.5-23.4-55.6"
			/>
		<path fill="none" stroke="#000000" stroke-miterlimit="10" d="M354.4,71.4C368.3,85,377,104,377,125c0,20.6-8.4,39.3-21.9,52.8"/>
		<path fill="none" stroke="#000000" stroke-miterlimit="10" d="M354.4,177.1c13.3-13.4,21.6-31.8,21.6-52.1
			c0-20.7-8.6-39.4-22.3-52.9"/>
		<path fill="none" stroke="#000000" stroke-miterlimit="10" d="M351.6,74.2c13.2,12.9,21.5,30.9,21.5,50.8
			c0,19.5-7.9,37.2-20.7,50.1"/>
		<path fill="none" stroke="#000000" stroke-miterlimit="10" d="M346.2,168.9c11.2-11.3,18.1-26.8,18.1-43.9
			c0-17.5-7.2-33.3-18.9-44.6"/>
		<path fill="none" stroke="#000000" stroke-miterlimit="10" d="M343.4,82.4c11.1,10.8,18,25.9,18,42.6c0,16.3-6.6,31.1-17.3,41.9"
			/>
		<path d="M318.7,107.1l-0.7,0.7c4.6,4.3,7.5,10.4,7.5,17.2c0,6.4-2.6,12.2-6.8,16.5l0.7,0.7c4.4-4.4,7.1-10.5,7.1-17.2
			C326.5,117.9,323.5,111.6,318.7,107.1z"/>
		<path d="M321.4,104.4l-0.7,0.7c5.3,5,8.6,12.1,8.6,19.9c0,7.5-3,14.3-7.9,19.2l0.7,0.7c5.1-5.1,8.2-12.2,8.2-19.9
			C330.4,116.9,326.9,109.5,321.4,104.4z"/>
		<path d="M324.2,101.6l-0.7,0.7c6,5.7,9.8,13.8,9.8,22.7c0,8.6-3.5,16.3-9,22l0.7,0.7c5.8-5.8,9.3-13.8,9.3-22.7
			C334.3,115.8,330.4,107.5,324.2,101.6z"/>
		<path d="M326.9,98.9l-0.7,0.7c6.7,6.4,10.9,15.4,10.9,25.4c0,9.6-3.9,18.4-10.2,24.7l0.7,0.7c6.5-6.5,10.5-15.5,10.5-25.4
			C338.1,114.7,333.8,105.5,326.9,98.9z"/>
		<path d="M329.7,96.1l-0.7,0.7c7.4,7.1,12.1,17.1,12.1,28.2c0,10.7-4.3,20.4-11.3,27.4l0.7,0.7c7.2-7.2,11.6-17.2,11.6-28.2
			C342,113.7,337.3,103.4,329.7,96.1z"/>
		<path d="M332.4,93.4l-0.7,0.7c8.1,7.8,13.2,18.8,13.2,30.9c0,11.8-4.8,22.4-12.5,30.2l0.7,0.7c7.9-7.9,12.7-18.9,12.7-30.9
			C345.9,112.6,340.7,101.4,332.4,93.4z"/>
		<path d="M335.2,90.6l-0.7,0.7c8.8,8.5,14.3,20.5,14.3,33.7c0,12.8-5.2,24.5-13.6,32.9l0.7,0.7c8.6-8.6,13.9-20.5,13.9-33.6
			C349.8,111.5,344.2,99.3,335.2,90.6z"/>
		<path d="M337.9,87.9l-0.7,0.7c9.5,9.2,15.5,22.1,15.5,36.4c0,13.9-5.6,26.5-14.7,35.7l0.7,0.7c9.3-9.3,15-22.2,15-36.4
			C353.7,110.4,347.6,97.3,337.9,87.9z"/>
		<path d="M340.7,85.1l-0.7,0.7c10.2,9.9,16.6,23.8,16.6,39.1c0,15-6.1,28.6-15.9,38.4l0.7,0.7c10-10,16.2-23.9,16.2-39.1
			C357.6,109.4,351.1,95.3,340.7,85.1z"/>
		<path d="M343.4,82.4l-0.7,0.7c10.9,10.6,17.7,25.5,17.7,41.9c0,16-6.5,30.6-17,41.2l0.7,0.7c10.7-10.8,17.3-25.6,17.3-41.9
			C361.4,108.3,354.5,93.2,343.4,82.4z"/>
		<path d="M346.1,79.7l-0.7,0.7c11.6,11.3,18.9,27.1,18.9,44.6c0,17.1-6.9,32.6-18.1,43.9l0.7,0.7c11.4-11.5,18.4-27.2,18.4-44.6
			C365.3,107.2,358,91.2,346.1,79.7z"/>
		<path d="M348.9,76.9l-0.7,0.7c12.3,12,20,28.8,20,47.4c0,18.2-7.4,34.7-19.3,46.7l0.7,0.7c12.1-12.2,19.6-28.9,19.6-47.4
			C369.2,106.2,361.4,89.1,348.9,76.9z"/>
		<path d="M351.6,74.2l-0.7,0.7c13,12.7,21.2,30.5,21.2,50.1c0,19.3-7.8,36.7-20.4,49.4l0.7,0.7c12.8-12.9,20.7-30.6,20.7-50.1
			C373.1,105.1,364.9,87.1,351.6,74.2z"/>
		<path d="M354.4,71.4l-0.7,0.7C367.4,85.6,376,104.3,376,125c0,20.3-8.2,38.8-21.6,52.1l0.7,0.7c13.5-13.6,21.9-32.2,21.9-52.8
			C377,104,368.3,85,354.4,71.4z"/>
		<path d="M357.1,68.7l-0.7,0.7c14.5,14.1,23.4,33.8,23.4,55.6c0,21.4-8.7,40.8-22.7,54.9l0.7,0.7c14.2-14.3,23-33.9,23-55.6
			C380.9,103,371.8,83,357.1,68.7z"/>
		<path d="M359.9,65.9l-0.7,0.7c15.2,14.8,24.6,35.5,24.6,58.4c0,22.5-9.1,42.8-23.8,57.6l0.7,0.7c14.9-15,24.1-35.6,24.1-58.3
			C384.7,101.9,375.2,81,359.9,65.9z"/>
		<path d="M362.6,63.2l-0.7,0.7c15.9,15.5,25.7,37.2,25.7,61.1c0,23.5-9.5,44.9-25,60.4l0.7,0.7c15.6-15.7,25.3-37.3,25.3-61.1
			C388.6,100.8,378.7,78.9,362.6,63.2z"/>
		<path d="M365.4,60.4l-0.7,0.7c16.6,16.3,26.8,38.9,26.8,63.8c0,24.6-10,46.9-26.1,63.1l0.7,0.7c16.3-16.4,26.4-38.9,26.4-63.8
			C392.5,99.7,382.1,76.9,365.4,60.4z"/>
		<rect x="105.8" y="30" fill="#FFFFFF" stroke="#000000" stroke-miterlimit="10" width="190" height="190"/>
	</g>
	<g>
		<circle fill="#66BB6A" stroke="#000000" stroke-miterlimit="10" cx="172.5" cy="49.5" r="14.5"/>
		<line fill="none" stroke="#000000" stroke-miterlimit="10" x1="112" y1="35" x2="132" y2="35"/>
		<line fill="none" stroke="#000000" stroke-miterlimit="10" x1="142" y1="35" x2="152" y2="35"/>
		<line fill="none" stroke="#000000" stroke-miterlimit="10" x1="112" y1="40" x2="121" y2="40"/>
		<line fill="none" stroke="#000000" stroke-miterlimit="10" x1="142" y1="40" x2="152" y2="40"/>
		<line fill="none" stroke="#000000" stroke-miterlimit="10" x1="112" y1="45" x2="123" y2="45"/>
		<line fill="none" stroke="#000000" stroke-miterlimit="10" x1="142" y1="45" x2="152" y2="45"/>
		<line fill="none" stroke="#000000" stroke-miterlimit="10" x1="112" y1="50" x2="130" y2="50"/>
		<line fill="none" stroke="#000000" stroke-miterlimit="10" x1="142" y1="50" x2="152" y2="50"/>
		<line fill="none" stroke="#000000" stroke-miterlimit="10" x1="112" y1="55" x2="121" y2="55"/>
		<line fill="none" stroke="#000000" stroke-miterlimit="10" x1="142" y1="55" x2="152" y2="55"/>
		<line fill="none" stroke="#000000" stroke-miterlimit="10" x1="112" y1="60" x2="118" y2="60"/>
		<line fill="none" stroke="#000000" stroke-miterlimit="10" x1="142" y1="60" x2="152" y2="60"/>
		<line fill="none" stroke="#000000" stroke-miterlimit="10" x1="112" y1="65" x2="133" y2="65"/>
		<line fill="none" stroke="#000000" stroke-miterlimit="10" x1="142" y1="65" x2="152" y2="65"/>
		<line fill="none" stroke="#000000" stroke-miterlimit="10" x1="112" y1="70" x2="129" y2="70"/>
		<line fill="none" stroke="#000000" stroke-miterlimit="10" x1="142" y1="70" x2="152" y2="70"/>
		<line fill="none" stroke="#000000" stroke-miterlimit="10" x1="112" y1="75" x2="136" y2="75"/>
		<line fill="none" stroke="#000000" stroke-miterlimit="10" x1="142" y1="75" x2="152" y2="75"/>
		<line fill="none" stroke="#000000" stroke-miterlimit="10" x1="112" y1="80" x2="136" y2="80"/>
		<line fill="none" stroke="#000000" stroke-miterlimit="10" x1="142" y1="80" x2="152" y2="80"/>
		<line fill="none" stroke="#000000" stroke-miterlimit="10" x1="112" y1="85" x2="126" y2="85"/>
		<line fill="none" stroke="#000000" stroke-miterlimit="10" x1="142" y1="85" x2="152" y2="85"/>
		<line fill="none" stroke="#000000" stroke-miterlimit="10" x1="112" y1="90" x2="136" y2="90"/>
		<line fill="none" stroke="#000000" stroke-miterlimit="10" x1="142" y1="90" x2="152" y2="90"/>
		<line fill="none" stroke="#000000" stroke-miterlimit="10" x1="112" y1="95" x2="122" y2="95"/>
		<line fill="none" stroke="#000000" stroke-miterlimit="10" x1="142" y1="95" x2="152" y2="95"/>
		<line fill="none" stroke="#000000" stroke-miterlimit="10" x1="112" y1="100" x2="129" y2="100"/>
		<line fill="none" stroke="#000000" stroke-miterlimit="10" x1="142" y1="100" x2="152" y2="100"/>
		<line fill="none" stroke="#000000" stroke-miterlimit="10" x1="112" y1="105" x2="136" y2="105"/>
		<line fill="none" stroke="#000000" stroke-miterlimit="10" x1="142" y1="105" x2="152" y2="105"/>
		<line fill="none" stroke="#000000" stroke-miterlimit="10" x1="112" y1="110" x2="136" y2="110"/>
		<line fill="none" stroke="#000000" stroke-miterlimit="10" x1="142" y1="110" x2="152" y2="110"/>
		<line fill="none" stroke="#000000" stroke-miterlimit="10" x1="112" y1="115" x2="133" y2="115"/>
		<line fill="none" stroke="#000000" stroke-miterlimit="10" x1="142" y1="115" x2="152" y2="115"/>
		<line fill="none" stroke="#000000" stroke-miterlimit="10" x1="112" y1="120" x2="136" y2="120"/>
		<line fill="none" stroke="#000000" stroke-miterlimit="10" x1="142" y1="120" x2="152" y2="120"/>
		<line fill="none" stroke="#000000" stroke-miterlimit="10" x1="112" y1="125" x2="124" y2="125"/>
		<line fill="none" stroke="#000000" stroke-miterlimit="10" x1="142" y1="125" x2="152" y2="125"/>
		<line fill="none" stroke="#000000" stroke-miterlimit="10" x1="112" y1="130" x2="133" y2="130"/>
		<line fill="none" stroke="#000000" stroke-miterlimit="10" x1="142" y1="130" x2="152" y2="130"/>
		<line fill="none" stroke="#000000" stroke-miterlimit="10" x1="112" y1="135" x2="136" y2="135"/>
		<line fill="none" stroke="#000000" stroke-miterlimit="10" x1="142" y1="135" x2="152" y2="135"/>
		<line fill="none" stroke="#000000" stroke-miterlimit="10" x1="112" y1="140" x2="122" y2="140"/>
		<line fill="none" stroke="#000000" stroke-miterlimit="10" x1="142" y1="140" x2="152" y2="140"/>
		<line fill="none" stroke="#000000" stroke-miterlimit="10" x1="112" y1="145" x2="133" y2="145"/>
		<line fill="none" stroke="#000000" stroke-miterlimit="10" x1="142" y1="145" x2="152" y2="145"/>
		<line fill="none" stroke="#000000" stroke-miterlimit="10" x1="112" y1="150" x2="134" y2="150"/>
		<line fill="none" stroke="#000000" stroke-miterlimit="10" x1="142" y1="150" x2="152" y2="150"/>
		<line fill="none" stroke="#000000" stroke-miterlimit="10" x1="112" y1="155" x2="121" y2="155"/>
		<line fill="none" stroke="#000000" stroke-miterlimit="10" x1="142" y1="155" x2="152" y2="155"/>
		<line fill="none" stroke="#000000" stroke-miterlimit="10" x1="112" y1="160" x2="132" y2="160"/>
		<line fill="none" stroke="#000000" stroke-miterlimit="10" x1="142" y1="160" x2="152" y2="160"/>
		<line fill="none" stroke="#000000" stroke-miterlimit="10" x1="112" y1="165" x2="134" y2="165"/>
		<line fill="none" stroke="#000000" stroke-miterlimit="10" x1="142" y1="165" x2="152" y2="165"/>
		<line fill="none" stroke="#000000" stroke-miterlimit="10" x1="112" y1="170" x2="124" y2="170"/>
		<line fill="none" stroke="#000000" stroke-miterlimit="10" x1="142" y1="170" x2="152" y2="170"/>
		<line fill="none" stroke="#000000" stroke-miterlimit="10" x1="112" y1="175" x2="136" y2="175"/>
		<line fill="none" stroke="#000000" stroke-miterlimit="10" x1="142" y1="175" x2="152" y2="175"/>
		<line fill="none" stroke="#000000" stroke-miterlimit="10" x1="112" y1="180" x2="133" y2="180"/>
		<line fill="none" stroke="#000000" stroke-miterlimit="10" x1="142" y1="180" x2="152" y2="180"/>
		<line fill="none" stroke="#000000" stroke-miterlimit="10" x1="112" y1="185" x2="136" y2="185"/>
		<line fill="none" stroke="#000000" stroke-miterlimit="10" x1="142" y1="185" x2="152" y2="185"/>
		<line fill="none" stroke="#000000" stroke-miterlimit="10" x1="112" y1="190" x2="126" y2="190"/>
		<line fill="none" stroke="#000000" stroke-miterlimit="10" x1="142" y1="190" x2="152" y2="190"/>
		<line fill="none" stroke="#000000" stroke-miterlimit="10" x1="112" y1="195" x2="136" y2="195"/>
		<line fill="none" stroke="#000000" stroke-miterlimit="10" x1="142" y1="195" x2="152" y2="195"/>
		<line fill="none" stroke="#000000" stroke-miterlimit="10" x1="112" y1="200" x2="128" y2="200"/>
		<line fill="none" stroke="#000000" stroke-miterlimit="10" x1="142" y1="200" x2="152" y2="200"/>
		<line fill="none" stroke="#000000" stroke-miterlimit="10" x1="112" y1="205" x2="118" y2="205"/>
		<line fill="none" stroke="#000000" stroke-miterlimit="10" x1="142" y1="205" x2="152" y2="205"/>
		<line fill="none" stroke="#000000" stroke-miterlimit="10" x1="112" y1="210" x2="126" y2="210"/>
		<line fill="none" stroke="#000000" stroke-miterlimit="10" x1="142" y1="210" x2="152" y2="210"/>
		<line fill="none" stroke="#000000" stroke-miterlimit="10" x1="112" y1="215" x2="136" y2="215"/>
		<line fill="none" stroke="#000000" stroke-miterlimit="10" x1="142" y1="215" x2="152" y2="215"/>
	</g>
</g>
</svg>
