<?xml version="1.0" encoding="utf-8"?>
<!-- Generator: Adobe Illustrator 18.0.0, SVG Export Plug-In . SVG Version: 6.00 Build 0)  -->
<!DOCTYPE svg PUBLIC "-//W3C//DTD SVG 1.1//EN" "http://www.w3.org/Graphics/SVG/1.1/DTD/svg11.dtd">
<svg version="1.1" id="Layer_1" xmlns="http://www.w3.org/2000/svg" xmlns:xlink="http://www.w3.org/1999/xlink" x="0px" y="0px"
	 viewBox="0 0 500 250" enable-background="new 0 0 500 250" xml:space="preserve">
<rect fill="none" stroke="#000000" stroke-miterlimit="10" width="500" height="250"/>
<line fill="none" stroke="#000000" stroke-miterlimit="10" x1="110.8" y1="37" x2="124.3" y2="37"/>
<circle cx="104.1" cy="37" r="2"/>
<circle cx="117.5" cy="32.5" r="1.5"/>
<circle fill="none" stroke="#000000" stroke-miterlimit="10" cx="117.5" cy="161" r="5"/>
<line fill="none" stroke="#000000" stroke-miterlimit="10" x1="258" y1="197.2" x2="258" y2="210.8"/>
<circle cx="258" cy="190.5" r="2"/>
<circle cx="262.5" cy="204" r="1.5"/>
<circle fill="none" stroke="#000000" stroke-miterlimit="10" cx="134" cy="204" r="5"/>
<line fill="none" stroke="#000000" stroke-miterlimit="10" x1="407.2" y1="72" x2="420.8" y2="72"/>
<circle cx="400.5" cy="72" r="2"/>
<circle cx="414" cy="67.5" r="1.5"/>
<circle fill="none" stroke="#000000" stroke-miterlimit="10" cx="414" cy="196" r="5"/>
<g>
	<path stroke="#000000" stroke-miterlimit="10" d="M30,159.9c-0.7-2.8,0.8-5.6,3.5-6.3c2.7-0.7,5.4,1,6.2,3.7l8.4,31.7
		c0,0.1,0,0.1,0,0.2l2.9-0.8l-4.8-18c2.4-3.9,4.2-11.5,1.3-16.5c-6.2-10.8-9.2-11-16.4-9.1c-7.2,1.9-10.1,3.7-9.3,17.5
		c0.3,5.8,4.9,10,8.9,12.2l4.8,18l3-0.8c0-0.1,0-0.1-0.1-0.2L30,159.9z"/>
	<path stroke="#D0D8DC" stroke-miterlimit="10" d="M48.1,189l-8.4-31.7c-0.7-2.8-3.5-4.4-6.2-3.7c-2.7,0.7-4.2,3.5-3.5,6.3l8.4,31.7
		c0,0.1,0,0.1,0.1,0.2l9.6-2.6C48.1,189.2,48.1,189.1,48.1,189z"/>
</g>
<rect x="40.5" y="190.3" transform="matrix(0.2575 0.9663 -0.9663 0.2575 220.6888 101.3097)" fill="#D0D8DC" stroke="#000000" stroke-miterlimit="10" width="7.8" height="8"/>
<g>
	<path stroke="#000000" stroke-miterlimit="10" d="M92.2,211.8c0,2.9-2.2,5.2-5,5.2s-5-2.3-5-5.2V179c0-0.1,0-0.1,0-0.2h-3v18.6
		c-3.3,3.2-7,10-5.5,15.6c3.2,12,6,13,13.5,13c7.5,0,10.8-1,13.5-14.5c1.2-5.7-2.2-10.9-5.5-14.1v-18.6h-3.1c0,0.1,0,0.1,0,0.2
		V211.8z"/>
	<path stroke="#D0D8DC" stroke-miterlimit="10" d="M82.2,179v32.8c0,2.9,2.2,5.2,5,5.2s5-2.3,5-5.2V179c0-0.1,0-0.1,0-0.2h-10
		C82.2,178.9,82.2,178.9,82.2,179z"/>
</g>
<rect x="83.1" y="171" fill="#D0D8DC" stroke="#000000" stroke-miterlimit="10" width="8" height="7.8"/>
<g>
	<path stroke="#000000" stroke-miterlimit="10" d="M104.8,185.2c0-2.9,2.2-5.2,5-5.2s5,2.3,5,5.2V218c0,0.1,0,0.1,0,0.2h3v-18.6
		c3.3-3.2,7-10,5.5-15.6c-3.2-12-6-13-13.5-13c-7.5,0-10.8,1-13.5,14.5c-1.2,5.7,2.2,10.9,5.5,14.1v18.6h3.1c0-0.1,0-0.1,0-0.2
		V185.2z"/>
	<path stroke="#D0D8DC" stroke-miterlimit="10" d="M114.8,218v-32.8c0-2.9-2.2-5.2-5-5.2s-5,2.3-5,5.2V218c0,0.1,0,0.1,0,0.2h10
		C114.8,218.1,114.8,218.1,114.8,218z"/>
</g>
<rect x="105.9" y="218.2" fill="#D0D8DC" stroke="#000000" stroke-miterlimit="10" width="8" height="7.8"/>
<g>
	<path stroke="#000000" stroke-miterlimit="10" d="M286.8,211.8c0,2.9-2.2,5.2-5,5.2s-5-2.3-5-5.2V179c0-0.1,0-0.1,0-0.2h-3v18.6
		c-3.3,3.2-7,10-5.5,15.6c3.2,12,6,13,13.5,13c7.5,0,10.7-1,13.5-14.5c1.2-5.7-2.2-10.9-5.5-14.1v-18.6h-3.1c0,0.1,0,0.1,0,0.2
		V211.8z"/>
	<path stroke="#D0D8DC" stroke-miterlimit="10" d="M276.8,179v32.8c0,2.9,2.2,5.2,5,5.2s5-2.3,5-5.2V179c0-0.1,0-0.1,0-0.2h-10
		C276.8,178.9,276.8,178.9,276.8,179z"/>
</g>
<rect x="277.7" y="171" fill="#D0D8DC" stroke="#000000" stroke-miterlimit="10" width="8" height="7.8"/>
<g>
	<path stroke="#000000" stroke-miterlimit="10" d="M299.4,185.2c0-2.9,2.2-5.2,5-5.2s5,2.3,5,5.2V218c0,0.1,0,0.1,0,0.2h3v-18.6
		c3.3-3.2,7-10,5.5-15.6c-3.2-12-6-13-13.5-13c-7.5,0-10.8,1-13.5,14.5c-1.2,5.7,2.2,10.9,5.5,14.1v18.6h3.1c0-0.1,0-0.1,0-0.2
		V185.2z"/>
	<path stroke="#D0D8DC" stroke-miterlimit="10" d="M309.4,218v-32.8c0-2.9-2.2-5.2-5-5.2s-5,2.3-5,5.2V218c0,0.1,0,0.1,0,0.2h10
		C309.4,218.1,309.4,218.1,309.4,218z"/>
</g>
<rect x="300.5" y="218.2" fill="#D0D8DC" stroke="#000000" stroke-miterlimit="10" width="8" height="7.8"/>
<g>
	<path stroke="#000000" stroke-miterlimit="10" d="M331.8,211.8c0,2.9-2.2,5.2-5,5.2c-2.7,0-5-2.3-5-5.2V179c0-0.1,0-0.1,0-0.2h-3
		v18.6c-3.3,3.2-7,10-5.5,15.6c3.3,12,6,13,13.5,13c7.5,0,10.8-1,13.5-14.5c1.2-5.7-2.2-10.9-5.5-14.1v-18.6h-3.1c0,0.1,0,0.1,0,0.2
		V211.8z"/>
	<path stroke="#D0D8DC" stroke-miterlimit="10" d="M321.8,179v32.8c0,2.9,2.2,5.2,5,5.2c2.8,0,5-2.3,5-5.2V179c0-0.1,0-0.1,0-0.2
		h-10C321.8,178.9,321.8,178.9,321.8,179z"/>
</g>
<rect x="322.7" y="171" fill="#D0D8DC" stroke="#000000" stroke-miterlimit="10" width="8" height="7.8"/>
<g>
	<path stroke="#000000" stroke-miterlimit="10" d="M344.4,185.2c0-2.9,2.2-5.2,5-5.2s5,2.3,5,5.2V218c0,0.1,0,0.1,0,0.2h3v-18.6
		c3.3-3.2,7-10,5.5-15.6c-3.2-12-6-13-13.5-13c-7.5,0-10.8,1-13.5,14.5c-1.2,5.7,2.2,10.9,5.5,14.1v18.6h3.1c0-0.1,0-0.1,0-0.2
		V185.2z"/>
	<path stroke="#D0D8DC" stroke-miterlimit="10" d="M354.4,218v-32.8c0-2.9-2.2-5.2-5-5.2s-5,2.3-5,5.2V218c0,0.1,0,0.1,0,0.2h10
		C354.4,218.1,354.4,218.1,354.4,218z"/>
</g>
<rect x="345.5" y="218.2" fill="#D0D8DC" stroke="#000000" stroke-miterlimit="10" width="8" height="7.8"/>
<g>
	<path stroke="#000000" stroke-miterlimit="10" d="M372.2,221.8c-2.9,0-5.2-2.2-5.2-5s2.3-5,5.2-5H405c0.1,0,0.1,0,0.2,0v-3h-18.6
		c-3.2-3.3-10-7-15.6-5.5c-12,3.2-13,6-13,13.5c0,7.5,1,10.8,14.5,13.5c5.7,1.2,10.9-2.2,14.1-5.5h18.6v-3.1c-0.1,0-0.1,0-0.2,0
		H372.2z"/>
	<path stroke="#D0D8DC" stroke-miterlimit="10" d="M405,211.8h-32.8c-2.9,0-5.2,2.2-5.2,5s2.3,5,5.2,5H405c0.1,0,0.1,0,0.2,0v-10
		C405.1,211.8,405.1,211.8,405,211.8z"/>
</g>
<rect x="405.2" y="212.7" fill="#D0D8DC" stroke="#000000" stroke-miterlimit="10" width="7.8" height="8"/>
<g>
	<path stroke="#000000" stroke-miterlimit="10" d="M389.4,21.2c0-2.9,2.2-5.2,5-5.2s5,2.3,5,5.2V54c0,0.1,0,0.1,0,0.2h3V35.6
		c3.3-3.2,7-10,5.5-15.6c-3.2-12-6-13-13.5-13c-7.5,0-10.8,1-13.5,14.5c-1.2,5.7,2.2,10.9,5.5,14.1v18.6h3.1c0-0.1,0-0.1,0-0.2V21.2
		z"/>
	<path stroke="#D0D8DC" stroke-miterlimit="10" d="M399.4,54V21.2c0-2.9-2.2-5.2-5-5.2s-5,2.3-5,5.2V54c0,0.1,0,0.1,0,0.2h10
		C399.4,54.1,399.4,54.1,399.4,54z"/>
</g>
<rect x="390.5" y="54.2" fill="#D0D8DC" stroke="#000000" stroke-miterlimit="10" width="8" height="7.8"/>
<g>
	<path stroke="#000000" stroke-miterlimit="10" d="M421.8,47.8c0,2.9-2.2,5.2-5,5.2c-2.7,0-5-2.3-5-5.2V15c0-0.1,0-0.1,0-0.2h-3
		v18.6c-3.3,3.2-7,10-5.5,15.6c3.3,12,6,13,13.5,13c7.5,0,10.8-1,13.5-14.5c1.2-5.7-2.2-10.9-5.5-14.1V14.8h-3.1c0,0.1,0,0.1,0,0.2
		V47.8z"/>
	<path stroke="#D0D8DC" stroke-miterlimit="10" d="M411.8,15v32.8c0,2.9,2.2,5.2,5,5.2c2.8,0,5-2.3,5-5.2V15c0-0.1,0-0.1,0-0.2h-10
		C411.8,14.9,411.8,14.9,411.8,15z"/>
</g>
<rect x="412.7" y="7" fill="#D0D8DC" stroke="#000000" stroke-miterlimit="10" width="8" height="7.8"/>
<g>
	<path stroke="#000000" stroke-miterlimit="10" d="M434.4,21.2c0-2.9,2.2-5.2,5-5.2s5,2.3,5,5.2V54c0,0.1,0,0.1,0,0.2h3V35.6
		c3.3-3.2,7-10,5.5-15.6c-3.2-12-6-13-13.5-13c-7.5,0-10.8,1-13.5,14.5c-1.2,5.7,2.2,10.9,5.5,14.1v18.6h3.1c0-0.1,0-0.1,0-0.2V21.2
		z"/>
	<path stroke="#D0D8DC" stroke-miterlimit="10" d="M444.4,54V21.2c0-2.9-2.2-5.2-5-5.2s-5,2.3-5,5.2V54c0,0.1,0,0.1,0,0.2h10
		C444.4,54.1,444.4,54.1,444.4,54z"/>
</g>
<rect x="435.5" y="54.2" fill="#D0D8DC" stroke="#000000" stroke-miterlimit="10" width="8" height="7.8"/>
<rect x="84.5" y="47" fill="none" width="66" height="104"/>
<polygon fill="none" points="360.5,166 360.5,12 170.5,12 170.5,166 258,166 "/>
<path fill="#FFFFFF" stroke="#000000" stroke-miterlimit="10" d="M134,166h17.9c-0.9-1.5-1.4-3.2-1.4-5v-10h-66V47h66V28.4
	c-1.5-0.9-3.2-1.4-5-1.4h-56c-5.5,0-10,4.5-10,10v124c0,5.5,4.5,10,10,10h35.8C127.1,168,130.3,166,134,166z"/>
<path fill="#FFFFFF" stroke="#000000" stroke-miterlimit="10" d="M153,167.6c-0.4-0.5-0.8-1-1.1-1.6H134c-3.7,0-6.9,2-8.6,5h20.2
	C148.5,171,151.2,169.7,153,167.6z"/>
<path fill="#FFFFFF" stroke="#000000" stroke-miterlimit="10" d="M442,62h-56c-2,0-3.9,0.6-5.5,1.6V161c0,3.5-1.8,6.6-4.5,8.4V196
	c0,5.5,4.5,10,10,10h56c5.5,0,10-4.5,10-10V72C452,66.5,447.5,62,442,62z M447,186h-66V82h66V186z"/>
<path fill="#FFFFFF" stroke="#000000" stroke-miterlimit="10" d="M380.5,63.6V17c0-5.5-4.5-10-10-10h-210c-5.5,0-10,4.5-10,10v11.4
	c3,1.7,5,5,5,8.6v124c0,1.8-0.5,3.5-1.4,5h16.4V12h190v154H258c3.7,0,6.9,2,8.6,5h103.9c2,0,3.9-0.6,5.5-1.6V72
	C376,68.5,377.8,65.4,380.5,63.6z"/>
<path fill="#FFFFFF" stroke="#000000" stroke-miterlimit="10" d="M380.5,161V63.6c-2.7,1.8-4.5,4.9-4.5,8.4v97.4
	C378.7,167.6,380.5,164.5,380.5,161z"/>
<path fill="#FFFFFF" stroke="#000000" stroke-miterlimit="10" d="M150.5,151v10c0,1.8,0.5,3.5,1.4,5h2.3c0.9-1.5,1.4-3.2,1.4-5V37
	c0-3.7-2-6.9-5-8.6V47V151z"/>
<path fill="#FFFFFF" stroke="#000000" stroke-miterlimit="10" d="M258,166h-87.5h-16.4c-0.3,0.6-0.7,1.1-1.1,1.6
	c1.8,2.1,4.5,3.4,7.5,3.4h106.1C264.9,168,261.7,166,258,166z"/>
<path fill="#FFFFFF" stroke="#000000" stroke-miterlimit="10" d="M153,167.6c0.4-0.5,0.8-1,1.1-1.6h-2.3
	C152.2,166.6,152.6,167.1,153,167.6z"/>
<circle cx="159.5" cy="89" r="2"/>
<circle fill="none" stroke="#000000" stroke-miterlimit="10" cx="370.5" cy="89" r="5"/>
<g>
	<polygon fill="#FFF278" stroke="#000000" stroke-miterlimit="10" points="493,105 452,105 452,146 463.4,146 464.2,142.5 
		464.2,142.5 464.2,142.5 464.2,142.5 470.2,133.6 472,144.2 472,144.2 472,144.2 472,144.2 471.6,146 493,146 	"/>
	<polyline fill="none" stroke="#000000" stroke-miterlimit="10" points="463.4,146 448.9,213.9 456.8,215.6 471.6,146 	"/>
	
		<rect x="448" y="214.7" transform="matrix(-0.9779 -0.209 0.209 -0.9779 848.3515 526.9641)" fill="none" stroke="#000000" stroke-miterlimit="10" width="8" height="8"/>
	<path fill="none" stroke="#000000" stroke-miterlimit="10" d="M446.4,225.7c-0.4,1.9,1.3,3.9,3.2,4.3c1.9,0.4,4.2-0.7,4.6-2.6
		l0.8-3.9l-7.8-1.7L446.4,225.7z"/>
</g>
<g>
	<polygon fill="none" stroke="#000000" stroke-miterlimit="10" points="-22,50 -34,50 -34,45 -34,36 -22,36 -22,45 	"/>
	<rect x="-33" y="28" fill="none" stroke="#000000" stroke-miterlimit="10" width="10" height="8"/>
	<rect x="-31" y="50" fill="none" stroke="#000000" stroke-miterlimit="10" width="6" height="3.2"/>
</g>
<g>
	<polygon fill="none" stroke="#000000" stroke-miterlimit="10" points="-46,41 -54,41 -54,39 -54,30 -46,30 -46,39 	"/>
	<rect x="-53" y="25" fill="none" stroke="#000000" stroke-miterlimit="10" width="6" height="5"/>
	<rect x="-52" y="41" fill="none" stroke="#000000" stroke-miterlimit="10" width="4" height="5"/>
</g>
<g>
	<polygon fill="none" stroke="#000000" stroke-miterlimit="10" points="45,67.4 33.2,69.7 32.3,64.8 30.6,56 42.3,53.7 44.1,62.5 	
		"/>
	
		<rect x="30.7" y="46.9" transform="matrix(0.9814 -0.1919 0.1919 0.9814 -9.1037 7.7936)" fill="none" stroke="#000000" stroke-miterlimit="10" width="10" height="8"/>
	
		<rect x="36.4" y="68.5" transform="matrix(0.9814 -0.1919 0.1919 0.9814 -12.7239 8.8718)" fill="none" stroke="#000000" stroke-miterlimit="10" width="6" height="3.2"/>
</g>
<g>
	<polygon fill="none" stroke="#000000" stroke-miterlimit="10" points="480.4,62.8 473.6,58.6 474.7,56.9 479.4,49.2 486.2,53.5 
		481.5,61.1 	"/>
	
		<rect x="481.1" y="46.7" transform="matrix(0.8501 0.5266 -0.5266 0.8501 98.4953 -247.5822)" fill="none" stroke="#000000" stroke-miterlimit="10" width="6" height="5"/>
	
		<rect x="473.7" y="60.3" transform="matrix(0.85 0.5268 -0.5268 0.85 104.4505 -241.173)" fill="none" stroke="#000000" stroke-miterlimit="10" width="4" height="5"/>
</g>
<line fill="none" stroke="#000000" stroke-miterlimit="10" x1="110.8" y1="37" x2="124.3" y2="37"/>
<circle cx="104.1" cy="37" r="2"/>
<circle cx="117.5" cy="32.5" r="1.5"/>
<circle fill="none" stroke="#000000" stroke-miterlimit="10" cx="117.5" cy="161" r="5"/>
<line fill="none" stroke="#000000" stroke-miterlimit="10" x1="407.2" y1="72" x2="420.8" y2="72"/>
<circle cx="400.5" cy="72" r="2"/>
<circle cx="414" cy="67.5" r="1.5"/>
<circle fill="none" stroke="#000000" stroke-miterlimit="10" cx="414" cy="196" r="5"/>
<g>
	<path fill="#FFFFFF" stroke="#000000" stroke-miterlimit="10" d="M153,167.6c-1.8,2.1-4.5,3.4-7.5,3.4h15
		C157.6,171,154.9,169.7,153,167.6z"/>
	<path fill="#FFFFFF" stroke="#000000" stroke-miterlimit="10" d="M266.6,171H248v66H144v-66h-18.6c-0.9,1.5-1.4,3.2-1.4,5v56
		c0,5.5,4.5,10,10,10h124c5.5,0,10-4.5,10-10v-56C268,174.2,267.5,172.5,266.6,171z"/>
</g>
<line fill="none" stroke="#000000" stroke-miterlimit="10" x1="258" y1="197.2" x2="258" y2="210.8"/>
<circle cx="258" cy="190.5" r="2"/>
<circle cx="262.5" cy="204" r="1.5"/>
<circle fill="none" stroke="#000000" stroke-miterlimit="10" cx="134" cy="204" r="5"/>
<path fill="none" stroke="#D0D8DC" stroke-width="4" stroke-miterlimit="10" d="M40,74c0,0,25,160,112,135s55-107,138-112
	c62.4-3.8,136,46,183-30"/>
</svg>
