<?xml version="1.0" encoding="utf-8"?>
<!-- Generator: Adobe Illustrator 18.0.0, SVG Export Plug-In . SVG Version: 6.00 Build 0)  -->
<!DOCTYPE svg PUBLIC "-//W3C//DTD SVG 1.1//EN" "http://www.w3.org/Graphics/SVG/1.1/DTD/svg11.dtd">
<svg version="1.1" id="Layer_1" xmlns="http://www.w3.org/2000/svg" xmlns:xlink="http://www.w3.org/1999/xlink" x="0px" y="0px"
	 viewBox="0 0 500 250" enable-background="new 0 0 500 250" xml:space="preserve">
<g>
	<path fill="#D0D8DC" d="M0.7,234.7c5.5,3.4,14,0.8,20,0c5-0.6,9.6,1.7,14.5,1.1c2.9-0.3,5.3-1.6,8.3-0.9c4.5,1.1,10.8,3.3,15.2,1
		c2.7-1.4,4.1-1.3,7.2-0.7c2,0.4,4.1,0.6,6.2,0.7c2.2,0.1,3.6-1.1,5.7-1.5c2.1-0.4,4.3,0.2,6.3,0.7c0.9,0.2,4.6,1.4,5.6,0.6
		c2.3-1.9-5.5-5.4-6.9-5.8c-2.3-0.7-4.6-1-6.6,0.6c-1.3,1-2.2,1.8-3.8,2.4c-1.6,0.6-3.6,1.2-5.3,0.7c-2.5-0.7-4.3-3.2-6.9-3.7
		c-2.3-0.4-3.5,1.3-5.2,2.3c-1.6,1-3.4,1.1-5.2,1.2c-4.6,0.2-8.5-4.3-13-1.6c-2.6,1.6-3.4,2.3-6.9,2c-2.9-0.3-5.3-2-8.3-2.5
		c-1.4-0.2-3.8-1-5.2-0.4c-0.9,0.4-1.8,1.7-2.9,2.1c-2.2,0.9-4.2,0.8-6.4-0.2c-2.1-0.9-4.2-3.5-6.5-3.5c-1.9,0-2.4,1.5-1.8,3.2
		c0.3,0.7,0.6,1.3,1.3,1.5"/>
	<g>
		<path fill="#90A4AE" stroke="#000000" stroke-miterlimit="10" d="M90,0v233c-5.1,0-4.9-4-10-4c-5,0-5,4-10,4c-5,0-5-4-10-4
			c-5,0-5,4-10,4c-5,0-5-4-10-4c-5,0-5,4-10,4c-5,0-5-4-10-4c-5,0-5,4-10,4c-5,0-5-4-10-4V0H90z"/>
		<line fill="#B3B5B8" stroke="#000000" stroke-miterlimit="10" x1="83" y1="168" x2="83" y2="230"/>
		<line fill="#B3B5B8" stroke="#000000" stroke-miterlimit="10" x1="75" y1="189" x2="75" y2="231"/>
		<line fill="#B3B5B8" stroke="#000000" stroke-miterlimit="10" x1="24" y1="188" x2="24" y2="230"/>
		<line fill="#B3B5B8" stroke="#000000" stroke-miterlimit="10" x1="16" y1="178" x2="16" y2="230"/>
		<line fill="#B3B5B8" stroke="#000000" stroke-miterlimit="10" x1="45" y1="209" x2="45" y2="231"/>
		<line fill="#B3B5B8" stroke="#000000" stroke-miterlimit="10" x1="62.8" y1="179" x2="62.8" y2="229.8"/>
		<line fill="#B3B5B8" stroke="#000000" stroke-miterlimit="10" x1="36" y1="159" x2="36" y2="229.8"/>
	</g>
</g>
<g>
	<path fill="#D0D8DC" d="M410.5,235.5c1.1-0.4,2.2,0,3.2-0.2c1-0.2,1.9-1.1,2.9-1.5c2.4-0.9,3.8,0.1,6.1,0.8c2.3,0.7,5,1.2,7.5,1.4
		c2.9,0.3,5.1-1,7.7-1.5c4.8-0.9,8.1,1.3,12.8,1.8c5.5,0.5,9.3-2.6,15-2.3c5,0.3,8.9,3,13.9,2c2.2-0.5,4-1.1,6.3-0.5
		c2.5,0.7,4.8,1.7,7.5,1.8c2.8,0.1,9.5-2,7.3-5.8c-2.6-4.5-7.7,1.5-11.1,0.8c-4-0.9-5.4-5.7-10.3-3.8c-2,0.7-3.1,2.8-4.9,3.6
		c-2.3,1-6,0.1-8.1-0.9c-2.6-1.3-4-2.2-7.1-2.1c-3,0.2-2.4,1.5-4.5,3c-4.5,3.4-10.1,0-14-2.3c-3.7-2.1-4.3,1.2-7.3,2.3
		c-3.5,1.3-7.1-2.3-10.2-3.3c-2.9-0.9-5.3-0.1-7.9,1.5c-2,1.2-5.6,2.5-5.9,5.1c1.3,0.9,3.6,0.6,4.2-1"/>
	<g>
		<path fill="#90A4AE" stroke="#000000" stroke-miterlimit="10" d="M410,0v233c5.1,0,4.9-4,10-4c5,0,5,4,10,4c5,0,5-4,10-4
			c5,0,5,4,10,4c5,0,5-4,10-4c5,0,5,4,10,4c5,0,5-4,10-4c5,0,5,4,10,4c5,0,5-4,10-4V0H410z"/>
		<line fill="none" stroke="#000000" stroke-miterlimit="10" x1="417" y1="168" x2="417" y2="230"/>
		<line fill="none" stroke="#000000" stroke-miterlimit="10" x1="425" y1="189" x2="425" y2="231"/>
		<line fill="none" stroke="#000000" stroke-miterlimit="10" x1="476" y1="188" x2="476" y2="230"/>
		<line fill="none" stroke="#000000" stroke-miterlimit="10" x1="484" y1="178" x2="484" y2="230"/>
		<line fill="none" stroke="#000000" stroke-miterlimit="10" x1="455" y1="209" x2="455" y2="231"/>
		<line fill="none" stroke="#000000" stroke-miterlimit="10" x1="437.2" y1="179" x2="437.2" y2="229.8"/>
		<line fill="none" stroke="#000000" stroke-miterlimit="10" x1="464" y1="159" x2="464" y2="229.8"/>
	</g>
</g>
<g>
	<g>
		<line fill="none" stroke="#000000" stroke-miterlimit="10" x1="110" y1="30" x2="110" y2="163"/>
		<path fill="none" stroke="#000000" stroke-miterlimit="10" d="M115,134.9c0,9.4,0,18.8,0,28.1"/>
		<path fill="none" stroke="#000000" stroke-miterlimit="10" d="M115,30c0,33,0,65,0,97.6"/>
		<path fill="none" stroke="#000000" stroke-miterlimit="10" d="M120,110.4c0,17.5,0,35.1,0,52.6"/>
		<path fill="none" stroke="#000000" stroke-miterlimit="10" d="M120,72.5c0,10.3,0,20.7,0,31"/>
		<path fill="none" stroke="#000000" stroke-miterlimit="10" d="M120,30c0,11.9,0,23.8,0,35.7"/>
		<path fill="none" stroke="#000000" stroke-miterlimit="10" d="M125,102.8c0,20.2,0,40.2,0,60.2"/>
		<path fill="none" stroke="#000000" stroke-miterlimit="10" d="M125,30c0,22,0,44,0,66.1"/>
		<path fill="none" stroke="#000000" stroke-miterlimit="10" d="M130,47.8c0,38.2,0,77.2,0,115.2"/>
		<path fill="none" stroke="#000000" stroke-miterlimit="10" d="M130,30c0,3.7,0,7.4,0,11"/>
		<line fill="none" stroke="#000000" stroke-miterlimit="10" x1="135" y1="30" x2="135" y2="163"/>
		<path fill="none" stroke="#000000" stroke-miterlimit="10" d="M140,123.3c0,13.2,0,26.5,0,39.7"/>
		<path fill="none" stroke="#000000" stroke-miterlimit="10" d="M140,73.5c0,14,0,28.1,0,42.1"/>
		<path fill="none" stroke="#000000" stroke-miterlimit="10" d="M140,30c0,12.2,0,24.5,0,36.7"/>
		<line fill="none" stroke="#000000" stroke-miterlimit="10" x1="145" y1="30" x2="145" y2="163"/>
		<path fill="none" stroke="#000000" stroke-miterlimit="10" d="M150,104.9c0,19.1,0,39.1,0,58.1"/>
		<path fill="none" stroke="#000000" stroke-miterlimit="10" d="M150,30c0,23,0,45,0,67.9"/>
		<path fill="none" stroke="#000000" stroke-miterlimit="10" d="M155,59.9c0,34.1,0,69.1,0,103.1"/>
		<path fill="none" stroke="#000000" stroke-miterlimit="10" d="M155,30c0,7.7,0,15.4,0,23.1"/>
		<line fill="none" stroke="#000000" stroke-miterlimit="10" x1="160" y1="30" x2="160" y2="163"/>
		<path fill="none" stroke="#000000" stroke-miterlimit="10" d="M165,155.9c0,5.7,0,11.4,0,17.1"/>
		<path fill="none" stroke="#000000" stroke-miterlimit="10" d="M165,108.7c0,13.3,0,26.6,0,40"/>
		<path fill="none" stroke="#000000" stroke-miterlimit="10" d="M165,30c0,21,0,43,0,63.7"/>
		<path fill="none" stroke="#000000" stroke-miterlimit="10" d="M170,122.4c0,16.9,0,33.8,0,50.6"/>
		<path fill="none" stroke="#000000" stroke-miterlimit="10" d="M170,112.5c0,1,0,2.1,0,3.1"/>
		<path fill="none" stroke="#000000" stroke-miterlimit="10" d="M170,30c0,18,0,37,0,55"/>
		<path fill="none" stroke="#000000" stroke-miterlimit="10" d="M175,114.5c0,15.5,0,32.5,0,48.5"/>
		<path fill="none" stroke="#000000" stroke-miterlimit="10" d="M175,43.8c0,11.9,0,23.8,0,35.7"/>
		<path fill="none" stroke="#000000" stroke-miterlimit="10" d="M175,30c0,2.1,0,4.2,0,6.2"/>
		<path fill="none" stroke="#000000" stroke-miterlimit="10" d="M180,115.8c0,16.2,0,31.2,0,47.2"/>
		<path fill="none" stroke="#000000" stroke-miterlimit="10" d="M180,30c0,15,0,31,0,46.1"/>
		<path fill="none" stroke="#000000" stroke-miterlimit="10" d="M185,136.3c0,8.9,0,17.8,0,26.7"/>
		<path fill="none" stroke="#000000" stroke-miterlimit="10" d="M185,117.2c0,3.9,0,7.9,0,11.8"/>
		<path fill="none" stroke="#000000" stroke-miterlimit="10" d="M185,64.9c0,2.1,0,4.2,0,6.3"/>
		<path fill="none" stroke="#000000" stroke-miterlimit="10" d="M185,30c0,9.1,0,18.2,0,27.2"/>
		<path fill="none" stroke="#000000" stroke-miterlimit="10" d="M190,118.2c0,14.8,0,29.8,0,44.8"/>
		<path fill="none" stroke="#000000" stroke-miterlimit="10" d="M190,30c0,11.5,0,23,0,34.6"/>
		<path fill="none" stroke="#000000" stroke-miterlimit="10" d="M195,119.8c0,14.4,0,28.8,0,43.2"/>
		<path fill="none" stroke="#000000" stroke-miterlimit="10" d="M195,30c0,10,0,19.9,0,29.9"/>
		<path fill="none" stroke="#000000" stroke-miterlimit="10" d="M200,120.5c0,14.2,0,28.3,0,42.5"/>
		<path fill="none" stroke="#000000" stroke-miterlimit="10" d="M200,30c0,8.8,0,17.7,0,26.5"/>
		<path fill="none" stroke="#000000" stroke-miterlimit="10" d="M205,121.1c0,14,0,28,0,41.9"/>
		<path fill="none" stroke="#000000" stroke-miterlimit="10" d="M205,30c0,8.1,0,16.2,0,24.3"/>
		<path fill="none" stroke="#000000" stroke-miterlimit="10" d="M210,121.3c0,13.9,0,27.8,0,41.7"/>
		<path fill="none" stroke="#000000" stroke-miterlimit="10" d="M210,30c0,7.4,0,14.8,0,22.2"/>
		<path fill="none" stroke="#000000" stroke-miterlimit="10" d="M215,121.9c0,13.7,0,27.4,0,41.1"/>
		<path fill="none" stroke="#000000" stroke-miterlimit="10" d="M215,30c0,6.9,0,13.7,0,20.6"/>
		<path fill="none" stroke="#000000" stroke-miterlimit="10" d="M220,122.6c0,13.5,0,26.9,0,40.4"/>
		<path fill="none" stroke="#000000" stroke-miterlimit="10" d="M220,30c0,6.5,0,13,0,19.5"/>
		<path fill="none" stroke="#000000" stroke-miterlimit="10" d="M225,122.6c0,13.5,0,26.9,0,40.4"/>
		<path fill="none" stroke="#000000" stroke-miterlimit="10" d="M225,30c0,6,0,12.1,0,18.1"/>
		<path fill="none" stroke="#000000" stroke-miterlimit="10" d="M230,121.6c0,13.8,0,27.6,0,41.4"/>
		<path fill="none" stroke="#000000" stroke-miterlimit="10" d="M230,30c0,5.7,0,11.4,0,17.2"/>
		<path fill="none" stroke="#000000" stroke-miterlimit="10" d="M235,120.5c0,14.2,0,28.3,0,42.5"/>
		<path fill="none" stroke="#000000" stroke-miterlimit="10" d="M235,30c0,6.1,0,12.3,0,18.4"/>
		<path fill="none" stroke="#000000" stroke-miterlimit="10" d="M240,118.9c0,15.1,0,29.1,0,44.1"/>
		<path fill="none" stroke="#000000" stroke-miterlimit="10" d="M240,30c0,6.1,0,12.1,0,18.2"/>
		<path fill="none" stroke="#000000" stroke-miterlimit="10" d="M245,116.9c0,15.1,0,31.1,0,46.1"/>
		<path fill="none" stroke="#000000" stroke-miterlimit="10" d="M245,30c0,6.2,0,12.4,0,18.6"/>
		<path fill="none" stroke="#000000" stroke-miterlimit="10" d="M250,114.8c0,16.2,0,32.2,0,48.2"/>
		<path fill="none" stroke="#000000" stroke-miterlimit="10" d="M250,40.3c0,2.7,0,5.5,0,8.2"/>
		<path fill="none" stroke="#000000" stroke-miterlimit="10" d="M255,112.1c0,16.9,0,33.9,0,50.9"/>
		<path fill="none" stroke="#000000" stroke-miterlimit="10" d="M255,30c0,6.7,0,13.4,0,20"/>
		<path fill="none" stroke="#000000" stroke-miterlimit="10" d="M260,109c0,18,0,36,0,54"/>
		<path fill="none" stroke="#000000" stroke-miterlimit="10" d="M260,30c0,7.2,0,14.4,0,21.5"/>
		<path fill="none" stroke="#000000" stroke-miterlimit="10" d="M265,104.9c0,19.1,0,39.1,0,58.1"/>
		<path fill="none" stroke="#000000" stroke-miterlimit="10" d="M265,30c0,8.2,0,16.4,0,24.6"/>
		<path fill="none" stroke="#000000" stroke-miterlimit="10" d="M270,100.7c0,21.3,0,41.3,0,62.3"/>
		<path fill="none" stroke="#000000" stroke-miterlimit="10" d="M270,30c0,9.1,0,18.2,0,27.3"/>
		<path fill="none" stroke="#000000" stroke-miterlimit="10" d="M275,96.1c0,21.9,0,44.9,0,66.9"/>
		<path fill="none" stroke="#000000" stroke-miterlimit="10" d="M275,30c0,9.2,0,18.4,0,27.6"/>
		<path fill="none" stroke="#000000" stroke-miterlimit="10" d="M280,91.6c0,24.4,0,47.4,0,71.4"/>
		<path fill="none" stroke="#000000" stroke-miterlimit="10" d="M280,30c0,9.5,0,19,0,28.4"/>
		<path fill="none" stroke="#000000" stroke-miterlimit="10" d="M285,87.4c0,24.6,0,50.6,0,75.6"/>
		<path fill="none" stroke="#000000" stroke-miterlimit="10" d="M285,30c0,9.9,0,19.7,0,29.6"/>
		<path fill="none" stroke="#000000" stroke-miterlimit="10" d="M290,82.9c0,27.1,0,53.1,0,80.1"/>
		<path fill="none" stroke="#000000" stroke-miterlimit="10" d="M290,30c0,10.6,0,21.1,0,31.7"/>
		<path fill="none" stroke="#000000" stroke-miterlimit="10" d="M295,132.4c0,10.2,0,20.4,0,30.6"/>
		<path fill="none" stroke="#000000" stroke-miterlimit="10" d="M295,76.1c0,16.2,0,32.4,0,48.6"/>
		<path fill="none" stroke="#000000" stroke-miterlimit="10" d="M295,48.8c0,6,0,12.1,0,18.1"/>
		<path fill="none" stroke="#000000" stroke-miterlimit="10" d="M295,30c0,3.7,0,7.4,0,11.2"/>
		<line fill="none" stroke="#000000" stroke-miterlimit="10" x1="300" y1="30" x2="300" y2="163"/>
		<path fill="none" stroke="#000000" stroke-miterlimit="10" d="M305,116.9c0,15.1,0,31.1,0,46.1"/>
		<path fill="none" stroke="#000000" stroke-miterlimit="10" d="M305,30c0,27,0,53,0,80.1"/>
		<line fill="none" stroke="#000000" stroke-miterlimit="10" x1="310" y1="30" x2="310" y2="163"/>
		<path fill="none" stroke="#000000" stroke-miterlimit="10" d="M315,94.8c0,23.2,0,45.2,0,68.2"/>
		<path fill="none" stroke="#000000" stroke-miterlimit="10" d="M315,30c0,19,0,39,0,58.1"/>
		<path fill="none" stroke="#000000" stroke-miterlimit="10" d="M320,72.5c0,29.5,0,60.5,0,90.5"/>
		<path fill="none" stroke="#000000" stroke-miterlimit="10" d="M320,30c0,11.9,0,23.8,0,35.7"/>
		<line fill="none" stroke="#000000" stroke-miterlimit="10" x1="325" y1="30" x2="325" y2="163"/>
		<line fill="none" stroke="#000000" stroke-miterlimit="10" x1="330" y1="30" x2="330" y2="163"/>
		<line fill="none" stroke="#000000" stroke-miterlimit="10" x1="335" y1="30" x2="335" y2="163"/>
		<path fill="none" stroke="#000000" stroke-miterlimit="10" d="M340,102.4c0,20.2,0,40.4,0,60.6"/>
		<path fill="none" stroke="#000000" stroke-miterlimit="10" d="M340,56.4c0,12.8,0,25.6,0,38.4"/>
		<path fill="none" stroke="#000000" stroke-miterlimit="10" d="M340,30c0,6.4,0,12.7,0,19.1"/>
		<path fill="none" stroke="#000000" stroke-miterlimit="10" d="M345,132.5c0,10.2,0,20.3,0,30.5"/>
		<path fill="none" stroke="#000000" stroke-miterlimit="10" d="M345,30c0,32,0,64,0,95.7"/>
		<path fill="none" stroke="#000000" stroke-miterlimit="10" d="M350,84.3c0,25.7,0,52.7,0,78.7"/>
		<path fill="none" stroke="#000000" stroke-miterlimit="10" d="M350,30c0,16,0,31,0,47.2"/>
		<line fill="none" stroke="#000000" stroke-miterlimit="10" x1="355" y1="30" x2="355" y2="163"/>
		<path fill="none" stroke="#000000" stroke-miterlimit="10" d="M360,65.4c0,32.6,0,64.6,0,97.6"/>
		<path fill="none" stroke="#000000" stroke-miterlimit="10" d="M360,30c0,9.4,0,18.8,0,28.1"/>
		<path fill="none" stroke="#000000" stroke-miterlimit="10" d="M365,41.3c0,40.7,0,80.7,0,121.7"/>
		<path fill="none" stroke="#000000" stroke-miterlimit="10" d="M365,30c0,1.6,0,3.1,0,4.7"/>
		<path fill="none" stroke="#000000" stroke-miterlimit="10" d="M370,97.9c0,22.1,0,43.1,0,65.1"/>
		<path fill="none" stroke="#000000" stroke-miterlimit="10" d="M370,30c0,20,0,41,0,60.9"/>
		<path fill="none" stroke="#000000" stroke-miterlimit="10" d="M375,59c0,35,0,69,0,104"/>
		<path fill="none" stroke="#000000" stroke-miterlimit="10" d="M375,30c0,7.4,0,14.8,0,22.2"/>
		<line fill="none" stroke="#000000" stroke-miterlimit="10" x1="380" y1="30" x2="380" y2="163"/>
		<path fill="none" stroke="#000000" stroke-miterlimit="10" d="M385,85c0,26,0,52,0,78"/>
		<path fill="none" stroke="#000000" stroke-miterlimit="10" d="M385,30c0,16,0,31,0,47.2"/>
		<path fill="none" stroke="#000000" stroke-miterlimit="10" d="M390,47.8c0,38.2,0,77.2,0,115.2"/>
		<path fill="none" stroke="#000000" stroke-miterlimit="10" d="M390,30c0,3.4,0,6.8,0,10.2"/>
		<path fill="none" stroke="#000000" stroke-miterlimit="10" d="M395,163"/>
		<path fill="none" stroke="#000000" stroke-miterlimit="10" d="M395,30"/>
	</g>
	<g>
		<path fill="#D0D8DC" d="M263,160.8c6.6,0.5,14.8-8.8,21-10.8c12.8-5.1,24-15,38.3-15c12.3,0,22,11.1,33.7,8
			c13.8-3.6,22.5-2.5,34.8,5.6c11.2,7.1,4.6,21.3,6.1,33.5c0.5,4.6,4.6,14.2,1.5,18.3c-2.6,3.6-13.3,3-17.4,3.6
			c-11.8,1-23.5-0.5-35.8,0c-12.3,0.5-24.5,3-36.3,0c-23-6.1-40.4-23.4-44-47.2"/>
	</g>
	<g>
		<path fill="#D0D8DC" d="M106.3,155.2c11.5-2.1,15.5-14.5,28.5-9.8c12,4.1,19.5,22.2,32,20.2c5-1,11.5-5.2,17-6.7
			c6.5-2.1,12.5-8.8,19.5-9.8c11.5-1,23,3.1,34.5,5.7c23.5,5.2,11.5,31,24,45.5c-9,4.7-22.5,4.1-32,4.7c-13.5,0.5-27.5-0.5-41,0
			c-14.5,0.5-29.5-1.6-44.5-2.1c-10-0.5-28,2.6-36.5-2.1c-8-4.1-7-21.7-6.5-30c0.5-8.8,6-17.1,7-23.3"/>
	</g>
	<rect x="105" y="30" fill="none" stroke="#000000" stroke-miterlimit="10" width="290" height="190"/>
	<g>
		<path fill="none" stroke="#000000" stroke-miterlimit="10" d="M290.8,70.9c0.6,2.3-7.6,12.3-21.6,21.7c0-0.1,0-0.2,0-0.3
			c-0.8-3.1-19.3-8.8-39.2-3.9c-19.9,5-33.6,18.7-32.8,21.8c0,0.1,0.1,0.2,0.1,0.2c-16.8-1.8-28.7-6.8-29.3-9
			c-1.3-5.3,22-28.7,55.9-37.2C257.9,55.9,289.5,65.6,290.8,70.9z"/>
		<path fill="none" stroke="#000000" stroke-miterlimit="10" d="M168.1,101.8c-0.8-3.2,24.3-20.1,58.3-28.5l-0.4,0.1
			c34-8.5,64.1-5.3,64.9-2.1"/>
		<path fill="none" stroke="#000000" stroke-miterlimit="10" d="M269.2,92.3c0,0.1,0,0.2,0,0.3c-0.4,2.9-13.6,16.7-32.7,21.5
			l-0.2,0.1c-16.4,4-34.5,2.5-38.9-3.7c-0.1-0.1-0.1-0.2-0.1-0.2c-0.8-3.1,12.9-16.8,32.8-21.8C249.9,83.5,268.4,89.3,269.2,92.3z"
			/>
		<path fill="none" stroke="#000000" stroke-miterlimit="10" d="M189.5,79.3c-0.8-3.1,13-16.9,32.9-21.8l-0.2,0.1
			c19.9-5,38.5,0.8,39.3,3.9"/>
	</g>
	<path fill="#FFF278" stroke="#000000" stroke-miterlimit="10" d="M237,114l66,97c0,2.2-9,4-20,4s-20-1.8-20-4L237,114"/>
	<path fill="none" stroke="#000000" stroke-miterlimit="10" d="M263,211c0-2.2,9-4,20-4s20,1.8,20,4"/>
	<polyline fill="none" stroke="#000000" stroke-miterlimit="10" points="104,158 127,145 163,169 204,150 249,159 	"/>
	<polyline fill="none" stroke="#000000" stroke-miterlimit="10" points="267,159 322,136 353,146 372,137 394,152 	"/>
	<line fill="none" stroke="#000000" stroke-miterlimit="10" x1="105" y1="202" x2="260" y2="202"/>
	<line fill="none" stroke="#000000" stroke-miterlimit="10" x1="296" y1="201" x2="395" y2="201"/>
</g>
<path fill="none" stroke="#000000" stroke-miterlimit="10" d="M439,239h61V0H0v239h60c5.5,0,10.2,4.7,11.6,11h3.9
	c1.4-6.3,6-11,11.6-11h62c5.5,0,10.2,4.7,11.6,11h2.9c1.4-6.3,6-11,11.6-11h62c5.5,0,10.2,4.7,11.6,11h2.9c1.4-6.3,6-11,11.6-11h62
	c5.5,0,10.2,4.7,11.6,11h2.9c1.4-6.3,6-11,11.6-11h62c5.5,0,10.2,4.7,11.6,11h2.9C428.8,243.7,433.5,239,439,239z"/>
<g>
	<line fill="none" stroke="#000000" stroke-miterlimit="10" x1="160.6" y1="250" x2="75.4" y2="250"/>
	<line fill="none" stroke="#000000" stroke-miterlimit="10" x1="336.6" y1="250" x2="251.4" y2="250"/>
	<polyline fill="none" stroke="#000000" stroke-miterlimit="10" points="71.6,250 0,250 0,239 	"/>
	<line fill="none" stroke="#000000" stroke-miterlimit="10" x1="248.6" y1="250" x2="163.4" y2="250"/>
	<line fill="none" stroke="#000000" stroke-miterlimit="10" x1="424.6" y1="250" x2="339.4" y2="250"/>
	<polyline fill="none" stroke="#000000" stroke-miterlimit="10" points="500,239 500,250 427.4,250 	"/>
</g>
</svg>
