<?xml version="1.0" encoding="utf-8"?>
<!-- Generator: Adobe Illustrator 18.0.0, SVG Export Plug-In . SVG Version: 6.00 Build 0)  -->
<!DOCTYPE svg PUBLIC "-//W3C//DTD SVG 1.1//EN" "http://www.w3.org/Graphics/SVG/1.1/DTD/svg11.dtd">
<svg version="1.1" id="Layer_1" xmlns="http://www.w3.org/2000/svg" xmlns:xlink="http://www.w3.org/1999/xlink" x="0px" y="0px"
	 viewBox="0 0 500 250" enable-background="new 0 0 500 250" xml:space="preserve">
<rect x="82.8" y="48" transform="matrix(0.968 -0.2511 0.2511 0.968 -22.2476 60.0627)" fill="#FFFFFF" stroke="#000000" stroke-miterlimit="10" width="283" height="138.4"/>
<rect x="99.5" y="134.1" transform="matrix(0.968 -0.251 0.251 0.968 -37.9493 34.6747)" fill="#D0D8DC" stroke="#E7E7E7" stroke-miterlimit="10" width="35" height="64.1"/>
<rect x="82.1" y="87.8" transform="matrix(0.968 -0.251 0.251 0.968 -21.4958 28.1463)" fill="#D0D8DC" stroke="#E7E7E7" stroke-miterlimit="10" width="35" height="21.1"/>
<rect x="303.6" y="27.3" transform="matrix(0.968 -0.251 0.251 0.968 0.8368 82.2753)" fill="#D0D8DC" width="38.6" height="21.1"/>
<rect x="88.1" y="111.8" transform="matrix(0.968 -0.251 0.251 0.968 -27.2119 30.3991)" fill="#D0D8DC" stroke="#E7E7E7" stroke-miterlimit="10" width="35" height="20.1"/>
<rect fill="none" stroke="#000000" stroke-miterlimit="10" width="500" height="250"/>
<rect x="105" y="30" fill="#FFFFFF" stroke="#000000" stroke-miterlimit="10" width="290" height="190"/>
<line fill="none" stroke="#000000" stroke-miterlimit="10" x1="114" y1="72" x2="386" y2="72"/>
<line fill="none" stroke="#000000" stroke-miterlimit="10" x1="114" y1="79" x2="386" y2="79"/>
<rect x="114" y="88" fill="#D0D8DC" stroke="#E7E7E7" stroke-miterlimit="10" width="118" height="18"/>
<rect x="114" y="119.5" fill="#D0D8DC" stroke="#E7E7E7" stroke-miterlimit="10" width="57.3" height="21.5"/>
<rect x="114" y="144.7" fill="#D0D8DC" stroke="#E7E7E7" stroke-miterlimit="10" width="57.3" height="25.3"/>
<rect x="114" y="174" fill="#D0D8DC" stroke="#E7E7E7" stroke-miterlimit="10" width="57.3" height="9.3"/>
<rect x="114" y="195.3" fill="#D0D8DC" stroke="#E7E7E7" stroke-miterlimit="10" width="57.1" height="17.3"/>
<rect x="176.7" y="166.7" fill="#D0D8DC" stroke="#E7E7E7" stroke-miterlimit="10" width="55.3" height="16.3"/>
<rect x="176.8" y="195.4" fill="#D0D8DC" stroke="#E7E7E7" stroke-miterlimit="10" width="55" height="17.3"/>
<rect x="176.7" y="120" fill="#D0D8DC" stroke="#E7E7E7" stroke-miterlimit="10" width="55.3" height="42.7"/>
<rect x="343.7" y="121.5" fill="#D0D8DC" stroke="#E7E7E7" stroke-miterlimit="10" width="42.3" height="32.5"/>
<rect x="343.7" y="158.5" fill="#D0D8DC" stroke="#E7E7E7" stroke-miterlimit="10" width="42.3" height="19.5"/>
<rect x="343.7" y="182.5" fill="#D0D8DC" stroke="#E7E7E7" stroke-miterlimit="10" width="42.3" height="29.5"/>
<rect x="237.6" y="88" fill="#90A4AE" width="148.4" height="27"/>
<rect x="170.6" y="38.8" fill="#90A4AE" width="156.4" height="25.2"/>
<rect x="114" y="38.6" fill="none" stroke="#000000" stroke-miterlimit="10" width="33" height="25"/>
<rect x="350" y="38.6" fill="#D0D8DC" stroke="#000000" stroke-miterlimit="10" width="36" height="25"/>
<rect x="238" y="122" fill="none" stroke="#000000" stroke-miterlimit="10" width="100" height="90"/>
<line fill="none" stroke="#000000" stroke-miterlimit="10" x1="144" y1="113" x2="200" y2="113"/>
<line fill="none" stroke="#000000" stroke-miterlimit="10" x1="113.9" y1="190" x2="232" y2="190"/>
<g>
	<path opacity="0.5" fill="#57A0D7" d="M265.7,142.8c0,4.2-3.4,7.5-7.6,7.5c-4.2,0-7.6-3.4-7.6-7.5c0-4.2,3.4-7.6,7.6-7.6
		C262.3,135.2,265.7,138.6,265.7,142.8z"/>
	<path opacity="0.5" fill="#57A0D7" d="M265.7,151.8c-3.6,0-15.1,0-15.1,0c-4.8,0-8.6,3.9-8.6,8.6v28.9c0,4.8,3.9,8.6,8.6,8.6h15.1
		c4.8,0,8.6-3.9,8.6-8.6V169l11.4,10.7c1.4,1.3,4,0.9,5.8-1c1.8-1.9,2.1-4.5,0.6-5.8L272,154C272,154,269.3,151.8,265.7,151.8z"/>
</g>
<g>
	<path opacity="0.5" fill="#25A69A" d="M310.3,142.8c0,4.2,3.4,7.5,7.6,7.5c4.2,0,7.6-3.4,7.6-7.5c0-4.2-3.4-7.6-7.6-7.6
		C313.6,135.2,310.3,138.6,310.3,142.8z"/>
	<path opacity="0.5" fill="#25A69A" d="M310.3,151.8c3.6,0,15.1,0,15.1,0c4.8,0,8.6,3.9,8.6,8.6v28.9c0,4.8-3.9,8.6-8.6,8.6h-15.1
		c-4.8,0-8.6-3.9-8.6-8.6V169l-11.4,10.7c-1.4,1.3-4,0.9-5.8-1c-1.8-1.9-2.1-4.5-0.6-5.8l20.1-19C304,154,306.7,151.8,310.3,151.8z"
		/>
</g>
<rect x="114" y="74" fill="#90A4AE" width="36" height="3"/>
<rect x="367" y="74" fill="#90A4AE" width="19" height="3"/>
<rect x="203" y="74" fill="#90A4AE" width="97" height="3"/>
<rect x="409.2" y="109.9" transform="matrix(0.9969 7.871762e-02 -7.871762e-02 0.9969 12.9613 -34.6771)" fill="#90A4AE" stroke="#000000" stroke-miterlimit="10" width="74.3" height="74.3"/>
<g>
	<path fill="#FFFFFF" stroke="#000000" stroke-miterlimit="10" d="M477.7,151.6c2.4-14.4-5.8-28.9-20.1-33.8
		c-15.9-5.5-33.4,2.9-38.9,18.8c-5.5,15.9,2.9,33.4,18.8,38.9c14.3,5,29.7-1.3,36.7-14.1"/>
	<path fill="#FFFFFF" stroke="#000000" stroke-miterlimit="10" d="M474.2,161.5l13.8,4.8c2.7,0.9,5.7-0.5,6.6-3.2
		c0.9-2.7-0.5-5.7-3.2-6.6l-13.8-4.8c-0.3,1.7-0.7,3.4-1.3,5.1C475.8,158.4,475.1,160,474.2,161.5z"/>
</g>
<circle fill="#8D6E63" cx="447.6" cy="146.9" r="24.6"/>
<path fill="#FFF278" d="M16.1,38.6c-1.7,0.5-4.7,1.4-4,3.5c0.3,0.8,1.1,2,1.6,2.8c0.7,1.1,1.2,2.4,1.9,3.6c1.1,1.8,2.6,3.2,4.1,4.7
	c1.1,1.1,2.9,2.3,3.6,3.6c0.4,0.7,0.5,1.6,1,2.4c0.5,0.8,1,1.5,1.6,2.2c3.2,4.2,5.4,9.3,8.6,13.6c1,1.4,2.5,4.5,4.4,4.7
	c0.9,0.1,2-0.9,2.9-1.4c1.1-0.6,2.3-1.2,3.4-1.8c1.6-0.8,1.8-1.2,1.9-3.1c0.2-2.8-0.5-4.7-0.4-7.5c0.1-3.2,0-6.9-0.3-10
	c-0.2-2.3,1.5-4.9,1.9-7.2c0.3-1.6,0.6-4.1,1.5-5.4c1,0.4,2.1,5.2,2.4,6.4c0.7,2.4,0.1,5.5,0.1,8c0,4.4,1.4,8.9,1.1,13.2
	c1.6,0.2,2.9-1.7,4-2.6c1.2-1,2.5-1.8,3.8-2.8c2.7-2.1,5.8-3.6,8.8-5.3c2.1-1.2,4.6-2.3,4.3-5.1c-0.3-3-3-5.9-4.1-8.7
	c-1-2.8-2.8-5.6-4.5-8.2c-1-1.5-1.9-3.1-3-4.6c-1.4-1.8-3.2-3.4-4.6-5.2c-2.1-2.6-3.6-5.5-5.6-8.1c-0.6-0.8-1.5-2.1-2.4-2.3
	c-1.4-0.3-3.9,1.3-4.9,2.1c-4.8,3.7-9.7,7-14.9,9.9c-4.6,2.5-9.1,4.5-13.1,7.6c-0.6,0.5-1.5,0.9-1.9,1.5"/>
<line fill="none" stroke="#000000" stroke-miterlimit="10" x1="53.2" y1="51" x2="46.8" y2="51.4"/>
<g>
	<polygon fill="none" stroke="#000000" stroke-miterlimit="10" points="49.6,43.2 53.2,51 54.4,71.7 76.3,58.5 51.8,18 12.8,41.7 
		37.3,82.1 48.2,75.5 46.8,51.4 	"/>
	<polyline fill="none" stroke="#000000" stroke-miterlimit="10" points="48.2,75.5 50.1,109.8 56.5,109.4 54.4,71.7 	"/>
	<polyline fill="none" stroke="#000000" stroke-miterlimit="10" points="54.4,71.7 53.2,51 49.6,43.2 46.8,51.4 48.2,75.5 	"/>
	
		<rect x="50.3" y="109.6" transform="matrix(0.9984 -5.639424e-02 5.639424e-02 0.9984 -6.2754 3.1953)" fill="none" stroke="#000000" stroke-miterlimit="10" width="6.4" height="6.4"/>
	<path fill="none" stroke="#000000" stroke-miterlimit="10" d="M50.5,116.2l0.2,3.2c0.1,1.5,1.8,2.7,3.4,2.6c1.5-0.1,3.1-1.4,3-3
		l-0.2-3.2L50.5,116.2z"/>
</g>
</svg>
