<?xml version="1.0" encoding="utf-8"?>
<!-- Generator: Adobe Illustrator 18.0.0, SVG Export Plug-In . SVG Version: 6.00 Build 0)  -->
<!DOCTYPE svg PUBLIC "-//W3C//DTD SVG 1.1//EN" "http://www.w3.org/Graphics/SVG/1.1/DTD/svg11.dtd">
<svg version="1.1" id="Layer_1" xmlns="http://www.w3.org/2000/svg" xmlns:xlink="http://www.w3.org/1999/xlink" x="0px" y="0px"
	 viewBox="0 0 500 250" enable-background="new 0 0 500 250" xml:space="preserve">
<g>
	<defs>
		<rect id="SVGID_1_" width="500" height="250"/>
	</defs>
	<clipPath id="SVGID_2_">
		<use xlink:href="#SVGID_1_"  overflow="visible"/>
	</clipPath>
	<g clip-path="url(#SVGID_2_)">
		<polygon fill="#90A4AE" points="5.8,-19.5 5.8,-25 9.5,-28.6 12.9,-32.9 14.1,-28.1 20.1,-24.1 19,-21.1 16.2,-18.7 16.7,-8.7 
			13,-1.5 13.1,10.3 15.8,10.7 14.8,13.6 10.8,14 7,8.7 5.3,11.5 7.3,12.6 8,14.1 -6.8,14.3 -3.2,20.3 9.5,20.4 7.6,22.1 -2.3,23 
			-6.8,21.2 -10,16.8 -8.6,10.3 -9.5,-2.3 -3.2,-14.1 		"/>
		<polygon fill="#90A4AE" points="5.8,45.4 5.8,39.9 9.5,36.3 12.9,32 14.1,36.8 20.1,40.9 19,43.8 16.2,46.2 16.7,56.2 13,63.4 
			13.1,75.2 15.8,75.6 14.8,78.5 10.8,78.9 7,73.6 5.3,76.4 7.3,77.5 8,79 -6.8,79.2 -3.2,85.2 9.5,85.3 7.6,87 -2.3,87.9 
			-6.8,86.1 -10,81.7 -8.6,75.2 -9.5,62.6 -3.2,50.8 		"/>
		<polygon fill="#90A4AE" points="5.8,109.5 5.8,104 9.5,100.4 12.9,96.1 14.1,100.9 20.1,104.9 19,107.9 16.2,110.3 16.7,120.3 
			13,127.5 13.1,139.3 15.8,139.7 14.8,142.6 10.8,143 7,137.7 5.3,140.5 7.3,141.6 8,143.1 -6.8,143.3 -3.2,149.3 9.5,149.4 
			7.6,151.1 -2.3,152 -6.8,150.2 -10,145.8 -8.6,139.3 -9.5,126.7 -3.2,114.9 		"/>
		<polygon fill="#90A4AE" points="5.8,174.4 5.8,168.9 9.5,165.3 12.9,161 14.1,165.8 20.1,169.9 19,172.8 16.2,175.2 16.7,185.2 
			13,192.4 13.1,204.2 15.8,204.6 14.8,207.5 10.8,207.9 7,202.6 5.3,205.4 7.3,206.5 8,208 -6.8,208.2 -3.2,214.2 9.5,214.3 
			7.6,216 -2.3,216.9 -6.8,215.1 -10,210.7 -8.6,204.2 -9.5,191.6 -3.2,179.8 		"/>
		<polygon fill="#90A4AE" points="5.8,238.5 5.8,233 9.5,229.4 12.9,225.1 14.1,229.9 20.1,233.9 19,236.9 16.2,239.3 16.7,249.3 
			13,256.5 13.1,268.3 15.8,268.7 14.8,271.6 10.8,272 7,266.7 5.3,269.5 7.3,270.6 8,272.1 -6.8,272.3 -3.2,278.3 9.5,278.4 
			7.6,280.1 -2.3,281 -6.8,279.2 -10,274.8 -8.6,268.3 -9.5,255.7 -3.2,243.9 		"/>
		<polygon fill="#90A4AE" points="59.8,-50.6 59.8,-56.1 63.5,-59.7 66.9,-64 68.1,-59.2 74.1,-55.1 73,-52.2 70.2,-49.8 
			70.7,-39.8 67,-32.6 67.1,-20.8 69.8,-20.4 68.8,-17.5 64.8,-17.1 61,-22.4 59.3,-19.6 61.3,-18.5 62,-17 47.2,-16.8 50.8,-10.8 
			63.5,-10.7 61.6,-9 51.7,-8.1 47.2,-9.9 44,-14.3 45.4,-20.8 44.5,-33.4 50.8,-45.2 		"/>
		<polygon fill="#90A4AE" points="59.8,14.3 59.8,8.8 63.5,5.2 66.9,0.9 68.1,5.7 74.1,9.8 73,12.7 70.2,15.1 70.7,25.1 67,32.3 
			67.1,44.1 69.8,44.5 68.8,47.4 64.8,47.8 61,42.5 59.3,45.3 61.3,46.4 62,47.9 47.2,48.1 50.8,54.1 63.5,54.2 61.6,55.9 
			51.7,56.8 47.2,55 44,50.6 45.4,44.1 44.5,31.5 50.8,19.7 		"/>
		<polygon fill="#90A4AE" points="59.8,78.4 59.8,72.9 63.5,69.3 66.9,65 68.1,69.8 74.1,73.9 73,76.8 70.2,79.2 70.7,89.2 67,96.4 
			67.1,108.2 69.8,108.6 68.8,111.5 64.8,111.9 61,106.6 59.3,109.4 61.3,110.5 62,112 47.2,112.2 50.8,118.2 63.5,118.3 61.6,120 
			51.7,120.9 47.2,119.1 44,114.7 45.4,108.2 44.5,95.6 50.8,83.8 		"/>
		<polygon fill="#90A4AE" points="59.8,143.3 59.8,137.8 63.5,134.2 66.9,129.9 68.1,134.7 74.1,138.8 73,141.7 70.2,144.1 
			70.7,154.1 67,161.3 67.1,173.1 69.8,173.5 68.8,176.4 64.8,176.8 61,171.5 59.3,174.3 61.3,175.4 62,176.9 47.2,177.1 
			50.8,183.1 63.5,183.2 61.6,184.9 51.7,185.8 47.2,184 44,179.6 45.4,173.1 44.5,160.5 50.8,148.7 		"/>
		<polygon fill="#90A4AE" points="59.8,207.4 59.8,201.9 63.5,198.3 66.9,194 68.1,198.8 74.1,202.9 73,205.8 70.2,208.2 
			70.7,218.2 67,225.4 67.1,237.2 69.8,237.6 68.8,240.5 64.8,240.9 61,235.6 59.3,238.4 61.3,239.5 62,241 47.2,241.2 50.8,247.2 
			63.5,247.3 61.6,249 51.7,249.9 47.2,248.1 44,243.7 45.4,237.2 44.5,224.6 50.8,212.8 		"/>
		<polygon fill="#90A4AE" points="113.8,-19.5 113.8,-25 117.5,-28.6 120.9,-32.9 122.1,-28.1 128.1,-24.1 127,-21.1 124.2,-18.7 
			124.7,-8.7 121,-1.5 121.1,10.3 123.8,10.7 122.8,13.6 118.8,14 115,8.7 113.3,11.5 115.3,12.6 116,14.1 101.2,14.3 104.8,20.3 
			117.5,20.4 115.6,22.1 105.7,23 101.2,21.2 98,16.8 99.4,10.3 98.5,-2.3 104.8,-14.1 		"/>
		<polygon fill="#90A4AE" points="113.8,45.4 113.8,39.9 117.5,36.3 120.9,32 122.1,36.8 128.1,40.9 127,43.8 124.2,46.2 
			124.7,56.2 121,63.4 121.1,75.2 123.8,75.6 122.8,78.5 118.8,78.9 115,73.6 113.3,76.4 115.3,77.5 116,79 101.2,79.2 104.8,85.2 
			117.5,85.3 115.6,87 105.7,87.9 101.2,86.1 98,81.7 99.4,75.2 98.5,62.6 104.8,50.8 		"/>
		<polygon fill="#90A4AE" points="113.8,109.5 113.8,104 117.5,100.4 120.9,96.1 122.1,100.9 128.1,104.9 127,107.9 124.2,110.3 
			124.7,120.3 121,127.5 121.1,139.3 123.8,139.7 122.8,142.6 118.8,143 115,137.7 113.3,140.5 115.3,141.6 116,143.1 101.2,143.3 
			104.8,149.3 117.5,149.4 115.6,151.1 105.7,152 101.2,150.2 98,145.8 99.4,139.3 98.5,126.7 104.8,114.9 		"/>
		<polygon fill="#90A4AE" points="113.8,174.4 113.8,168.9 117.5,165.3 120.9,161 122.1,165.8 128.1,169.9 127,172.8 124.2,175.2 
			124.7,185.2 121,192.4 121.1,204.2 123.8,204.6 122.8,207.5 118.8,207.9 115,202.6 113.3,205.4 115.3,206.5 116,208 101.2,208.2 
			104.8,214.2 117.5,214.3 115.6,216 105.7,216.9 101.2,215.1 98,210.7 99.4,204.2 98.5,191.6 104.8,179.8 		"/>
		<polygon fill="#90A4AE" points="113.8,238.5 113.8,233 117.5,229.4 120.9,225.1 122.1,229.9 128.1,233.9 127,236.9 124.2,239.3 
			124.7,249.3 121,256.5 121.1,268.3 123.8,268.7 122.8,271.6 118.8,272 115,266.7 113.3,269.5 115.3,270.6 116,272.1 101.2,272.3 
			104.8,278.3 117.5,278.4 115.6,280.1 105.7,281 101.2,279.2 98,274.8 99.4,268.3 98.5,255.7 104.8,243.9 		"/>
		<polygon fill="#90A4AE" points="167.8,-50.6 167.8,-56.1 171.5,-59.7 174.9,-64 176.1,-59.2 182.1,-55.1 181,-52.2 178.2,-49.8 
			178.7,-39.8 175,-32.6 175.1,-20.8 177.8,-20.4 176.8,-17.5 172.8,-17.1 169,-22.4 167.3,-19.6 169.3,-18.5 170,-17 155.2,-16.8 
			158.8,-10.8 171.5,-10.7 169.6,-9 159.7,-8.1 155.2,-9.9 152,-14.3 153.4,-20.8 152.5,-33.4 158.8,-45.2 		"/>
		<polygon fill="#90A4AE" points="167.8,14.3 167.8,8.8 171.5,5.2 174.9,0.9 176.1,5.7 182.1,9.8 181,12.7 178.2,15.1 178.7,25.1 
			175,32.3 175.1,44.1 177.8,44.5 176.8,47.4 172.8,47.8 169,42.5 167.3,45.3 169.3,46.4 170,47.9 155.2,48.1 158.8,54.1 
			171.5,54.2 169.6,55.9 159.7,56.8 155.2,55 152,50.6 153.4,44.1 152.5,31.5 158.8,19.7 		"/>
		<polygon fill="#90A4AE" points="167.8,78.4 167.8,72.9 171.5,69.3 174.9,65 176.1,69.8 182.1,73.9 181,76.8 178.2,79.2 
			178.7,89.2 175,96.4 175.1,108.2 177.8,108.6 176.8,111.5 172.8,111.9 169,106.6 167.3,109.4 169.3,110.5 170,112 155.2,112.2 
			158.8,118.2 171.5,118.3 169.6,120 159.7,120.9 155.2,119.1 152,114.7 153.4,108.2 152.5,95.6 158.8,83.8 		"/>
		<polygon fill="#90A4AE" points="167.8,143.3 167.8,137.8 171.5,134.2 174.9,129.9 176.1,134.7 182.1,138.8 181,141.7 178.2,144.1 
			178.7,154.1 175,161.3 175.1,173.1 177.8,173.5 176.8,176.4 172.8,176.8 169,171.5 167.3,174.3 169.3,175.4 170,176.9 
			155.2,177.1 158.8,183.1 171.5,183.2 169.6,184.9 159.7,185.8 155.2,184 152,179.6 153.4,173.1 152.5,160.5 158.8,148.7 		"/>
		<polygon fill="#90A4AE" points="167.8,207.4 167.8,201.9 171.5,198.3 174.9,194 176.1,198.8 182.1,202.9 181,205.8 178.2,208.2 
			178.7,218.2 175,225.4 175.1,237.2 177.8,237.6 176.8,240.5 172.8,240.9 169,235.6 167.3,238.4 169.3,239.5 170,241 155.2,241.2 
			158.8,247.2 171.5,247.3 169.6,249 159.7,249.9 155.2,248.1 152,243.7 153.4,237.2 152.5,224.6 158.8,212.8 		"/>
		<polygon fill="#90A4AE" points="221.8,-19.5 221.8,-25 225.5,-28.6 228.9,-32.9 230.1,-28.1 236.1,-24.1 235,-21.1 232.2,-18.7 
			232.7,-8.7 229,-1.5 229.1,10.3 231.8,10.7 230.8,13.6 226.8,14 223,8.7 221.3,11.5 223.3,12.6 224,14.1 209.2,14.3 212.8,20.3 
			225.5,20.4 223.6,22.1 213.7,23 209.2,21.2 206,16.8 207.4,10.3 206.5,-2.3 212.8,-14.1 		"/>
		<polygon fill="#90A4AE" points="221.8,45.4 221.8,39.9 225.5,36.3 228.9,32 230.1,36.8 236.1,40.9 235,43.8 232.2,46.2 
			232.7,56.2 229,63.4 229.1,75.2 231.8,75.6 230.8,78.5 226.8,78.9 223,73.6 221.3,76.4 223.3,77.5 224,79 209.2,79.2 212.8,85.2 
			225.5,85.3 223.6,87 213.7,87.9 209.2,86.1 206,81.7 207.4,75.2 206.5,62.6 212.8,50.8 		"/>
		<polygon fill="#90A4AE" points="221.8,109.5 221.8,104 225.5,100.4 228.9,96.1 230.1,100.9 236.1,104.9 235,107.9 232.2,110.3 
			232.7,120.3 229,127.5 229.1,139.3 231.8,139.7 230.8,142.6 226.8,143 223,137.7 221.3,140.5 223.3,141.6 224,143.1 209.2,143.3 
			212.8,149.3 225.5,149.4 223.6,151.1 213.7,152 209.2,150.2 206,145.8 207.4,139.3 206.5,126.7 212.8,114.9 		"/>
		<polygon fill="#90A4AE" points="221.8,174.4 221.8,168.9 225.5,165.3 228.9,161 230.1,165.8 236.1,169.9 235,172.8 232.2,175.2 
			232.7,185.2 229,192.4 229.1,204.2 231.8,204.6 230.8,207.5 226.8,207.9 223,202.6 221.3,205.4 223.3,206.5 224,208 209.2,208.2 
			212.8,214.2 225.5,214.3 223.6,216 213.7,216.9 209.2,215.1 206,210.7 207.4,204.2 206.5,191.6 212.8,179.8 		"/>
		<polygon fill="#90A4AE" points="221.8,238.5 221.8,233 225.5,229.4 228.9,225.1 230.1,229.9 236.1,233.9 235,236.9 232.2,239.3 
			232.7,249.3 229,256.5 229.1,268.3 231.8,268.7 230.8,271.6 226.8,272 223,266.7 221.3,269.5 223.3,270.6 224,272.1 209.2,272.3 
			212.8,278.3 225.5,278.4 223.6,280.1 213.7,281 209.2,279.2 206,274.8 207.4,268.3 206.5,255.7 212.8,243.9 		"/>
		<polygon fill="#90A4AE" points="275.8,-50.6 275.8,-56.1 279.5,-59.7 282.9,-64 284.1,-59.2 290.1,-55.1 289,-52.2 286.2,-49.8 
			286.7,-39.8 283,-32.6 283.1,-20.8 285.8,-20.4 284.8,-17.5 280.8,-17.1 277,-22.4 275.3,-19.6 277.3,-18.5 278,-17 263.2,-16.8 
			266.8,-10.8 279.5,-10.7 277.6,-9 267.7,-8.1 263.2,-9.9 260,-14.3 261.4,-20.8 260.5,-33.4 266.8,-45.2 		"/>
		<polygon fill="#90A4AE" points="275.8,14.3 275.8,8.8 279.5,5.2 282.9,0.9 284.1,5.7 290.1,9.8 289,12.7 286.2,15.1 286.7,25.1 
			283,32.3 283.1,44.1 285.8,44.5 284.8,47.4 280.8,47.8 277,42.5 275.3,45.3 277.3,46.4 278,47.9 263.2,48.1 266.8,54.1 
			279.5,54.2 277.6,55.9 267.7,56.8 263.2,55 260,50.6 261.4,44.1 260.5,31.5 266.8,19.7 		"/>
		<polygon fill="#90A4AE" points="275.8,78.4 275.8,72.9 279.5,69.3 282.9,65 284.1,69.8 290.1,73.9 289,76.8 286.2,79.2 
			286.7,89.2 283,96.4 283.1,108.2 285.8,108.6 284.8,111.5 280.8,111.9 277,106.6 275.3,109.4 277.3,110.5 278,112 263.2,112.2 
			266.8,118.2 279.5,118.3 277.6,120 267.7,120.9 263.2,119.1 260,114.7 261.4,108.2 260.5,95.6 266.8,83.8 		"/>
		<polygon fill="#90A4AE" points="275.8,143.3 275.8,137.8 279.5,134.2 282.9,129.9 284.1,134.7 290.1,138.8 289,141.7 286.2,144.1 
			286.7,154.1 283,161.3 283.1,173.1 285.8,173.5 284.8,176.4 280.8,176.8 277,171.5 275.3,174.3 277.3,175.4 278,176.9 
			263.2,177.1 266.8,183.1 279.5,183.2 277.6,184.9 267.7,185.8 263.2,184 260,179.6 261.4,173.1 260.5,160.5 266.8,148.7 		"/>
		<polygon fill="#90A4AE" points="275.8,207.4 275.8,201.9 279.5,198.3 282.9,194 284.1,198.8 290.1,202.9 289,205.8 286.2,208.2 
			286.7,218.2 283,225.4 283.1,237.2 285.8,237.6 284.8,240.5 280.8,240.9 277,235.6 275.3,238.4 277.3,239.5 278,241 263.2,241.2 
			266.8,247.2 279.5,247.3 277.6,249 267.7,249.9 263.2,248.1 260,243.7 261.4,237.2 260.5,224.6 266.8,212.8 		"/>
		<polygon fill="#90A4AE" points="329.8,-19.5 329.8,-25 333.5,-28.6 336.9,-32.9 338.1,-28.1 344.1,-24.1 343,-21.1 340.2,-18.7 
			340.7,-8.7 337,-1.5 337.1,10.3 339.8,10.7 338.8,13.6 334.8,14 331,8.7 329.3,11.5 331.3,12.6 332,14.1 317.2,14.3 320.8,20.3 
			333.5,20.4 331.6,22.1 321.7,23 317.2,21.2 314,16.8 315.4,10.3 314.5,-2.3 320.8,-14.1 		"/>
		<polygon fill="#90A4AE" points="329.8,45.4 329.8,39.9 333.5,36.3 336.9,32 338.1,36.8 344.1,40.9 343,43.8 340.2,46.2 
			340.7,56.2 337,63.4 337.1,75.2 339.8,75.6 338.8,78.5 334.8,78.9 331,73.6 329.3,76.4 331.3,77.5 332,79 317.2,79.2 320.8,85.2 
			333.5,85.3 331.6,87 321.7,87.9 317.2,86.1 314,81.7 315.4,75.2 314.5,62.6 320.8,50.8 		"/>
		<polygon fill="#90A4AE" points="329.8,109.5 329.8,104 333.5,100.4 336.9,96.1 338.1,100.9 344.1,104.9 343,107.9 340.2,110.3 
			340.7,120.3 337,127.5 337.1,139.3 339.8,139.7 338.8,142.6 334.8,143 331,137.7 329.3,140.5 331.3,141.6 332,143.1 317.2,143.3 
			320.8,149.3 333.5,149.4 331.6,151.1 321.7,152 317.2,150.2 314,145.8 315.4,139.3 314.5,126.7 320.8,114.9 		"/>
		<polygon fill="#90A4AE" points="329.8,174.4 329.8,168.9 333.5,165.3 336.9,161 338.1,165.8 344.1,169.9 343,172.8 340.2,175.2 
			340.7,185.2 337,192.4 337.1,204.2 339.8,204.6 338.8,207.5 334.8,207.9 331,202.6 329.3,205.4 331.3,206.5 332,208 317.2,208.2 
			320.8,214.2 333.5,214.3 331.6,216 321.7,216.9 317.2,215.1 314,210.7 315.4,204.2 314.5,191.6 320.8,179.8 		"/>
		<polygon fill="#90A4AE" points="329.8,238.5 329.8,233 333.5,229.4 336.9,225.1 338.1,229.9 344.1,233.9 343,236.9 340.2,239.3 
			340.7,249.3 337,256.5 337.1,268.3 339.8,268.7 338.8,271.6 334.8,272 331,266.7 329.3,269.5 331.3,270.6 332,272.1 317.2,272.3 
			320.8,278.3 333.5,278.4 331.6,280.1 321.7,281 317.2,279.2 314,274.8 315.4,268.3 314.5,255.7 320.8,243.9 		"/>
		<polygon fill="#90A4AE" points="383.8,-50.6 383.8,-56.1 387.5,-59.7 390.9,-64 392.1,-59.2 398.1,-55.1 397,-52.2 394.2,-49.8 
			394.7,-39.8 391,-32.6 391.1,-20.8 393.8,-20.4 392.8,-17.5 388.8,-17.1 385,-22.4 383.3,-19.6 385.3,-18.5 386,-17 371.2,-16.8 
			374.8,-10.8 387.5,-10.7 385.6,-9 375.7,-8.1 371.2,-9.9 368,-14.3 369.4,-20.8 368.5,-33.4 374.8,-45.2 		"/>
		<polygon fill="#90A4AE" points="383.8,14.3 383.8,8.8 387.5,5.2 390.9,0.9 392.1,5.7 398.1,9.8 397,12.7 394.2,15.1 394.7,25.1 
			391,32.3 391.1,44.1 393.8,44.5 392.8,47.4 388.8,47.8 385,42.5 383.3,45.3 385.3,46.4 386,47.9 371.2,48.1 374.8,54.1 
			387.5,54.2 385.6,55.9 375.7,56.8 371.2,55 368,50.6 369.4,44.1 368.5,31.5 374.8,19.7 		"/>
		<polygon fill="#90A4AE" points="383.8,78.4 383.8,72.9 387.5,69.3 390.9,65 392.1,69.8 398.1,73.9 397,76.8 394.2,79.2 
			394.7,89.2 391,96.4 391.1,108.2 393.8,108.6 392.8,111.5 388.8,111.9 385,106.6 383.3,109.4 385.3,110.5 386,112 371.2,112.2 
			374.8,118.2 387.5,118.3 385.6,120 375.7,120.9 371.2,119.1 368,114.7 369.4,108.2 368.5,95.6 374.8,83.8 		"/>
		<polygon fill="#90A4AE" points="383.8,143.3 383.8,137.8 387.5,134.2 390.9,129.9 392.1,134.7 398.1,138.8 397,141.7 394.2,144.1 
			394.7,154.1 391,161.3 391.1,173.1 393.8,173.5 392.8,176.4 388.8,176.8 385,171.5 383.3,174.3 385.3,175.4 386,176.9 
			371.2,177.1 374.8,183.1 387.5,183.2 385.6,184.9 375.7,185.8 371.2,184 368,179.6 369.4,173.1 368.5,160.5 374.8,148.7 		"/>
		<polygon fill="#90A4AE" points="383.8,207.4 383.8,201.9 387.5,198.3 390.9,194 392.1,198.8 398.1,202.9 397,205.8 394.2,208.2 
			394.7,218.2 391,225.4 391.1,237.2 393.8,237.6 392.8,240.5 388.8,240.9 385,235.6 383.3,238.4 385.3,239.5 386,241 371.2,241.2 
			374.8,247.2 387.5,247.3 385.6,249 375.7,249.9 371.2,248.1 368,243.7 369.4,237.2 368.5,224.6 374.8,212.8 		"/>
		<polygon fill="#90A4AE" points="437.8,-19.5 437.8,-25 441.5,-28.6 444.9,-32.9 446.1,-28.1 452.1,-24.1 451,-21.1 448.2,-18.7 
			448.7,-8.7 445,-1.5 445.1,10.3 447.8,10.7 446.8,13.6 442.8,14 439,8.7 437.3,11.5 439.3,12.6 440,14.1 425.2,14.3 428.8,20.3 
			441.5,20.4 439.6,22.1 429.7,23 425.2,21.2 422,16.8 423.4,10.3 422.5,-2.3 428.8,-14.1 		"/>
		<polygon fill="#90A4AE" points="437.8,45.4 437.8,39.9 441.5,36.3 444.9,32 446.1,36.8 452.1,40.9 451,43.8 448.2,46.2 
			448.7,56.2 445,63.4 445.1,75.2 447.8,75.6 446.8,78.5 442.8,78.9 439,73.6 437.3,76.4 439.3,77.5 440,79 425.2,79.2 428.8,85.2 
			441.5,85.3 439.6,87 429.7,87.9 425.2,86.1 422,81.7 423.4,75.2 422.5,62.6 428.8,50.8 		"/>
		<polygon fill="#90A4AE" points="437.8,109.5 437.8,104 441.5,100.4 444.9,96.1 446.1,100.9 452.1,104.9 451,107.9 448.2,110.3 
			448.7,120.3 445,127.5 445.1,139.3 447.8,139.7 446.8,142.6 442.8,143 439,137.7 437.3,140.5 439.3,141.6 440,143.1 425.2,143.3 
			428.8,149.3 441.5,149.4 439.6,151.1 429.7,152 425.2,150.2 422,145.8 423.4,139.3 422.5,126.7 428.8,114.9 		"/>
		<polygon fill="#90A4AE" points="437.8,174.4 437.8,168.9 441.5,165.3 444.9,161 446.1,165.8 452.1,169.9 451,172.8 448.2,175.2 
			448.7,185.2 445,192.4 445.1,204.2 447.8,204.6 446.8,207.5 442.8,207.9 439,202.6 437.3,205.4 439.3,206.5 440,208 425.2,208.2 
			428.8,214.2 441.5,214.3 439.6,216 429.7,216.9 425.2,215.1 422,210.7 423.4,204.2 422.5,191.6 428.8,179.8 		"/>
		<polygon fill="#90A4AE" points="437.8,238.5 437.8,233 441.5,229.4 444.9,225.1 446.1,229.9 452.1,233.9 451,236.9 448.2,239.3 
			448.7,249.3 445,256.5 445.1,268.3 447.8,268.7 446.8,271.6 442.8,272 439,266.7 437.3,269.5 439.3,270.6 440,272.1 425.2,272.3 
			428.8,278.3 441.5,278.4 439.6,280.1 429.7,281 425.2,279.2 422,274.8 423.4,268.3 422.5,255.7 428.8,243.9 		"/>
		<polygon fill="#90A4AE" points="491.8,-50.6 491.8,-56.1 495.5,-59.7 498.9,-64 500.1,-59.2 506.1,-55.1 505,-52.2 502.2,-49.8 
			502.7,-39.8 499,-32.6 499.1,-20.8 501.8,-20.4 500.8,-17.5 496.8,-17.1 493,-22.4 491.3,-19.6 493.3,-18.5 494,-17 479.2,-16.8 
			482.8,-10.8 495.5,-10.7 493.6,-9 483.7,-8.1 479.2,-9.9 476,-14.3 477.4,-20.8 476.5,-33.4 482.8,-45.2 		"/>
		<polygon fill="#90A4AE" points="491.8,14.3 491.8,8.8 495.5,5.2 498.9,0.9 500.1,5.7 506.1,9.8 505,12.7 502.2,15.1 502.7,25.1 
			499,32.3 499.1,44.1 501.8,44.5 500.8,47.4 496.8,47.8 493,42.5 491.3,45.3 493.3,46.4 494,47.9 479.2,48.1 482.8,54.1 
			495.5,54.2 493.6,55.9 483.7,56.8 479.2,55 476,50.6 477.4,44.1 476.5,31.5 482.8,19.7 		"/>
		<polygon fill="#90A4AE" points="491.8,78.4 491.8,72.9 495.5,69.3 498.9,65 500.1,69.8 506.1,73.9 505,76.8 502.2,79.2 
			502.7,89.2 499,96.4 499.1,108.2 501.8,108.6 500.8,111.5 496.8,111.9 493,106.6 491.3,109.4 493.3,110.5 494,112 479.2,112.2 
			482.8,118.2 495.5,118.3 493.6,120 483.7,120.9 479.2,119.1 476,114.7 477.4,108.2 476.5,95.6 482.8,83.8 		"/>
		<polygon fill="#90A4AE" points="491.8,143.3 491.8,137.8 495.5,134.2 498.9,129.9 500.1,134.7 506.1,138.8 505,141.7 502.2,144.1 
			502.7,154.1 499,161.3 499.1,173.1 501.8,173.5 500.8,176.4 496.8,176.8 493,171.5 491.3,174.3 493.3,175.4 494,176.9 
			479.2,177.1 482.8,183.1 495.5,183.2 493.6,184.9 483.7,185.8 479.2,184 476,179.6 477.4,173.1 476.5,160.5 482.8,148.7 		"/>
		<polygon fill="#90A4AE" points="491.8,207.4 491.8,201.9 495.5,198.3 498.9,194 500.1,198.8 506.1,202.9 505,205.8 502.2,208.2 
			502.7,218.2 499,225.4 499.1,237.2 501.8,237.6 500.8,240.5 496.8,240.9 493,235.6 491.3,238.4 493.3,239.5 494,241 479.2,241.2 
			482.8,247.2 495.5,247.3 493.6,249 483.7,249.9 479.2,248.1 476,243.7 477.4,237.2 476.5,224.6 482.8,212.8 		"/>
		<polygon fill="#90A4AE" points="545.8,-19.5 545.8,-25 549.5,-28.6 552.9,-32.9 554.1,-28.1 560.1,-24.1 559,-21.1 556.2,-18.7 
			556.7,-8.7 553,-1.5 553.1,10.3 555.8,10.7 554.8,13.6 550.8,14 547,8.7 545.3,11.5 547.3,12.6 548,14.1 533.2,14.3 536.8,20.3 
			549.5,20.4 547.6,22.1 537.7,23 533.2,21.2 530,16.8 531.4,10.3 530.5,-2.3 536.8,-14.1 		"/>
		<polygon fill="#90A4AE" points="545.8,45.4 545.8,39.9 549.5,36.3 552.9,32 554.1,36.8 560.1,40.9 559,43.8 556.2,46.2 
			556.7,56.2 553,63.4 553.1,75.2 555.8,75.6 554.8,78.5 550.8,78.9 547,73.6 545.3,76.4 547.3,77.5 548,79 533.2,79.2 536.8,85.2 
			549.5,85.3 547.6,87 537.7,87.9 533.2,86.1 530,81.7 531.4,75.2 530.5,62.6 536.8,50.8 		"/>
		<polygon fill="#90A4AE" points="545.8,109.5 545.8,104 549.5,100.4 552.9,96.1 554.1,100.9 560.1,104.9 559,107.9 556.2,110.3 
			556.7,120.3 553,127.5 553.1,139.3 555.8,139.7 554.8,142.6 550.8,143 547,137.7 545.3,140.5 547.3,141.6 548,143.1 533.2,143.3 
			536.8,149.3 549.5,149.4 547.6,151.1 537.7,152 533.2,150.2 530,145.8 531.4,139.3 530.5,126.7 536.8,114.9 		"/>
		<polygon fill="#90A4AE" points="545.8,174.4 545.8,168.9 549.5,165.3 552.9,161 554.1,165.8 560.1,169.9 559,172.8 556.2,175.2 
			556.7,185.2 553,192.4 553.1,204.2 555.8,204.6 554.8,207.5 550.8,207.9 547,202.6 545.3,205.4 547.3,206.5 548,208 533.2,208.2 
			536.8,214.2 549.5,214.3 547.6,216 537.7,216.9 533.2,215.1 530,210.7 531.4,204.2 530.5,191.6 536.8,179.8 		"/>
		<polygon fill="#90A4AE" points="545.8,238.5 545.8,233 549.5,229.4 552.9,225.1 554.1,229.9 560.1,233.9 559,236.9 556.2,239.3 
			556.7,249.3 553,256.5 553.1,268.3 555.8,268.7 554.8,271.6 550.8,272 547,266.7 545.3,269.5 547.3,270.6 548,272.1 533.2,272.3 
			536.8,278.3 549.5,278.4 547.6,280.1 537.7,281 533.2,279.2 530,274.8 531.4,268.3 530.5,255.7 536.8,243.9 		"/>
	</g>
</g>
<rect x="105" y="162" fill="#E0E0E0" width="290" height="58"/>
<rect fill="none" stroke="#000000" stroke-miterlimit="10" width="500" height="250"/>
<rect x="105" y="30" fill="#FFFFFF" stroke="#000000" stroke-miterlimit="10" width="290" height="190"/>
<circle fill="#90A4AE" cx="112" cy="36" r="3"/>
<circle fill="#90A4AE" cx="122" cy="36" r="3"/>
<circle fill="#90A4AE" cx="132" cy="36" r="3"/>
<polygon fill="none" stroke="#000000" stroke-miterlimit="10" points="168,42 166,34 142,34 140,42 105,42 105,54 395,54 395,42 "/>
<rect x="145" y="202" fill="#FFFFFF" width="126" height="15"/>
<rect x="145" y="166" fill="#FFFFFF" width="126" height="32"/>
<rect x="275" y="166" fill="#FFFFFF" width="78" height="51"/>
<rect x="134" y="45" fill="#90A4AE" width="232" height="6"/>
<rect x="105" y="64" width="290" height="98"/>
<rect x="118" y="57.2" fill="#90A4AE" width="6" height="3.6"/>
<rect x="126" y="57.2" fill="#EF5451" width="8" height="3.6"/>
<rect x="145" y="64" fill="#EF5451" width="208" height="98"/>
<rect x="278" y="169" fill="#90A4AE" width="17" height="9"/>
<rect x="148" y="178" fill="#90A4AE" width="9.8" height="8"/>
<rect x="148" y="205" fill="#90A4AE" width="9.8" height="8"/>
<rect x="278" y="181" fill="#90A4AE" width="17" height="9"/>
<rect x="278" y="193" fill="#90A4AE" width="17" height="9"/>
<rect x="278" y="205" fill="#90A4AE" width="17" height="9"/>
<rect x="298" y="169" fill="#90A4AE" width="46" height="2"/>
<rect x="148" y="169" fill="#90A4AE" width="56" height="6"/>
<rect x="298" y="173" fill="#D0D8DC" width="10" height="2"/>
<rect x="161.2" y="178" fill="#D0D8DC" width="10" height="3"/>
<rect x="148" y="192" fill="#D0D8DC" width="6" height="3"/>
<rect x="157" y="192" fill="#D0D8DC" width="6" height="3"/>
<rect x="166" y="192" fill="#D0D8DC" width="6" height="3"/>
<rect x="253" y="192" fill="#D0D8DC" width="6" height="3"/>
<rect x="262" y="192" fill="#D0D8DC" width="6" height="3"/>
<rect x="161.3" y="183" fill="#D0D8DC" width="14.7" height="3"/>
<rect x="257" y="182.5" fill="#D0D8DC" width="11" height="3"/>
<rect x="298" y="181" fill="#90A4AE" width="40" height="2"/>
<rect x="298" y="185" fill="#D0D8DC" width="17" height="2"/>
<rect x="298" y="193" fill="#90A4AE" width="44" height="2"/>
<rect x="298" y="197" fill="#D0D8DC" width="13" height="2"/>
<rect x="298" y="205" fill="#90A4AE" width="29" height="2"/>
<rect x="298" y="209" fill="#D0D8DC" width="10" height="2"/>
<line fill="none" stroke="#90A4AE" stroke-miterlimit="10" x1="148" y1="189" x2="268" y2="189"/>
<rect x="161.5" y="205.5" fill="none" stroke="#90A4AE" stroke-miterlimit="10" width="106" height="7"/>
<polygon fill="#FFFFFF" points="265,90.1 275,73.1 281.9,70 288,72.1 291,77.1 300,81.1 298,85.1 293.6,87.1 285,89.1 280,94.1 
	278,100.1 "/>
<polygon fill="#FFFFFF" points="261,90.1 277,103.1 274.5,113.1 288,116.1 300,119.1 313,108.1 314,112.1 317,114.1 320,119.1 
	318,122.1 310,124.1 310,134.1 318,139.1 321,148.1 318,149.1 315,141.1 298,138.1 291,149.1 293,153.1 289,154.1 288,148.1 
	291,138.1 279,134.1 274,141.1 276,149.1 279,153.1 271,153.1 268.5,150.6 264,150.1 261,141.1 260,140.1 256,141.1 251,148.1 
	253,152.1 253,154.1 250,154.1 248,147.1 260,121.1 232,112.1 227,115.1 222,113.1 216,121.1 197,133.1 194,142.1 197,145.1 
	197,148.1 194,148.1 196,151.1 194,153.1 189,152.1 189,131.1 205,116.1 204,100.1 189,91.1 190,89.1 207,95.1 "/>
<g>
	<path opacity="0.6" d="M265,126c0,1.7-1.3,3-3,3h-26c-1.6,0-3-1.3-3-3v-26c0-1.6,1.4-3,3-3h26c1.7,0,3,1.4,3,3V126z"/>
</g>
<polygon fill="#FFFFFF" points="245.4,107 256,113.1 245.4,119.2 "/>
<g>
	<polygon fill="#010101" points="-699.2,422.5 -699.2,417 -695.5,413.4 -692.1,409.1 -690.9,413.9 -684.9,417.9 -686,420.9 
		-688.8,423.3 -688.3,433.3 -692,440.5 -691.9,452.3 -689.2,452.7 -690.2,455.6 -694.2,456 -698,450.7 -699.7,453.5 -697.7,454.6 
		-697,456.1 -711.8,456.3 -708.2,462.3 -695.5,462.4 -697.4,464.1 -707.3,465 -711.8,463.2 -715,458.8 -713.6,452.3 -714.5,439.7 
		-708.2,427.9 	"/>
	<polygon fill="#010101" points="-699.2,487.4 -699.2,481.9 -695.5,478.3 -692.1,474 -690.9,478.8 -684.9,482.9 -686,485.8 
		-688.8,488.2 -688.3,498.2 -692,505.4 -691.9,517.2 -689.2,517.6 -690.2,520.5 -694.2,520.9 -698,515.6 -699.7,518.4 -697.7,519.5 
		-697,521 -711.8,521.2 -708.2,527.2 -695.5,527.3 -697.4,529 -707.3,529.9 -711.8,528.1 -715,523.7 -713.6,517.2 -714.5,504.6 
		-708.2,492.8 	"/>
	<polygon fill="#010101" points="-699.2,551.5 -699.2,546 -695.5,542.4 -692.1,538.1 -690.9,542.9 -684.9,546.9 -686,549.9 
		-688.8,552.3 -688.3,562.3 -692,569.5 -691.9,581.3 -689.2,581.7 -690.2,584.6 -694.2,585 -698,579.7 -699.7,582.5 -697.7,583.6 
		-697,585.1 -711.8,585.3 -708.2,591.3 -695.5,591.4 -697.4,593.1 -707.3,594 -711.8,592.2 -715,587.8 -713.6,581.3 -714.5,568.7 
		-708.2,556.9 	"/>
	<polygon fill="#010101" points="-699.2,616.4 -699.2,610.9 -695.5,607.3 -692.1,603 -690.9,607.8 -684.9,611.9 -686,614.8 
		-688.8,617.2 -688.3,627.2 -692,634.4 -691.9,646.2 -689.2,646.6 -690.2,649.5 -694.2,649.9 -698,644.6 -699.7,647.4 -697.7,648.5 
		-697,650 -711.8,650.2 -708.2,656.2 -695.5,656.3 -697.4,658 -707.3,658.9 -711.8,657.1 -715,652.7 -713.6,646.2 -714.5,633.6 
		-708.2,621.8 	"/>
	<polygon fill="#010101" points="-699.2,680.5 -699.2,675 -695.5,671.4 -692.1,667.1 -690.9,671.9 -684.9,675.9 -686,678.9 
		-688.8,681.3 -688.3,691.3 -692,698.5 -691.9,710.3 -689.2,710.7 -690.2,713.6 -694.2,714 -698,708.7 -699.7,711.5 -697.7,712.6 
		-697,714.1 -711.8,714.3 -708.2,720.3 -695.5,720.4 -697.4,722.1 -707.3,723 -711.8,721.2 -715,716.8 -713.6,710.3 -714.5,697.7 
		-708.2,685.9 	"/>
	<polygon fill="#010101" points="-645.2,391.4 -645.2,385.9 -641.5,382.3 -638.1,378 -636.9,382.8 -630.9,386.9 -632,389.8 
		-634.8,392.2 -634.3,402.2 -638,409.4 -637.9,421.2 -635.2,421.6 -636.2,424.5 -640.2,424.9 -644,419.6 -645.7,422.4 -643.7,423.5 
		-643,425 -657.8,425.2 -654.2,431.2 -641.5,431.3 -643.4,433 -653.3,433.9 -657.8,432.1 -661,427.7 -659.6,421.2 -660.5,408.6 
		-654.2,396.8 	"/>
	<polygon fill="#010101" points="-645.2,456.3 -645.2,450.8 -641.5,447.2 -638.1,442.9 -636.9,447.7 -630.9,451.8 -632,454.7 
		-634.8,457.1 -634.3,467.1 -638,474.3 -637.9,486.1 -635.2,486.5 -636.2,489.4 -640.2,489.8 -644,484.5 -645.7,487.3 -643.7,488.4 
		-643,489.9 -657.8,490.1 -654.2,496.1 -641.5,496.2 -643.4,497.9 -653.3,498.8 -657.8,497 -661,492.6 -659.6,486.1 -660.5,473.5 
		-654.2,461.7 	"/>
	<polygon fill="#010101" points="-645.2,520.4 -645.2,514.9 -641.5,511.3 -638.1,507 -636.9,511.8 -630.9,515.9 -632,518.8 
		-634.8,521.2 -634.3,531.2 -638,538.4 -637.9,550.2 -635.2,550.6 -636.2,553.5 -640.2,553.9 -644,548.6 -645.7,551.4 -643.7,552.5 
		-643,554 -657.8,554.2 -654.2,560.2 -641.5,560.3 -643.4,562 -653.3,562.9 -657.8,561.1 -661,556.7 -659.6,550.2 -660.5,537.6 
		-654.2,525.8 	"/>
	<polygon fill="#010101" points="-645.2,585.3 -645.2,579.8 -641.5,576.2 -638.1,571.9 -636.9,576.7 -630.9,580.8 -632,583.7 
		-634.8,586.1 -634.3,596.1 -638,603.3 -637.9,615.1 -635.2,615.5 -636.2,618.4 -640.2,618.8 -644,613.5 -645.7,616.3 -643.7,617.4 
		-643,618.9 -657.8,619.1 -654.2,625.1 -641.5,625.2 -643.4,626.9 -653.3,627.8 -657.8,626 -661,621.6 -659.6,615.1 -660.5,602.5 
		-654.2,590.7 	"/>
	<polygon fill="#010101" points="-645.2,649.4 -645.2,643.9 -641.5,640.3 -638.1,636 -636.9,640.8 -630.9,644.9 -632,647.8 
		-634.8,650.2 -634.3,660.2 -638,667.4 -637.9,679.2 -635.2,679.6 -636.2,682.5 -640.2,682.9 -644,677.6 -645.7,680.4 -643.7,681.5 
		-643,683 -657.8,683.2 -654.2,689.2 -641.5,689.3 -643.4,691 -653.3,691.9 -657.8,690.1 -661,685.7 -659.6,679.2 -660.5,666.6 
		-654.2,654.8 	"/>
	<polygon fill="#010101" points="-591.2,422.5 -591.2,417 -587.5,413.4 -584.1,409.1 -582.9,413.9 -576.9,417.9 -578,420.9 
		-580.8,423.3 -580.3,433.3 -584,440.5 -583.9,452.3 -581.2,452.7 -582.2,455.6 -586.2,456 -590,450.7 -591.7,453.5 -589.7,454.6 
		-589,456.1 -603.8,456.3 -600.2,462.3 -587.5,462.4 -589.4,464.1 -599.3,465 -603.8,463.2 -607,458.8 -605.6,452.3 -606.5,439.7 
		-600.2,427.9 	"/>
	<polygon fill="#010101" points="-591.2,487.4 -591.2,481.9 -587.5,478.3 -584.1,474 -582.9,478.8 -576.9,482.9 -578,485.8 
		-580.8,488.2 -580.3,498.2 -584,505.4 -583.9,517.2 -581.2,517.6 -582.2,520.5 -586.2,520.9 -590,515.6 -591.7,518.4 -589.7,519.5 
		-589,521 -603.8,521.2 -600.2,527.2 -587.5,527.3 -589.4,529 -599.3,529.9 -603.8,528.1 -607,523.7 -605.6,517.2 -606.5,504.6 
		-600.2,492.8 	"/>
	<polygon fill="#010101" points="-591.2,551.5 -591.2,546 -587.5,542.4 -584.1,538.1 -582.9,542.9 -576.9,546.9 -578,549.9 
		-580.8,552.3 -580.3,562.3 -584,569.5 -583.9,581.3 -581.2,581.7 -582.2,584.6 -586.2,585 -590,579.7 -591.7,582.5 -589.7,583.6 
		-589,585.1 -603.8,585.3 -600.2,591.3 -587.5,591.4 -589.4,593.1 -599.3,594 -603.8,592.2 -607,587.8 -605.6,581.3 -606.5,568.7 
		-600.2,556.9 	"/>
	<polygon fill="#010101" points="-591.2,616.4 -591.2,610.9 -587.5,607.3 -584.1,603 -582.9,607.8 -576.9,611.9 -578,614.8 
		-580.8,617.2 -580.3,627.2 -584,634.4 -583.9,646.2 -581.2,646.6 -582.2,649.5 -586.2,649.9 -590,644.6 -591.7,647.4 -589.7,648.5 
		-589,650 -603.8,650.2 -600.2,656.2 -587.5,656.3 -589.4,658 -599.3,658.9 -603.8,657.1 -607,652.7 -605.6,646.2 -606.5,633.6 
		-600.2,621.8 	"/>
	<polygon fill="#010101" points="-591.2,680.5 -591.2,675 -587.5,671.4 -584.1,667.1 -582.9,671.9 -576.9,675.9 -578,678.9 
		-580.8,681.3 -580.3,691.3 -584,698.5 -583.9,710.3 -581.2,710.7 -582.2,713.6 -586.2,714 -590,708.7 -591.7,711.5 -589.7,712.6 
		-589,714.1 -603.8,714.3 -600.2,720.3 -587.5,720.4 -589.4,722.1 -599.3,723 -603.8,721.2 -607,716.8 -605.6,710.3 -606.5,697.7 
		-600.2,685.9 	"/>
	<polygon fill="#010101" points="-537.2,391.4 -537.2,385.9 -533.5,382.3 -530.1,378 -528.9,382.8 -522.9,386.9 -524,389.8 
		-526.8,392.2 -526.3,402.2 -530,409.4 -529.9,421.2 -527.2,421.6 -528.2,424.5 -532.2,424.9 -536,419.6 -537.7,422.4 -535.7,423.5 
		-535,425 -549.8,425.2 -546.2,431.2 -533.5,431.3 -535.4,433 -545.3,433.9 -549.8,432.1 -553,427.7 -551.6,421.2 -552.5,408.6 
		-546.2,396.8 	"/>
	<polygon fill="#010101" points="-537.2,456.3 -537.2,450.8 -533.5,447.2 -530.1,442.9 -528.9,447.7 -522.9,451.8 -524,454.7 
		-526.8,457.1 -526.3,467.1 -530,474.3 -529.9,486.1 -527.2,486.5 -528.2,489.4 -532.2,489.8 -536,484.5 -537.7,487.3 -535.7,488.4 
		-535,489.9 -549.8,490.1 -546.2,496.1 -533.5,496.2 -535.4,497.9 -545.3,498.8 -549.8,497 -553,492.6 -551.6,486.1 -552.5,473.5 
		-546.2,461.7 	"/>
	<polygon fill="#010101" points="-537.2,520.4 -537.2,514.9 -533.5,511.3 -530.1,507 -528.9,511.8 -522.9,515.9 -524,518.8 
		-526.8,521.2 -526.3,531.2 -530,538.4 -529.9,550.2 -527.2,550.6 -528.2,553.5 -532.2,553.9 -536,548.6 -537.7,551.4 -535.7,552.5 
		-535,554 -549.8,554.2 -546.2,560.2 -533.5,560.3 -535.4,562 -545.3,562.9 -549.8,561.1 -553,556.7 -551.6,550.2 -552.5,537.6 
		-546.2,525.8 	"/>
	<polygon fill="#010101" points="-537.2,585.3 -537.2,579.8 -533.5,576.2 -530.1,571.9 -528.9,576.7 -522.9,580.8 -524,583.7 
		-526.8,586.1 -526.3,596.1 -530,603.3 -529.9,615.1 -527.2,615.5 -528.2,618.4 -532.2,618.8 -536,613.5 -537.7,616.3 -535.7,617.4 
		-535,618.9 -549.8,619.1 -546.2,625.1 -533.5,625.2 -535.4,626.9 -545.3,627.8 -549.8,626 -553,621.6 -551.6,615.1 -552.5,602.5 
		-546.2,590.7 	"/>
	<polygon fill="#010101" points="-537.2,649.4 -537.2,643.9 -533.5,640.3 -530.1,636 -528.9,640.8 -522.9,644.9 -524,647.8 
		-526.8,650.2 -526.3,660.2 -530,667.4 -529.9,679.2 -527.2,679.6 -528.2,682.5 -532.2,682.9 -536,677.6 -537.7,680.4 -535.7,681.5 
		-535,683 -549.8,683.2 -546.2,689.2 -533.5,689.3 -535.4,691 -545.3,691.9 -549.8,690.1 -553,685.7 -551.6,679.2 -552.5,666.6 
		-546.2,654.8 	"/>
	<polygon fill="#010101" points="-483.2,422.5 -483.2,417 -479.5,413.4 -476.1,409.1 -474.9,413.9 -468.9,417.9 -470,420.9 
		-472.8,423.3 -472.3,433.3 -476,440.5 -475.9,452.3 -473.2,452.7 -474.2,455.6 -478.2,456 -482,450.7 -483.7,453.5 -481.7,454.6 
		-481,456.1 -495.8,456.3 -492.2,462.3 -479.5,462.4 -481.4,464.1 -491.3,465 -495.8,463.2 -499,458.8 -497.6,452.3 -498.5,439.7 
		-492.2,427.9 	"/>
	<polygon fill="#010101" points="-483.2,487.4 -483.2,481.9 -479.5,478.3 -476.1,474 -474.9,478.8 -468.9,482.9 -470,485.8 
		-472.8,488.2 -472.3,498.2 -476,505.4 -475.9,517.2 -473.2,517.6 -474.2,520.5 -478.2,520.9 -482,515.6 -483.7,518.4 -481.7,519.5 
		-481,521 -495.8,521.2 -492.2,527.2 -479.5,527.3 -481.4,529 -491.3,529.9 -495.8,528.1 -499,523.7 -497.6,517.2 -498.5,504.6 
		-492.2,492.8 	"/>
	<polygon fill="#010101" points="-483.2,551.5 -483.2,546 -479.5,542.4 -476.1,538.1 -474.9,542.9 -468.9,546.9 -470,549.9 
		-472.8,552.3 -472.3,562.3 -476,569.5 -475.9,581.3 -473.2,581.7 -474.2,584.6 -478.2,585 -482,579.7 -483.7,582.5 -481.7,583.6 
		-481,585.1 -495.8,585.3 -492.2,591.3 -479.5,591.4 -481.4,593.1 -491.3,594 -495.8,592.2 -499,587.8 -497.6,581.3 -498.5,568.7 
		-492.2,556.9 	"/>
	<polygon fill="#010101" points="-483.2,616.4 -483.2,610.9 -479.5,607.3 -476.1,603 -474.9,607.8 -468.9,611.9 -470,614.8 
		-472.8,617.2 -472.3,627.2 -476,634.4 -475.9,646.2 -473.2,646.6 -474.2,649.5 -478.2,649.9 -482,644.6 -483.7,647.4 -481.7,648.5 
		-481,650 -495.8,650.2 -492.2,656.2 -479.5,656.3 -481.4,658 -491.3,658.9 -495.8,657.1 -499,652.7 -497.6,646.2 -498.5,633.6 
		-492.2,621.8 	"/>
	<polygon fill="#010101" points="-483.2,680.5 -483.2,675 -479.5,671.4 -476.1,667.1 -474.9,671.9 -468.9,675.9 -470,678.9 
		-472.8,681.3 -472.3,691.3 -476,698.5 -475.9,710.3 -473.2,710.7 -474.2,713.6 -478.2,714 -482,708.7 -483.7,711.5 -481.7,712.6 
		-481,714.1 -495.8,714.3 -492.2,720.3 -479.5,720.4 -481.4,722.1 -491.3,723 -495.8,721.2 -499,716.8 -497.6,710.3 -498.5,697.7 
		-492.2,685.9 	"/>
	<polygon fill="#010101" points="-429.2,391.4 -429.2,385.9 -425.5,382.3 -422.1,378 -420.9,382.8 -414.9,386.9 -416,389.8 
		-418.8,392.2 -418.3,402.2 -422,409.4 -421.9,421.2 -419.2,421.6 -420.2,424.5 -424.2,424.9 -428,419.6 -429.7,422.4 -427.7,423.5 
		-427,425 -441.8,425.2 -438.2,431.2 -425.5,431.3 -427.4,433 -437.3,433.9 -441.8,432.1 -445,427.7 -443.6,421.2 -444.5,408.6 
		-438.2,396.8 	"/>
	<polygon fill="#010101" points="-429.2,456.3 -429.2,450.8 -425.5,447.2 -422.1,442.9 -420.9,447.7 -414.9,451.8 -416,454.7 
		-418.8,457.1 -418.3,467.1 -422,474.3 -421.9,486.1 -419.2,486.5 -420.2,489.4 -424.2,489.8 -428,484.5 -429.7,487.3 -427.7,488.4 
		-427,489.9 -441.8,490.1 -438.2,496.1 -425.5,496.2 -427.4,497.9 -437.3,498.8 -441.8,497 -445,492.6 -443.6,486.1 -444.5,473.5 
		-438.2,461.7 	"/>
	<polygon fill="#010101" points="-429.2,520.4 -429.2,514.9 -425.5,511.3 -422.1,507 -420.9,511.8 -414.9,515.9 -416,518.8 
		-418.8,521.2 -418.3,531.2 -422,538.4 -421.9,550.2 -419.2,550.6 -420.2,553.5 -424.2,553.9 -428,548.6 -429.7,551.4 -427.7,552.5 
		-427,554 -441.8,554.2 -438.2,560.2 -425.5,560.3 -427.4,562 -437.3,562.9 -441.8,561.1 -445,556.7 -443.6,550.2 -444.5,537.6 
		-438.2,525.8 	"/>
	<polygon fill="#010101" points="-429.2,585.3 -429.2,579.8 -425.5,576.2 -422.1,571.9 -420.9,576.7 -414.9,580.8 -416,583.7 
		-418.8,586.1 -418.3,596.1 -422,603.3 -421.9,615.1 -419.2,615.5 -420.2,618.4 -424.2,618.8 -428,613.5 -429.7,616.3 -427.7,617.4 
		-427,618.9 -441.8,619.1 -438.2,625.1 -425.5,625.2 -427.4,626.9 -437.3,627.8 -441.8,626 -445,621.6 -443.6,615.1 -444.5,602.5 
		-438.2,590.7 	"/>
	<polygon fill="#010101" points="-429.2,649.4 -429.2,643.9 -425.5,640.3 -422.1,636 -420.9,640.8 -414.9,644.9 -416,647.8 
		-418.8,650.2 -418.3,660.2 -422,667.4 -421.9,679.2 -419.2,679.6 -420.2,682.5 -424.2,682.9 -428,677.6 -429.7,680.4 -427.7,681.5 
		-427,683 -441.8,683.2 -438.2,689.2 -425.5,689.3 -427.4,691 -437.3,691.9 -441.8,690.1 -445,685.7 -443.6,679.2 -444.5,666.6 
		-438.2,654.8 	"/>
	<polygon fill="#010101" points="-375.2,422.5 -375.2,417 -371.5,413.4 -368.1,409.1 -366.9,413.9 -360.9,417.9 -362,420.9 
		-364.8,423.3 -364.3,433.3 -368,440.5 -367.9,452.3 -365.2,452.7 -366.2,455.6 -370.2,456 -374,450.7 -375.7,453.5 -373.7,454.6 
		-373,456.1 -387.8,456.3 -384.2,462.3 -371.5,462.4 -373.4,464.1 -383.3,465 -387.8,463.2 -391,458.8 -389.6,452.3 -390.5,439.7 
		-384.2,427.9 	"/>
	<polygon fill="#010101" points="-375.2,487.4 -375.2,481.9 -371.5,478.3 -368.1,474 -366.9,478.8 -360.9,482.9 -362,485.8 
		-364.8,488.2 -364.3,498.2 -368,505.4 -367.9,517.2 -365.2,517.6 -366.2,520.5 -370.2,520.9 -374,515.6 -375.7,518.4 -373.7,519.5 
		-373,521 -387.8,521.2 -384.2,527.2 -371.5,527.3 -373.4,529 -383.3,529.9 -387.8,528.1 -391,523.7 -389.6,517.2 -390.5,504.6 
		-384.2,492.8 	"/>
	<polygon fill="#010101" points="-375.2,551.5 -375.2,546 -371.5,542.4 -368.1,538.1 -366.9,542.9 -360.9,546.9 -362,549.9 
		-364.8,552.3 -364.3,562.3 -368,569.5 -367.9,581.3 -365.2,581.7 -366.2,584.6 -370.2,585 -374,579.7 -375.7,582.5 -373.7,583.6 
		-373,585.1 -387.8,585.3 -384.2,591.3 -371.5,591.4 -373.4,593.1 -383.3,594 -387.8,592.2 -391,587.8 -389.6,581.3 -390.5,568.7 
		-384.2,556.9 	"/>
	<polygon fill="#010101" points="-375.2,616.4 -375.2,610.9 -371.5,607.3 -368.1,603 -366.9,607.8 -360.9,611.9 -362,614.8 
		-364.8,617.2 -364.3,627.2 -368,634.4 -367.9,646.2 -365.2,646.6 -366.2,649.5 -370.2,649.9 -374,644.6 -375.7,647.4 -373.7,648.5 
		-373,650 -387.8,650.2 -384.2,656.2 -371.5,656.3 -373.4,658 -383.3,658.9 -387.8,657.1 -391,652.7 -389.6,646.2 -390.5,633.6 
		-384.2,621.8 	"/>
	<polygon fill="#010101" points="-375.2,680.5 -375.2,675 -371.5,671.4 -368.1,667.1 -366.9,671.9 -360.9,675.9 -362,678.9 
		-364.8,681.3 -364.3,691.3 -368,698.5 -367.9,710.3 -365.2,710.7 -366.2,713.6 -370.2,714 -374,708.7 -375.7,711.5 -373.7,712.6 
		-373,714.1 -387.8,714.3 -384.2,720.3 -371.5,720.4 -373.4,722.1 -383.3,723 -387.8,721.2 -391,716.8 -389.6,710.3 -390.5,697.7 
		-384.2,685.9 	"/>
	<polygon fill="#010101" points="-321.2,391.4 -321.2,385.9 -317.5,382.3 -314.1,378 -312.9,382.8 -306.9,386.9 -308,389.8 
		-310.8,392.2 -310.3,402.2 -314,409.4 -313.9,421.2 -311.2,421.6 -312.2,424.5 -316.2,424.9 -320,419.6 -321.7,422.4 -319.7,423.5 
		-319,425 -333.8,425.2 -330.2,431.2 -317.5,431.3 -319.4,433 -329.3,433.9 -333.8,432.1 -337,427.7 -335.6,421.2 -336.5,408.6 
		-330.2,396.8 	"/>
	<polygon fill="#010101" points="-321.2,456.3 -321.2,450.8 -317.5,447.2 -314.1,442.9 -312.9,447.7 -306.9,451.8 -308,454.7 
		-310.8,457.1 -310.3,467.1 -314,474.3 -313.9,486.1 -311.2,486.5 -312.2,489.4 -316.2,489.8 -320,484.5 -321.7,487.3 -319.7,488.4 
		-319,489.9 -333.8,490.1 -330.2,496.1 -317.5,496.2 -319.4,497.9 -329.3,498.8 -333.8,497 -337,492.6 -335.6,486.1 -336.5,473.5 
		-330.2,461.7 	"/>
	<polygon fill="#010101" points="-321.2,520.4 -321.2,514.9 -317.5,511.3 -314.1,507 -312.9,511.8 -306.9,515.9 -308,518.8 
		-310.8,521.2 -310.3,531.2 -314,538.4 -313.9,550.2 -311.2,550.6 -312.2,553.5 -316.2,553.9 -320,548.6 -321.7,551.4 -319.7,552.5 
		-319,554 -333.8,554.2 -330.2,560.2 -317.5,560.3 -319.4,562 -329.3,562.9 -333.8,561.1 -337,556.7 -335.6,550.2 -336.5,537.6 
		-330.2,525.8 	"/>
	<polygon fill="#010101" points="-321.2,585.3 -321.2,579.8 -317.5,576.2 -314.1,571.9 -312.9,576.7 -306.9,580.8 -308,583.7 
		-310.8,586.1 -310.3,596.1 -314,603.3 -313.9,615.1 -311.2,615.5 -312.2,618.4 -316.2,618.8 -320,613.5 -321.7,616.3 -319.7,617.4 
		-319,618.9 -333.8,619.1 -330.2,625.1 -317.5,625.2 -319.4,626.9 -329.3,627.8 -333.8,626 -337,621.6 -335.6,615.1 -336.5,602.5 
		-330.2,590.7 	"/>
	<polygon fill="#010101" points="-321.2,649.4 -321.2,643.9 -317.5,640.3 -314.1,636 -312.9,640.8 -306.9,644.9 -308,647.8 
		-310.8,650.2 -310.3,660.2 -314,667.4 -313.9,679.2 -311.2,679.6 -312.2,682.5 -316.2,682.9 -320,677.6 -321.7,680.4 -319.7,681.5 
		-319,683 -333.8,683.2 -330.2,689.2 -317.5,689.3 -319.4,691 -329.3,691.9 -333.8,690.1 -337,685.7 -335.6,679.2 -336.5,666.6 
		-330.2,654.8 	"/>
	<polygon fill="#010101" points="-267.2,422.5 -267.2,417 -263.5,413.4 -260.1,409.1 -258.9,413.9 -252.9,417.9 -254,420.9 
		-256.8,423.3 -256.3,433.3 -260,440.5 -259.9,452.3 -257.2,452.7 -258.2,455.6 -262.2,456 -266,450.7 -267.7,453.5 -265.7,454.6 
		-265,456.1 -279.8,456.3 -276.2,462.3 -263.5,462.4 -265.4,464.1 -275.3,465 -279.8,463.2 -283,458.8 -281.6,452.3 -282.5,439.7 
		-276.2,427.9 	"/>
	<polygon fill="#010101" points="-267.2,487.4 -267.2,481.9 -263.5,478.3 -260.1,474 -258.9,478.8 -252.9,482.9 -254,485.8 
		-256.8,488.2 -256.3,498.2 -260,505.4 -259.9,517.2 -257.2,517.6 -258.2,520.5 -262.2,520.9 -266,515.6 -267.7,518.4 -265.7,519.5 
		-265,521 -279.8,521.2 -276.2,527.2 -263.5,527.3 -265.4,529 -275.3,529.9 -279.8,528.1 -283,523.7 -281.6,517.2 -282.5,504.6 
		-276.2,492.8 	"/>
	<polygon fill="#010101" points="-267.2,551.5 -267.2,546 -263.5,542.4 -260.1,538.1 -258.9,542.9 -252.9,546.9 -254,549.9 
		-256.8,552.3 -256.3,562.3 -260,569.5 -259.9,581.3 -257.2,581.7 -258.2,584.6 -262.2,585 -266,579.7 -267.7,582.5 -265.7,583.6 
		-265,585.1 -279.8,585.3 -276.2,591.3 -263.5,591.4 -265.4,593.1 -275.3,594 -279.8,592.2 -283,587.8 -281.6,581.3 -282.5,568.7 
		-276.2,556.9 	"/>
	<polygon fill="#010101" points="-267.2,616.4 -267.2,610.9 -263.5,607.3 -260.1,603 -258.9,607.8 -252.9,611.9 -254,614.8 
		-256.8,617.2 -256.3,627.2 -260,634.4 -259.9,646.2 -257.2,646.6 -258.2,649.5 -262.2,649.9 -266,644.6 -267.7,647.4 -265.7,648.5 
		-265,650 -279.8,650.2 -276.2,656.2 -263.5,656.3 -265.4,658 -275.3,658.9 -279.8,657.1 -283,652.7 -281.6,646.2 -282.5,633.6 
		-276.2,621.8 	"/>
	<polygon fill="#010101" points="-267.2,680.5 -267.2,675 -263.5,671.4 -260.1,667.1 -258.9,671.9 -252.9,675.9 -254,678.9 
		-256.8,681.3 -256.3,691.3 -260,698.5 -259.9,710.3 -257.2,710.7 -258.2,713.6 -262.2,714 -266,708.7 -267.7,711.5 -265.7,712.6 
		-265,714.1 -279.8,714.3 -276.2,720.3 -263.5,720.4 -265.4,722.1 -275.3,723 -279.8,721.2 -283,716.8 -281.6,710.3 -282.5,697.7 
		-276.2,685.9 	"/>
	<polygon fill="#010101" points="-213.2,391.4 -213.2,385.9 -209.5,382.3 -206.1,378 -204.9,382.8 -198.9,386.9 -200,389.8 
		-202.8,392.2 -202.3,402.2 -206,409.4 -205.9,421.2 -203.2,421.6 -204.2,424.5 -208.2,424.9 -212,419.6 -213.7,422.4 -211.7,423.5 
		-211,425 -225.8,425.2 -222.2,431.2 -209.5,431.3 -211.4,433 -221.3,433.9 -225.8,432.1 -229,427.7 -227.6,421.2 -228.5,408.6 
		-222.2,396.8 	"/>
	<polygon fill="#010101" points="-213.2,456.3 -213.2,450.8 -209.5,447.2 -206.1,442.9 -204.9,447.7 -198.9,451.8 -200,454.7 
		-202.8,457.1 -202.3,467.1 -206,474.3 -205.9,486.1 -203.2,486.5 -204.2,489.4 -208.2,489.8 -212,484.5 -213.7,487.3 -211.7,488.4 
		-211,489.9 -225.8,490.1 -222.2,496.1 -209.5,496.2 -211.4,497.9 -221.3,498.8 -225.8,497 -229,492.6 -227.6,486.1 -228.5,473.5 
		-222.2,461.7 	"/>
	<polygon fill="#010101" points="-213.2,520.4 -213.2,514.9 -209.5,511.3 -206.1,507 -204.9,511.8 -198.9,515.9 -200,518.8 
		-202.8,521.2 -202.3,531.2 -206,538.4 -205.9,550.2 -203.2,550.6 -204.2,553.5 -208.2,553.9 -212,548.6 -213.7,551.4 -211.7,552.5 
		-211,554 -225.8,554.2 -222.2,560.2 -209.5,560.3 -211.4,562 -221.3,562.9 -225.8,561.1 -229,556.7 -227.6,550.2 -228.5,537.6 
		-222.2,525.8 	"/>
	<polygon fill="#010101" points="-213.2,585.3 -213.2,579.8 -209.5,576.2 -206.1,571.9 -204.9,576.7 -198.9,580.8 -200,583.7 
		-202.8,586.1 -202.3,596.1 -206,603.3 -205.9,615.1 -203.2,615.5 -204.2,618.4 -208.2,618.8 -212,613.5 -213.7,616.3 -211.7,617.4 
		-211,618.9 -225.8,619.1 -222.2,625.1 -209.5,625.2 -211.4,626.9 -221.3,627.8 -225.8,626 -229,621.6 -227.6,615.1 -228.5,602.5 
		-222.2,590.7 	"/>
	<polygon fill="#010101" points="-213.2,649.4 -213.2,643.9 -209.5,640.3 -206.1,636 -204.9,640.8 -198.9,644.9 -200,647.8 
		-202.8,650.2 -202.3,660.2 -206,667.4 -205.9,679.2 -203.2,679.6 -204.2,682.5 -208.2,682.9 -212,677.6 -213.7,680.4 -211.7,681.5 
		-211,683 -225.8,683.2 -222.2,689.2 -209.5,689.3 -211.4,691 -221.3,691.9 -225.8,690.1 -229,685.7 -227.6,679.2 -228.5,666.6 
		-222.2,654.8 	"/>
	<polygon fill="#010101" points="-159.2,422.5 -159.2,417 -155.5,413.4 -152.1,409.1 -150.9,413.9 -144.9,417.9 -146,420.9 
		-148.8,423.3 -148.3,433.3 -152,440.5 -151.9,452.3 -149.2,452.7 -150.2,455.6 -154.2,456 -158,450.7 -159.7,453.5 -157.7,454.6 
		-157,456.1 -171.8,456.3 -168.2,462.3 -155.5,462.4 -157.4,464.1 -167.3,465 -171.8,463.2 -175,458.8 -173.6,452.3 -174.5,439.7 
		-168.2,427.9 	"/>
	<polygon fill="#010101" points="-159.2,487.4 -159.2,481.9 -155.5,478.3 -152.1,474 -150.9,478.8 -144.9,482.9 -146,485.8 
		-148.8,488.2 -148.3,498.2 -152,505.4 -151.9,517.2 -149.2,517.6 -150.2,520.5 -154.2,520.9 -158,515.6 -159.7,518.4 -157.7,519.5 
		-157,521 -171.8,521.2 -168.2,527.2 -155.5,527.3 -157.4,529 -167.3,529.9 -171.8,528.1 -175,523.7 -173.6,517.2 -174.5,504.6 
		-168.2,492.8 	"/>
	<polygon fill="#010101" points="-159.2,551.5 -159.2,546 -155.5,542.4 -152.1,538.1 -150.9,542.9 -144.9,546.9 -146,549.9 
		-148.8,552.3 -148.3,562.3 -152,569.5 -151.9,581.3 -149.2,581.7 -150.2,584.6 -154.2,585 -158,579.7 -159.7,582.5 -157.7,583.6 
		-157,585.1 -171.8,585.3 -168.2,591.3 -155.5,591.4 -157.4,593.1 -167.3,594 -171.8,592.2 -175,587.8 -173.6,581.3 -174.5,568.7 
		-168.2,556.9 	"/>
	<polygon fill="#010101" points="-159.2,616.4 -159.2,610.9 -155.5,607.3 -152.1,603 -150.9,607.8 -144.9,611.9 -146,614.8 
		-148.8,617.2 -148.3,627.2 -152,634.4 -151.9,646.2 -149.2,646.6 -150.2,649.5 -154.2,649.9 -158,644.6 -159.7,647.4 -157.7,648.5 
		-157,650 -171.8,650.2 -168.2,656.2 -155.5,656.3 -157.4,658 -167.3,658.9 -171.8,657.1 -175,652.7 -173.6,646.2 -174.5,633.6 
		-168.2,621.8 	"/>
	<polygon fill="#010101" points="-159.2,680.5 -159.2,675 -155.5,671.4 -152.1,667.1 -150.9,671.9 -144.9,675.9 -146,678.9 
		-148.8,681.3 -148.3,691.3 -152,698.5 -151.9,710.3 -149.2,710.7 -150.2,713.6 -154.2,714 -158,708.7 -159.7,711.5 -157.7,712.6 
		-157,714.1 -171.8,714.3 -168.2,720.3 -155.5,720.4 -157.4,722.1 -167.3,723 -171.8,721.2 -175,716.8 -173.6,710.3 -174.5,697.7 
		-168.2,685.9 	"/>
</g>
</svg>
